<svg xmlns="http://www.w3.org/2000/svg" enable-background="new 0 0 2500 2500" viewBox="0 0 2500 2500"><path d="M2084.02,849.36c-28.79,1.48-56.34-4.04-80.93-15.18l-107.57,34.86l-16.4-10.56l43.69-40.45l17.14-32.04
			c-23.21-27.96-37.88-63.37-39.9-102.44c-5.01-96.56,69.24-178.93,165.8-183.94c96.56-5.01,178.9,69.21,183.91,165.77
			C2254.83,761.98,2180.58,844.32,2084.02,849.36z"/><path fill="#fff" d="M1043.82,1279.21l-741.24,135.61c-11.24,2.06-22.01-5.39-24.07-16.62l-28.62-156.44
				c-2.06-11.24,5.39-22.01,16.62-24.07l741.24-135.61c11.24-2.06,22.01,5.39,24.07,16.62l28.62,156.44
				C1062.49,1266.38,1055.05,1277.16,1043.82,1279.21z"/><path fill="#ecedeb" d="M1040.78,1147.8l10.66,58.28c7.01,38.34-13.4,74.2-45.65,80.1l-665.2,121.7
				c-21.9,4.01-43.59-6.84-57.44-26.23c147-25.06,665.48-103.05,704.2-149.3c30.39-36.33-8.9-106.89-24.65-142l7.03-1.29
				C1001.98,1083.15,1033.76,1109.43,1040.78,1147.8z" opacity=".6"/><path d="M335.56,1410.1c-32.56,0-61.58-23.27-67.64-56.42l-12.17-66.52c-6.83-37.31,17.98-73.23,55.29-80.05l651.32-119.16
				c18.06-3.31,36.36,0.62,51.48,11.07c15.12,10.44,25.27,26.15,28.57,44.23l12.17,66.52c6.83,37.31-17.98,73.23-55.29,80.05
				l-651.32,119.16C343.8,1409.73,339.65,1410.1,335.56,1410.1z M974.87,1091.61c-3.87,0-7.76,0.35-11.65,1.06L311.9,1211.84
				c-34.7,6.35-57.77,39.75-51.42,74.45l12.17,66.52c6.35,34.7,39.75,57.78,74.45,51.42l651.32-119.16
				c34.7-6.35,57.77-39.75,51.42-74.45l-12.17-66.52c-3.08-16.81-12.51-31.42-26.58-41.13
				C1000.29,1095.5,987.73,1091.61,974.87,1091.61z M998.85,1287.44h0.03H998.85z"/><path d="M368.72,1259.32l13.22,72.27c0.66,3.6-2.22,7.17-6.44,7.94c-4.19,0.77-8.15-1.55-8.8-5.15l-13.22-72.27
						c-0.66-3.63,2.22-7.17,6.41-7.93c2.11-0.39,4.16,0,5.75,0.91C367.22,1256.05,368.38,1257.51,368.72,1259.32z"/><path d="M401.03,1274.56l-55.71,55.56c-2.77,2.77-7.5,2.57-10.53-0.47c-3.01-3.01-3.2-7.74-0.42-10.5l55.71-55.56
						c2.8-2.79,7.5-2.57,10.5,0.45c1.51,1.52,2.32,3.47,2.42,5.35C403.06,1271.3,402.43,1273.17,401.03,1274.56z"/><path d="M328.65,1287.8l71.77,32.24c3.58,1.61,7.92-0.25,9.68-4.17c1.74-3.88,0.25-8.37-3.33-9.97L335,1273.66
						c-3.6-1.62-7.92,0.25-9.66,4.14c-0.88,1.96-0.94,4.07-0.37,5.85C325.6,1285.47,326.85,1286.99,328.65,1287.8z"/><path d="M503.2,1234.72l13.22,72.27c0.66,3.6-2.22,7.17-6.44,7.94c-4.19,0.77-8.15-1.55-8.8-5.15l-13.22-72.27
						c-0.66-3.63,2.22-7.17,6.41-7.93c2.11-0.39,4.16,0,5.75,0.91C501.71,1231.44,502.87,1232.91,503.2,1234.72z"/><path d="M535.52,1249.95l-55.71,55.56c-2.77,2.77-7.5,2.57-10.53-0.47c-3.01-3.01-3.2-7.74-0.42-10.5l55.71-55.56
						c2.8-2.79,7.5-2.57,10.5,0.45c1.51,1.52,2.32,3.47,2.42,5.35C537.55,1246.69,536.92,1248.56,535.52,1249.95z"/><path d="M463.14,1263.2l71.77,32.24c3.58,1.61,7.92-0.25,9.68-4.17c1.74-3.88,0.25-8.37-3.33-9.97l-71.77-32.24
						c-3.6-1.62-7.92,0.25-9.66,4.14c-0.88,1.96-0.94,4.07-0.37,5.85C460.09,1260.86,461.34,1262.39,463.14,1263.2z"/><path d="M637.69,1210.11l13.22,72.27c0.66,3.6-2.22,7.17-6.44,7.94c-4.19,0.77-8.15-1.55-8.8-5.15l-13.22-72.27
						c-0.66-3.63,2.22-7.17,6.41-7.93c2.11-0.39,4.16,0,5.75,0.91C636.2,1206.84,637.36,1208.3,637.69,1210.11z"/><path d="M670.01,1225.35l-55.71,55.56c-2.77,2.77-7.5,2.57-10.53-0.47c-3.01-3.01-3.2-7.74-0.42-10.5l55.71-55.56
						c2.8-2.79,7.5-2.57,10.5,0.45c1.51,1.52,2.32,3.47,2.42,5.35C672.03,1222.09,671.4,1223.96,670.01,1225.35z"/><path d="M597.62,1238.59l71.77,32.24c3.58,1.61,7.92-0.25,9.68-4.17c1.74-3.88,0.25-8.37-3.33-9.97l-71.77-32.24
						c-3.6-1.62-7.92,0.25-9.66,4.14c-0.88,1.96-0.94,4.07-0.37,5.85C594.57,1236.26,595.82,1237.78,597.62,1238.59z"/><path d="M772.18,1185.51l13.22,72.27c0.66,3.6-2.22,7.17-6.44,7.94c-4.19,0.77-8.15-1.55-8.8-5.15l-13.22-72.27
						c-0.66-3.63,2.22-7.17,6.41-7.93c2.11-0.39,4.16,0,5.75,0.91C770.69,1182.23,771.85,1183.7,772.18,1185.51z"/><path d="M804.49,1200.74l-55.71,55.56c-2.77,2.77-7.5,2.57-10.53-0.47c-3.01-3.01-3.2-7.74-0.42-10.5l55.71-55.56
						c2.8-2.79,7.5-2.57,10.5,0.45c1.51,1.52,2.32,3.47,2.42,5.35C806.52,1197.48,805.89,1199.35,804.49,1200.74z"/><path d="M732.11,1213.99l71.77,32.24c3.58,1.61,7.92-0.25,9.68-4.17c1.74-3.88,0.25-8.37-3.33-9.97l-71.77-32.24
						c-3.6-1.62-7.92,0.25-9.66,4.14c-0.88,1.96-0.94,4.07-0.37,5.86C729.06,1211.65,730.31,1213.18,732.11,1213.99z"/><path d="M906.67,1160.9l13.22,72.27c0.66,3.6-2.22,7.17-6.44,7.94c-4.19,0.77-8.15-1.55-8.8-5.15l-13.22-72.27
						c-0.66-3.63,2.22-7.17,6.41-7.93c2.11-0.39,4.16,0,5.75,0.91C905.17,1157.63,906.33,1159.09,906.67,1160.9z"/><path d="M938.98,1176.14l-55.71,55.56c-2.77,2.77-7.5,2.57-10.53-0.47c-3.01-3.01-3.2-7.74-0.42-10.5l55.71-55.56
						c2.8-2.79,7.5-2.57,10.5,0.45c1.51,1.52,2.32,3.47,2.42,5.35C941.01,1172.88,940.38,1174.74,938.98,1176.14z"/><path d="M866.6,1189.38l71.77,32.24c3.58,1.61,7.92-0.25,9.68-4.17c1.74-3.88,0.25-8.37-3.33-9.97l-71.77-32.24
						c-3.6-1.62-7.92,0.25-9.66,4.14c-0.88,1.96-0.94,4.07-0.37,5.86C863.55,1187.05,864.8,1188.57,866.6,1189.38z"/><path d="M1048.77,818.83c-7.29,10.49-18.68,17.06-31.61,18.14c-10.11,0.81-20.15-2.28-28.51-8.09l-62.8-43.56
					c-13.94-9.7-20.33-26.27-17.74-42c0.17,0.5,0.37,1.03,0.57,1.53c0.67,1.61,1.45,3.23,2.32,4.77c3.05,5.4,7.36,10.22,12.81,13.99
					l62.77,43.59l0.03,0c1.75,1.22,3.56,2.3,5.44,3.28l0.03,0c0.94,0.48,1.87,0.92,2.84,1.35c1.96,0.82,3.95,1.53,6,2.11
					c1,0.26,2.03,0.49,3.06,0.7c3.63,0.72,7.36,0.96,11.12,0.65c4.06-0.32,7.94-1.2,11.61-2.58c1.47-0.54,2.89-1.16,4.28-1.87
					c2.76-1.39,5.37-3.11,7.77-5.06c1.81-1.48,3.49-3.13,5.04-4.9c1.03-1.19,2.01-2.43,2.91-3.73c0.03,0,0.03-0.03,0.03-0.03
					c1.13-1.65,2.16-3.35,3.02-5.12c1.82-3.75,3.05-7.66,3.68-11.68c0,0,0.03,0,0.03,0.03
					C1057.92,792.94,1056.78,807.34,1048.77,818.83z"/><path fill="#727ef4" d="M908.67,744.85c0.67,1.61,1.45,3.23,2.32,4.77C910.1,748.08,909.34,746.49,908.67,744.85z"/><path fill="#727ef4" d="M908.11,743.3l0,0.03c-4.82-13.04-3.18-28.21,5.87-40.26c1.62-2.17,3.42-4.12,5.35-5.87
					c-1.93,1.75-3.7,3.7-5.32,5.87C904.98,715.09,903.32,730.26,908.11,743.3z"/><path fill="#727ef4" d="M923.8,763.61l62.77,43.59l-62.8-43.56c-5.44-3.78-9.72-8.6-12.78-14.02
					C914.04,755.01,918.35,759.83,923.8,763.61z"/><path fill="#727ef4" d="M986.59,807.2c1.75,1.22,3.56,2.3,5.44,3.28C990.16,809.53,988.35,808.42,986.59,807.2z"/><path fill="#727ef4" d="M1038.74,805.77c-2.4,1.98-5.01,3.67-7.77,5.06C1033.73,809.45,1036.34,807.72,1038.74,805.77z"/><path fill="#727ef4" d="M1046.73,749.21c1.03,1.54,1.92,3.17,2.72,4.84C1048.65,752.4,1047.73,750.78,1046.73,749.21z"/><path fill="#727ef4" d="M1053.45,780.35c-0.63,4.02-1.86,7.93-3.7,11.65c1.82-3.75,3.05-7.66,3.68-11.68
					c1.43-8.9-0.02-18.14-3.97-26.28C1053.43,762.19,1054.88,771.45,1053.45,780.35z"/><path fill="#fff" d="M1104.95,486.16c-12.9,0.79-9.63,24.59-9.63,24.59s-7.84-26.17-18.87-22.01
					c-11.02,4.16-5.85,20.79-5.85,20.79s-9.79-16.61-18-11.3s-2.51,34.28-2.51,34.28s-11.26-15.45-18.44,3.7
					c-7.18,19.14,27.12,112.28,38.08,132.01l101.04-17.24C1170.76,650.97,1128.36,484.73,1104.95,486.16z"/><path fill="#727ef4" d="M1430.81,1985.37l13.03,160.05c1.56,20.38-13.67,38.14-34.05,39.71l-145.05,11.12
													c-11.66,0.89-22.32-4.69-28.47-13.68c-3.09-4.49-5.07-9.84-5.48-15.69c-1.31-18.86,5.07-36.44,16.51-49.74
													c11.46-13.44,28.09-22.51,47.12-23.97l8.99-0.69c22.76-1.75,39.82-21.63,38.07-44.4l-5.01-55.48L1430.81,1985.37z"/><path fill="#ecedeb" d="M1308.21,2109.27c2.88,37.53-25.23,70.35-62.8,73.23c-3.08,0.24-6.14,0.26-9.15,0.07
													c-3.09-4.49-5.07-9.84-5.48-15.69c-1.31-18.86,5.07-36.44,16.51-49.74c11.46-13.44,28.09-22.51,47.12-23.97l10.31-0.79
													C1306.56,2097.71,1307.76,2103.39,1308.21,2109.27z"/><path d="M1231.75,2172.57c3.74,14.58,17.46,24.89,32.99,23.7l145.06-11.12c16.62-1.27,29.81-13.33,33.26-28.78
													L1231.75,2172.57z"/><polygon points="1436.28 2046.72 1430.82 1985.4 1336.49 1992.63 1341.95 2053.95"/><path d="M1324.75,2096.32l-4.86,2.92c-0.54,0.33-1.25,0.15-1.58-0.39l-6.57-10.93c-0.33-0.54-0.15-1.25,0.39-1.58
												l4.86-2.92c0.54-0.33,1.25-0.15,1.58,0.39l6.57,10.93C1325.47,2095.29,1325.3,2096,1324.75,2096.32z"/><path d="M1334.03,2088.44l-4.86,2.92c-0.54,0.33-1.25,0.15-1.58-0.39l-6.57-10.93c-0.33-0.54-0.15-1.25,0.39-1.58
												l4.86-2.92c0.54-0.33,1.25-0.15,1.58,0.39l6.57,10.93C1334.75,2087.41,1334.58,2088.11,1334.03,2088.44z"/><path d="M1343.31,2080.55l-4.86,2.92c-0.54,0.33-1.25,0.15-1.58-0.39l-6.57-10.93c-0.33-0.54-0.15-1.25,0.39-1.58
												l4.86-2.92c0.54-0.33,1.25-0.15,1.58,0.39l6.57,10.93C1344.03,2079.52,1343.86,2080.23,1343.31,2080.55z"/><path fill="#727ef4" d="M1740.15,1985.37l13.03,160.05c1.56,20.38-13.67,38.14-34.05,39.71l-145.05,11.12
													c-11.66,0.89-22.32-4.69-28.47-13.68c-3.09-4.49-5.07-9.84-5.48-15.69c-1.31-18.86,5.07-36.44,16.51-49.74
													c11.46-13.44,28.09-22.51,47.12-23.97l8.99-0.69c22.76-1.75,39.82-21.63,38.07-44.4l-5.01-55.48L1740.15,1985.37z"/><path fill="#ecedeb" d="M1617.56,2109.27c2.88,37.53-25.23,70.35-62.8,73.23c-3.08,0.24-6.14,0.26-9.15,0.07
													c-3.09-4.49-5.07-9.84-5.48-15.69c-1.31-18.86,5.07-36.44,16.51-49.74c11.46-13.44,28.09-22.51,47.12-23.97l10.31-0.79
													C1615.9,2097.71,1617.1,2103.39,1617.56,2109.27z"/><path d="M1541.09,2172.57c3.74,14.58,17.46,24.89,32.99,23.7l145.06-11.12c16.62-1.27,29.81-13.33,33.26-28.78
													L1541.09,2172.57z"/><polygon points="1745.62 2046.72 1740.16 1985.4 1645.84 1992.63 1651.29 2053.95"/><path d="M1634.1,2096.32l-4.86,2.92c-0.54,0.33-1.25,0.15-1.58-0.39l-6.57-10.93c-0.33-0.54-0.15-1.25,0.39-1.58
												l4.86-2.92c0.54-0.33,1.25-0.15,1.58,0.39l6.57,10.93C1634.82,2095.29,1634.64,2096,1634.1,2096.32z"/><path d="M1643.38,2088.44l-4.86,2.92c-0.54,0.33-1.25,0.15-1.58-0.39l-6.57-10.93c-0.33-0.54-0.15-1.25,0.39-1.58
												l4.86-2.92c0.54-0.33,1.25-0.15,1.58,0.39l6.57,10.93C1644.1,2087.41,1643.92,2088.11,1643.38,2088.44z"/><path d="M1652.65,2080.55l-4.86,2.92c-0.54,0.33-1.25,0.15-1.58-0.39l-6.57-10.93c-0.33-0.54-0.15-1.25,0.39-1.58
												l4.86-2.92c0.54-0.33,1.25-0.15,1.58,0.39l6.57,10.93C1653.37,2079.52,1653.2,2080.23,1652.65,2080.55z"/><path fill="#ec4e84" d="M1264.61,1680.79c-0.03,74.3,11.18,127.17,22.87,216.42c1.93,14.68,3.87,28.7,5.74,41.79
											c7.7,52.87,14.77,90.61,18.19,94.84c12.33,15.44,146.33,2.63,146.33-23.11c0-5.17-0.69-21.03-1.81-43.75
											c-0.57-11.96-1.24-25.86-1.99-41.12c-4.89-99.89-12.42-197.36-9.58-255.82c1.09-22,18.82-64.69,42.51-112.64
											c20-40.52,44.26-84.81,66.26-123.52c11.57-20.36,22.51-39.16,31.88-55.08c17.89-30.36,30.09-50.25,30.09-50.25
											l-20.58-170.74c0,0-97.71-14.41-138.83,31.88C1414.54,1235.98,1264.64,1549.12,1264.61,1680.79z"/><path fill="#db407c" d="M1486.87,1557.39c30.52-61.82,70.91-132.37,98.14-178.6l-26.41-65.2
											C1558.6,1313.6,1486.17,1472.55,1486.87,1557.39z"/><path fill="#ec4e84" d="M1553.13,1433.88c0,0,37.47,321.57,59.34,498.69c1.9,15.44,3.69,29.34,5.32,41.27
											c3.72,27.04,6.65,44.08,8.37,46.62c17.71,26.1,140.04,15.8,144,0c0.27-1.09,0.06-21.66-0.51-55.69
											c-0.24-12.24-0.48-26.23-0.79-41.67c-4.02-207.27-15.53-616.19-20.03-658.34c-11.33-105.93-154.3-106.96-154.3-106.96
											C1565.88,1226.85,1555.58,1324.29,1553.13,1433.88z"/><path d="M1554.83,1475.65c-2.6-26.1-4.11-41.53-4.11-41.53c1.33-60.54,4.92-110.93,10.96-154.34l4.77,0.66
											c-6.01,43.22-9.59,93.43-10.93,153.49c0.02,0,1.52,15.38,4.09,41.24L1554.83,1475.65z"/><path d="M1688.13,1471.33c-9.85,0-19.28-3.43-26.94-9.87c-8.83-7.43-14.11-17.85-14.87-29.36l-6.36-95.86
												c-0.48-7.25,1.91-14.23,6.73-19.67c4.82-5.43,11.47-8.64,18.72-9.02l85.55-4.52l0.26,4.81l-85.55,4.52
												c-5.96,0.31-11.42,2.95-15.38,7.41c-3.96,4.46-5.93,10.2-5.53,16.15l6.36,95.86c0.68,10.19,5.35,19.42,13.17,26
												c7.81,6.57,17.72,9.6,27.87,8.52l63.82-6.77l0.51,4.79l-63.82,6.77C1691.14,1471.25,1689.63,1471.33,1688.13,1471.33z"/><rect width="109.62" height="4.82" x="1642.77" y="1338.19" transform="rotate(-2.763 1697.002 1340.16)"/><path d="M1363.6,1411.35c-7.06,0-14.02-1.86-20.31-5.52l2.42-4.16c8.48,4.92,18.33,6.15,27.76,3.48
												c9.45-2.69,17.2-8.94,21.84-17.61l43.75-81.88c2.7-5.07,3.25-10.88,1.54-16.36c-1.71-5.48-5.45-9.94-10.55-12.57
												l-20.79-10.76l2.21-4.28l20.79,10.76c6.24,3.22,10.84,8.69,12.94,15.41c2.1,6.73,1.43,13.85-1.89,20.07l-43.75,81.88
												c-5.26,9.83-14.05,16.92-24.77,19.97C1371.09,1410.83,1367.33,1411.35,1363.6,1411.35z"/><rect width="4.81" height="46.92" x="1414.62" y="1278.78" transform="rotate(-62.956 1416.95 1302.17)"/><path d="M1687.26,1270.52c-158.74,0-239.53-68.91-240.42-69.69l3.17-3.62c0.99,0.86,101.25,86.19,298.56,65.17l0.51,4.79
											C1727.31,1269.49,1706.69,1270.52,1687.26,1270.52z"/><path d="M1612.5,1934.97l-0.06-4.82c51.14-0.61,103.68-3.79,156.16-9.44l0.51,4.79
											C1716.49,1931.17,1663.79,1934.36,1612.5,1934.97z"/><path d="M1453.7,1928.25c-76.11-7.53-132.73-19.77-166.82-28.71l1.22-4.66c33.92,8.9,90.27,21.08,166.07,28.58
											L1453.7,1928.25z"/><path d="M1617.81,1976.24l-0.06-4.82c49.49-0.61,100.5-3.65,151.63-9.05l0.51,4.79
											C1718.62,1972.58,1667.45,1975.63,1617.81,1976.24z"/><path d="M1455.69,1969.37c-74-7.42-129.52-19.35-163.06-28.04l1.21-4.66c33.38,8.65,88.64,20.52,162.34,27.91
											L1455.69,1969.37z"/><path d="M1069.72,670.62c-0.87,0-1.68-0.47-2.11-1.24c-10.03-18.07-46.07-113.09-38.22-134.02
							c2.53-6.76,5.99-10.48,10.27-11.07c2.58-0.36,4.96,0.5,6.93,1.72c-1.29-9.67-2.17-25.38,4.7-29.81
							c2.09-1.35,4.49-1.75,6.95-1.17c3.27,0.77,6.3,3.18,8.74,5.75c0.13-5.8,2.17-11.86,8.62-14.29c2.45-0.93,5.03-0.78,7.45,0.43
							c4.08,2.02,7.42,6.81,9.86,11.53c0.51-3.87,1.65-7.84,3.96-10.66c2.03-2.48,4.7-3.84,7.93-4.03c0.13-0.01,0.25-0.01,0.38-0.01
							c24.18,0,60.79,138.7,67.91,166.63c0.17,0.65,0.05,1.34-0.31,1.91c-0.37,0.56-0.95,0.95-1.61,1.06l-101.04,17.24
							C1069.99,670.61,1069.85,670.62,1069.72,670.62z M1040.82,529.03c-0.17,0-0.34,0.01-0.51,0.04c-2.98,0.41-5.12,4.57-6.4,7.99
							c-6.62,17.67,25.44,106.03,37.12,128.5l96.76-16.51c-16.3-63.32-46.99-160.48-62.47-160.48c-0.08,0-0.15,0-0.22,0.01l0,0
							c-1.86,0.11-3.33,0.86-4.49,2.28c-3.92,4.77-3.42,15.75-2.9,19.58c0.17,1.25-0.65,2.41-1.87,2.68
							c-1.23,0.27-2.45-0.46-2.82-1.66c-1.4-4.65-6.29-17.35-12.09-20.21c-1.25-0.62-2.4-0.7-3.62-0.24
							c-8.76,3.31-4.45,17.67-4.4,17.82c0.36,1.17-0.21,2.42-1.33,2.91c-1.11,0.5-2.42,0.08-3.04-0.97
							c-1.6-2.7-6.75-9.93-11.4-11.03c-1.19-0.28-2.22-0.11-3.23,0.53c-4.71,3.04-3.68,20.43-1.45,31.8
							c0.22,1.11-0.36,2.21-1.4,2.67c-1.03,0.45-2.24,0.13-2.91-0.78C1047.1,532.51,1043.85,529.03,1040.82,529.03z M1104.94,486.16
							h0.03H1104.94z"/><path d="M1112.91,574.94c-0.87,0-1.71-0.47-2.13-1.29c-6.05-11.54-17.33-60.29-17.81-62.36c-0.3-1.3,0.51-2.59,1.8-2.89
							c1.29-0.3,2.59,0.51,2.89,1.8c0.12,0.5,11.62,50.21,17.38,61.2c0.62,1.18,0.16,2.63-1.02,3.25
							C1113.67,574.85,1113.29,574.94,1112.91,574.94z"/><path d="M1089.35,577.06c-0.76,0-1.51-0.36-1.98-1.04c-5.68-8.19-17.77-60.07-19.12-65.96c-0.3-1.3,0.51-2.59,1.8-2.89
							c1.28-0.3,2.59,0.5,2.89,1.8c3.64,15.75,14.03,58.01,18.39,64.3c0.76,1.09,0.49,2.59-0.61,3.35
							C1090.3,576.92,1089.83,577.06,1089.35,577.06z"/><path d="M1066.15,583.9c-0.85,0-1.67-0.45-2.11-1.24c-3.85-6.95-15.76-47.75-16.27-49.48c-0.37-1.28,0.36-2.61,1.64-2.99
							c1.28-0.38,2.61,0.36,2.98,1.64c3.4,11.66,12.88,43.11,15.86,48.5c0.64,1.16,0.22,2.63-0.94,3.27
							C1066.94,583.81,1066.54,583.9,1066.15,583.9z"/><path fill="#727ef4" d="M1052.85,662.77c-3.65,13.3-6.2,226.69,188.82,322.95c8.52,4.21,16.98,7.89,25.37,11.1
						c69.84,26.87,134.69,20.99,188.29,3.36c87.27-28.65,144.59-88.45,144.59-88.45l-53.15-88.93c0,0-141.66,93.79-265.61,13.21
						c-87.4-56.82-94.14-206.08-94.14-206.08S1056.5,649.48,1052.85,662.77z"/><path fill="#4a61d8" d="M1267.05,996.83c69.84,26.87,134.69,20.99,188.29,3.36c2.79-37.39,6.59-92.1,6.59-92.1
						S1374.08,1003.57,1267.05,996.83z"/><path fill="#727ef4" d="M1451.55,957.5c0,96.16,77.94,174.1,174.1,174.1c62.99,0,118.13-33.4,148.71-83.48
						c16.11-26.39,25.39-57.42,25.39-90.62c0-8.61-0.64-17.1-1.86-25.39c-9.7-66.41-56.93-120.66-119.44-140.51
						c-16.65-5.31-34.39-8.16-52.8-8.16c-17.9,0-35.16,2.69-51.43,7.72C1503.17,813.08,1451.55,879.27,1451.55,957.5z"/><path d="M1625.65,1134.03c-97.33,0-176.51-79.18-176.51-176.51c0-14.87,1.85-29.65,5.51-43.93l4.66,1.19
						c-3.56,13.89-5.36,28.26-5.36,42.73c0,94.67,77.02,171.7,171.7,171.7V1134.03z"/><circle cx="1619.54" cy="659.57" r="103.46" fill="#fff"/><path d="M1619.56,765.44c-0.31,0-0.62,0-0.94,0c-28.28-0.25-54.77-11.49-74.59-31.66c-19.82-20.17-30.6-46.85-30.36-75.13
							c0.51-58.37,48.31-105.42,106.79-104.94c28.28,0.25,54.77,11.49,74.59,31.66c19.82,20.17,30.6,46.85,30.36,75.13
							C1724.9,718.55,1677.51,765.44,1619.56,765.44z M1619.53,558.51c-55.32,0-100.55,44.75-101.04,100.17
							c-0.24,26.99,10.05,52.46,28.98,71.71c18.92,19.25,44.2,29.98,71.2,30.22c0.29,0,0.6,0,0.89,0
							c55.32,0,100.55-44.75,101.03-100.17c0.24-26.99-10.05-52.46-28.98-71.71c-18.92-19.25-44.2-29.98-71.2-30.22
							C1620.13,558.52,1619.83,558.51,1619.53,558.51z"/><path fill="#fff" d="M1755.29,684.45c-0.15,16.75-13.87,30.24-30.62,30.09c-16.75-0.15-30.24-13.87-30.09-30.62
							c0.03-3.53,0.68-6.89,1.81-10.02c4.21-11.76,15.55-20.15,28.81-20.03c11.93,0.1,22.21,7.09,27.03,17.12
							C1754.23,675.03,1755.34,679.63,1755.29,684.45z"/><path d="M1724.94,716.95c-0.1,0-0.19,0-0.29,0c-7.57-0.07-14.93-2.78-20.72-7.63c-1.02-0.85-1.15-2.37-0.3-3.39
							c0.86-1.02,2.37-1.15,3.39-0.3c4.94,4.14,11.22,6.45,17.68,6.51c0.08,0,0.16,0,0.25,0c15.3,0,27.81-12.38,27.94-27.71
							c0.04-4.29-0.94-8.57-2.82-12.37c-4.57-9.5-14.33-15.68-24.89-15.77c-11.95-0.15-22.53,7.31-26.52,18.44
							c-0.45,1.25-1.82,1.9-3.08,1.45c-1.25-0.45-1.9-1.83-1.45-3.08c4.65-12.97,17-21.63,30.81-21.63c0.1,0,0.19,0,0.29,0
							c12.38,0.11,23.83,7.36,29.18,18.48c2.2,4.45,3.35,9.48,3.3,14.52C1757.55,702.44,1742.87,716.95,1724.94,716.95z"/><path d="M1778.93,649.74c-6.89,9.57-16.1,16.7-26.7,21.24c-4.82-10.03-15.1-17.01-27.03-17.12
							c-13.26-0.12-24.6,8.27-28.81,20.03c-11.82-3.19-23.52-8.69-34.41-16.52c-40.53-29.17-53.84-79.92-29.77-113.34
							c24.07-33.42,76.46-36.85,116.95-7.64C1789.65,565.57,1802.99,616.32,1778.93,649.74z"/><circle cx="1577.8" cy="517.32" r="80.57"/><circle cx="1650.88" cy="492.64" r="61.18"/><circle cx="1751.28" cy="533.45" r="61.18"/><ellipse cx="1591.94" cy="660.62" rx="10.53" ry="8.33" transform="rotate(-79.793 1591.904 660.597)"/><path fill="#fff" d="M1587.83,639.13c8.13-1.61,17.02,2.1,22.22,9.28"/><path d="M1610.06,650.81c-0.75,0-1.48-0.34-1.95-0.99c-4.65-6.41-12.61-9.76-19.81-8.33c-1.29,0.24-2.57-0.59-2.83-1.9
							c-0.26-1.3,0.59-2.57,1.89-2.83c9.02-1.78,18.91,2.33,24.64,10.23c0.78,1.08,0.54,2.58-0.54,3.36
							C1611.05,650.66,1610.55,650.81,1610.06,650.81z"/><ellipse cx="1540.39" cy="642.99" rx="10.53" ry="8.33" transform="rotate(-79.793 1540.352 642.968)"/><path fill="#fff" d="M1536.28,621.5c8.13-1.61,17.02,2.1,22.22,9.28"/><path d="M1558.51,633.18c-0.75,0-1.48-0.34-1.95-0.99c-4.64-6.4-12.61-9.75-19.81-8.33c-1.28,0.25-2.57-0.59-2.83-1.9
							c-0.26-1.3,0.59-2.57,1.89-2.83c9.02-1.78,18.91,2.33,24.64,10.23c0.78,1.08,0.54,2.58-0.54,3.36
							C1559.49,633.03,1559,633.18,1558.51,633.18z"/><path d="M1565.35,700.99c-0.2,0-0.4-0.03-0.61-0.08c-5-1.29-10.66-2.75-15.14-6.48c-4.54-3.78-7.63-10.74-4.76-16.72
							c1.79-3.73,5.31-5.89,8.42-7.79c0.7-0.43,1.4-0.86,2.08-1.3c9.74-6.4,15.55-18.49,14.44-30.1c-0.13-1.32,0.85-2.5,2.17-2.62
							c1.35-0.12,2.5,0.85,2.63,2.17c1.27,13.33-5.4,27.23-16.6,34.58c-0.72,0.47-1.46,0.92-2.21,1.38
							c-2.78,1.7-5.41,3.31-6.59,5.76c-1.79,3.72,0.47,8.41,3.5,10.93c3.64,3.03,8.75,4.35,13.26,5.52
							c1.29,0.33,2.06,1.65,1.73,2.93C1567.4,700.27,1566.42,700.99,1565.35,700.99z"/><path d="M1592.98,726.9c-2.98,0-5.96-0.39-8.86-1.2c-1.28-0.36-2.03-1.69-1.67-2.97c0.36-1.28,1.69-2.03,2.97-1.67
							c11.25,3.15,24.48-1.37,31.46-10.73c0.79-1.06,2.3-1.29,3.37-0.49c1.07,0.79,1.29,2.3,0.49,3.37
							C1614.28,721.87,1603.67,726.9,1592.98,726.9z"/><g><path fill="#4a61d8" d="M1605.3,831.57c33.01,6.53,61.76-25.88,73.16-39.97c-16.65-5.31-34.39-8.16-52.8-8.16
						c-17.9,0-35.16,2.69-51.43,7.72C1574.23,791.15,1563.96,823.4,1605.3,831.57z"/></g><g><path fill="#fff" d="M1551.48,1069.41c-10.87,0-38.73-34.93-40.33-44.62c-4.15-13.3,34.62-113.54,50.32-135.15
							c2.27-4.09,7.06-6.76,11.73-6.4l22.52,1.66c2.95,0.21,5.51,1.58,7.2,3.85c1.75,2.35,2.35,5.48,1.66,8.59l-0.1,0.33
							c-11.98,31.6-12.4,139.54-12.07,145.83l0.03,0.69l-0.33,0.6c-4.87,8.82-30.92,23.9-40.26,24.62
							C1551.74,1069.41,1551.61,1069.41,1551.48,1069.41z M1572.37,888.03c-2.67,0-5.43,1.68-6.85,4.21
							c-18.93,26.07-52.74,122.85-49.95,130.77l0.36,0.51l-0.03,0.43c0.86,7.53,27.97,40.65,35.4,40.65c0.06,0,0.13,0,0.19-0.01
							c7.65-0.59,31.23-14.17,36.1-21.62c-0.27-11.54,0.5-115.29,12.34-146.86c0.34-1.7,0.04-3.3-0.86-4.51
							c-0.84-1.13-2.15-1.81-3.68-1.92l-22.54-1.66C1572.69,888.03,1572.53,888.03,1572.37,888.03z"/><path fill="#fff" d="M1592.66,881.98c-1.14,0-2.28-0.08-3.4-0.25c-6.81-0.99-12.73-5.06-16.25-11.17
							c-3.41-5.93-4.12-13.11-1.86-18.75l0,0c3.87-9.72,14.67-13.37,32.14-10.82c11.12,1.63,17.89,4.74,20.7,9.51
							c1.74,2.95,1.89,6.39,0.45,10.21C1620.51,871.07,1606.08,881.97,1592.66,881.98z M1593.33,845.01
							c-9.5,0-15.44,2.87-17.71,8.58l0,0.01c-1.73,4.3-1.13,9.88,1.56,14.56c2.82,4.89,7.35,8.02,12.77,8.81
							c12.68,1.88,26.74-9.42,29.97-17.97c0.91-2.42,0.88-4.4-0.1-6.06c-1.37-2.33-5.48-5.47-17.25-7.19
							C1599.2,845.26,1596.11,845.01,1593.33,845.01z"/></g><g><path fill="#fff" d="M1796.03,1252.18c0,0-30.18,25.52-44.02,32.52c-13.84,7-37.44,8.26-37.74,20.49
							c-0.3,12.23,24.34,6.86,24.34,6.86s-40.47,19.48-39.37,30.83c1.1,11.35,23.21,2.04,23.21,2.04s-20.21,13.15-13.94,21.44
							c6.26,8.3,19.05-0.21,19.05-0.21s-11.63,12.41-5.09,18.05c6.53,5.64,29.65-6.4,29.65-6.4s-10.28,13.38,7.71,14.69
							c17.99,1.32,88.32-50.87,102.3-65.04L1796.03,1252.18z"/><path d="M1760.46,1394.94c-0.28,0-0.55-0.01-0.81-0.03c-6.47-0.47-10.56-2.53-12.16-6.11c-0.88-1.97-0.85-4.04-0.42-5.92
							c-7.97,3.48-20.72,7.86-26.18,3.15c-1.72-1.48-2.69-3.49-2.81-5.79c-0.15-2.81,0.97-5.8,2.41-8.41
							c-4.87,1.16-10.3,0.76-13.9-4.01c-1.44-1.91-1.97-4.2-1.55-6.64c0.66-3.73,3.52-7.5,6.66-10.65
							c-3.97,0.63-8.14,0.62-11.04-1.11c-2.23-1.33-3.55-3.51-3.82-6.3c-0.87-8.92,16.95-20.46,29.63-27.49
							c-4.25-0.12-8.61-0.93-11.45-3.27c-2.15-1.78-3.25-4.28-3.18-7.23c0.25-9.99,12.31-13.63,23.98-17.14
							c5.29-1.6,10.77-3.25,15.09-5.43c13.43-6.8,43.26-31.96,43.55-32.21c1-0.84,2.49-0.74,3.36,0.25l66.1,75.29
							c0.83,0.95,0.79,2.38-0.09,3.28C1851.19,1341.99,1781.28,1394.94,1760.46,1394.94z M1752.11,1375.41
							c0.69,0,1.37,0.3,1.84,0.86c0.72,0.86,0.76,2.11,0.07,3.01c-0.9,1.19-3.24,5.13-2.14,7.56c0.81,1.78,3.69,2.95,8.12,3.27
							c16.34,1.2,81.82-46.78,98.81-62.77l-63.04-71.8c-6.79,5.66-30.55,25.18-42.68,31.31c-4.7,2.38-10.38,4.09-15.87,5.75
							c-10.49,3.16-20.39,6.15-20.55,12.65c-0.04,1.48,0.42,2.57,1.43,3.4c4.22,3.49,16.15,1.88,20,1.05
							c1.18-0.26,2.39,0.42,2.79,1.57c0.4,1.15-0.13,2.42-1.23,2.95c-16.18,7.79-38.66,21.76-38.02,28.43
							c0.16,1.64,0.88,2.27,1.49,2.63c3.68,2.2,13.24-0.41,18.39-2.58c1.15-0.48,2.48-0.01,3.06,1.09c0.58,1.1,0.23,2.46-0.81,3.15
							c-3.56,2.32-13.02,9.55-13.98,15.07c-0.2,1.13,0.01,2.06,0.65,2.9c4.82,6.39,15.69-0.69,15.8-0.76
							c1.01-0.67,2.38-0.48,3.17,0.45c0.79,0.93,0.76,2.31-0.08,3.2c-1.87,1.99-6.65,8.07-6.43,12.19c0.05,1,0.42,1.77,1.15,2.4
							c3.65,3.15,17.97-2.03,26.96-6.71C1751.36,1375.5,1751.74,1375.41,1752.11,1375.41z"/><path d="M1739.87,1314.11l-2.51-4.11c0,0,16.96-10.35,21.22-13.03c1.13-0.71,2.61-0.37,3.32,0.75
							c0.71,1.13,0.37,2.61-0.76,3.32C1756.88,1303.73,1739.87,1314.11,1739.87,1314.11z"/><path d="M1722.46,1347.34c-0.84,0-1.66-0.44-2.1-1.23c-0.65-1.16-0.24-2.63,0.92-3.28c0.4-0.22,39.59-22.29,47.44-29.88
							c0.96-0.92,2.49-0.9,3.4,0.06c0.92,0.96,0.9,2.48-0.06,3.4c-8.3,8.02-46.79,29.7-48.43,30.62
							C1723.26,1347.24,1722.86,1347.34,1722.46,1347.34z"/><path d="M1727.56,1368.57c-0.84,0-1.66-0.44-2.1-1.23c-0.65-1.16-0.24-2.63,0.92-3.28c17.95-10.09,46.02-26.81,49.79-31.48
							c0.84-1.04,2.35-1.2,3.39-0.36c1.03,0.83,1.2,2.35,0.36,3.39c-5.56,6.89-46.52,30.03-51.18,32.65
							C1728.37,1368.47,1727.96,1368.57,1727.56,1368.57z"/><path d="M1752.12,1380.23c-0.79,0-1.57-0.39-2.03-1.11c-0.72-1.12-0.39-2.61,0.73-3.33c9.02-5.77,33.27-21.6,37.07-25.44
							c0.93-0.95,2.45-0.96,3.4-0.02c0.95,0.93,0.95,2.46,0.02,3.4c-4.95,5.01-36.56,25.25-37.9,26.11
							C1753.01,1380.1,1752.56,1380.23,1752.12,1380.23z"/><path fill="#727ef4" d="M1736.36,823.65c0,0,198.15,92.91,225.35,262.72c27.27,170.26-125.01,266.44-125.01,266.44l-53.19-93.74
						c0,0,107.17-86.08,76.11-177.38c-32.29-94.93-141.31-130.72-141.31-130.72"/><path d="M1785.02,1260.94l-3.02-3.75c1.06-0.85,105.49-86.1,75.34-174.73c-31.52-92.66-138.7-128.85-139.78-129.21l1.5-4.58
						c1.1,0.36,110.54,37.27,142.84,132.23C1893.14,1172.74,1786.1,1260.07,1785.02,1260.94z"/></g><g><path fill="#fea300" d="M1303.8,329.3c-0.96-5.17-3.85-9.99-8.52-13.24c-9.35-6.48-22.17-4.14-28.65,5.21l-16.99,24.51
					l-53.21-36.91c-7.46-5.2-17.85-3.06-22.6,4.88c-4.34,7.22-1.92,16.66,5.01,21.46l3.85,2.7c11.13,7.73,13.91,23,6.18,34.12
					c-7.73,11.15-23.03,13.91-34.15,6.18l-28.65-19.87c-6.93-4.82-16.61-3.8-21.86,2.79c-5.79,7.24-4.17,17.75,3.34,22.95
					l16.36,11.36l61.6,42.75l-8.19,11.82l-161.68,233l-12.69-8.8c-40.07-27.82-95.14-19.69-125.43,18.53
					c-1.21,1.56-2.4,3.15-3.53,4.8c-29.13,41.95-18.04,100.23,24.71,129.89l62.27,43.21c20.31,14.11,44.95,19.45,69.3,15.04
					c23.58-4.27,44.36-17.29,58.44-36.67c0.4-0.53,0.78-1.09,1.16-1.62c29.16-42.03,18.07-100.34-24.7-130.02l-15.75-10.92
					l251.01-361.73C1303.68,340.03,1304.73,334.5,1303.8,329.3z M1048.77,818.83c-7.29,10.49-18.68,17.06-31.61,18.14
					c-10.11,0.81-20.15-2.28-28.51-8.09l-62.8-43.56c-19.73-13.71-24.33-41.18-9.79-60.58c13.85-18.49,40.29-21.99,59.28-8.81
					l61.74,42.84C1056.35,772.17,1062.19,799.56,1048.77,818.83z"/></g><g><path fill="#e28d05" d="M1000.35,863.08l-62.27-43.21c-42.75-29.65-53.84-87.93-24.71-129.89c1.13-1.65,2.32-3.24,3.53-4.8
					c9.8-12.35,22.17-21.56,35.79-27.42c-28.26-0.79-56.43,11.33-75.16,34.97c-1.21,1.56-2.4,3.15-3.53,4.8
					c-29.13,41.95-18.04,100.23,24.71,129.89l62.27,43.21c20.31,14.11,44.95,19.45,69.3,15.04c7.02-1.27,13.79-3.31,20.19-6.1
					C1032.65,879.11,1015.32,873.47,1000.35,863.08z"/></g><g><path fill="#e28d05" d="M1209.07,404.87l-23.55,33.31l-61.6-42.75C1161.96,406.59,1207.75,404.93,1209.07,404.87z"/></g><g><path d="M1013.59,889.59c-19.19,0-37.89-5.81-53.98-16.98l-62.27-43.21c-21.19-14.71-35.51-36.68-40.3-61.87
					c-4.8-25.21,0.52-50.56,14.98-71.39c1.15-1.66,2.38-3.3,3.63-4.9c31.05-39.21,87.58-47.56,128.69-19.03l10.7,7.42l167.13-240.86
					l-75.99-52.73c-4.13-2.87-6.93-7.38-7.66-12.36c-0.74-5.06,0.61-10.05,3.81-14.06c5.97-7.47,17-8.91,25.12-3.28l28.65,19.88
					c10.03,6.96,23.84,4.46,30.8-5.57c3.37-4.86,4.65-10.73,3.6-16.55c-1.05-5.82-4.31-10.88-9.16-14.25l-3.85-2.68
					c-8.13-5.64-10.64-16.49-5.71-24.69c2.64-4.39,6.83-7.39,11.82-8.46c4.92-1.06,10.11-0.02,14.23,2.85l51.22,35.54l15.64-22.53
					c3.5-5.04,8.75-8.43,14.79-9.52c6.05-1.09,12.15,0.23,17.19,3.73c5.02,3.49,8.4,8.74,9.51,14.78
					c1.08,6.07-0.25,12.17-3.74,17.21l-249.63,359.75l13.74,9.54c21.21,14.72,35.53,36.71,40.33,61.91c4.8,25.22-0.53,50.6-15,71.46
					c-0.4,0.57-0.79,1.14-1.2,1.7c-14.44,19.85-35.73,33.21-59.94,37.61l0,0C1025,889.08,1019.27,889.59,1013.59,889.59z
					 M1030.28,885.68h0.03H1030.28z M950.23,660.11c-26.72,0-53.12,11.78-70.81,34.12c-1.18,1.51-2.35,3.08-3.45,4.66
					c-13.71,19.76-18.76,43.82-14.2,67.75c4.56,23.94,18.16,44.83,38.31,58.81l62.27,43.21c19.8,13.74,43.78,18.94,67.5,14.65
					c22.99-4.17,43.2-16.86,56.92-35.72c0.4-0.53,0.76-1.06,1.13-1.58c13.73-19.79,18.78-43.87,14.23-67.82
					c-4.56-23.96-18.18-44.86-38.35-58.86l-15.72-10.91c-0.52-0.36-0.88-0.92-1-1.55c-0.11-0.63,0.03-1.28,0.39-1.8l251-361.73
					c2.76-3.98,3.82-8.81,2.96-13.61c-0.88-4.77-3.55-8.93-7.52-11.68c-3.98-2.76-8.8-3.81-13.59-2.94
					c-4.77,0.87-8.93,3.54-11.7,7.53l-17.01,24.51c-0.76,1.09-2.25,1.37-3.35,0.61l-53.2-36.91c-3.08-2.14-6.8-2.88-10.47-2.09
					c-3.67,0.79-6.76,3-8.71,6.24c-3.63,6.04-1.73,14.06,4.33,18.26l3.85,2.68c5.91,4.1,9.88,10.26,11.15,17.34
					c1.28,7.08-0.27,14.24-4.38,20.15c-8.47,12.2-25.29,15.25-37.5,6.78l-28.65-19.88c-6.04-4.2-14.22-3.18-18.61,2.33
					c-2.35,2.95-3.35,6.63-2.81,10.35c0.55,3.73,2.55,6.96,5.64,9.1l77.97,54.1c1.09,0.76,1.36,2.26,0.61,3.35l-169.87,244.82
					c-0.36,0.53-0.92,0.88-1.55,1c-0.63,0.12-1.28-0.03-1.8-0.39l-12.67-8.79C985.98,665.34,968.03,660.11,950.23,660.11z
					 M1013.97,839.51c-9.23,0-18.58-3.01-26.69-8.64l-62.8-43.57c-10.13-7.03-16.79-17.61-18.76-29.82
					c-1.97-12.18,1.02-24.32,8.42-34.18c14.33-19.15,42.4-23.35,62.58-9.35l61.74,42.84c9.76,6.77,16.72,17.46,19.09,29.32
					c2.44,12.17,0.03,24.27-6.79,34.08c-7.71,11.07-19.89,18.06-33.4,19.18C1016.23,839.47,1015.1,839.51,1013.97,839.51z
					 M950.16,710.49c-12.37,0-24.48,5.44-32.16,15.71c-6.61,8.81-9.28,19.65-7.52,30.52c1.76,10.9,7.71,20.35,16.76,26.63
					l62.8,43.57c8.19,5.68,17.75,8.4,26.93,7.66c12.08-1,22.95-7.24,29.84-17.13c6.06-8.72,8.2-19.51,6.02-30.38
					c-2.13-10.65-8.37-20.24-17.11-26.31l-61.74-42.84C966.75,712.91,958.39,710.49,950.16,710.49z"/></g><g><path fill="#fff" d="M1162.08,619c0,0,17.72-51.66,15.18-58.94c-2.53-7.28-38.07-41.27-47.83-35.95
					c-9.75,5.32,6.97,43.49,6.97,43.49s-24.71,32.89-6.92,50.25"/></g><g><path d="M1162.08,621.41c-0.26,0-0.52-0.04-0.78-0.13c-1.26-0.43-1.93-1.8-1.5-3.06c8.57-25.01,16.6-53.3,15.19-57.36
					c-1.71-4.91-25.47-28.72-39.09-33.97c-3.45-1.33-4.86-0.9-5.31-0.66c-4.82,2.63,0.41,23.02,8.02,40.41
					c0.35,0.8,0.24,1.72-0.28,2.41c-0.24,0.31-23.23,31.4-7.16,47.09c0.95,0.93,0.97,2.45,0.04,3.41c-0.93,0.95-2.45,0.97-3.4,0.04
					c-17.35-16.93,1.47-46.05,5.85-52.28c-4.58-10.68-15.77-39.63-5.37-45.3c2.32-1.27,5.38-1.14,9.35,0.39
					c14.06,5.42,39.36,29.56,41.9,36.88c2.67,7.67-12.17,51.75-15.18,60.51C1164.01,620.78,1163.08,621.41,1162.08,621.41z"/></g><g><path d="M1219.1,393.11c-0.48,0-0.97-0.14-1.39-0.44c-1.08-0.77-1.34-2.27-0.57-3.36l15.3-21.62c0.77-1.09,2.27-1.35,3.36-0.58
					c1.08,0.77,1.34,2.27,0.57,3.36l-15.3,21.62C1220.6,392.75,1219.86,393.11,1219.1,393.11z"/></g><g><path d="M1185.51,440.59c-0.48,0-0.97-0.14-1.39-0.44c-1.09-0.77-1.34-2.27-0.58-3.36l23.56-33.31c0.06-0.09,0.13-0.17,0.2-0.25
					l3.71-5.27c0.77-1.09,2.27-1.35,3.35-0.58c1.09,0.77,1.35,2.27,0.58,3.35l-3.89,5.52c-0.06,0.09-0.13,0.17-0.21,0.25
					l-23.38,33.06C1187.01,440.23,1186.26,440.59,1185.51,440.59z"/></g><g><circle cx="560.58" cy="823.03" r="236.22" fill="#fff"/><path fill="#ecedeb" d="M792.78,779.67c23.95,128.26-60.6,251.62-188.85,275.56c-93.47,17.45-184.36-22.74-236.03-95.49
				c52.56,45.62,124.66,67.69,198.37,53.93c128.26-23.95,212.8-147.31,188.85-275.56c-6.47-34.68-20.24-66.18-39.42-93.19
				C754.51,678.66,782.62,725.22,792.78,779.67z"/><path d="M560.4,1061.66c-60.91,0-118.61-22.82-163.2-64.72c-95.89-90.09-100.62-241.41-10.52-337.3l0,0
				c90.1-95.9,241.41-100.61,337.31-10.52c46.45,43.64,73.13,102.76,75.12,166.47c1.99,63.71-20.95,124.38-64.6,170.83
				c-43.64,46.45-102.77,73.13-166.47,75.12C565.48,1061.62,562.93,1061.66,560.4,1061.66z M390.18,662.94L390.18,662.94
				c-88.28,93.96-83.65,242.22,10.31,330.5c45.51,42.76,104.97,65.25,167.38,63.29c62.42-1.95,120.35-28.09,163.11-73.6
				c42.76-45.52,65.24-104.96,63.29-167.38c-1.95-62.42-28.09-120.35-73.6-163.11C626.72,564.36,478.45,568.99,390.18,662.94z"/><circle cx="543.09" cy="729.33" r="54.55" fill="#727ef4"/><path d="M542.97,786.3c-11.38,0-22.49-3.42-32.08-9.99c-12.55-8.6-21-21.57-23.79-36.53c-5.77-30.87,14.67-60.68,45.54-66.45
					c14.96-2.79,30.1,0.41,42.65,9.01c12.55,8.6,21,21.57,23.79,36.53s-0.41,30.1-9.01,42.65c-8.6,12.55-21.57,21-36.53,23.79
					C550.02,785.98,546.48,786.3,542.97,786.3z M543.2,677.17c-3.22,0-6.45,0.3-9.68,0.9c-28.26,5.28-46.96,32.57-41.69,60.83
					c2.55,13.69,10.29,25.57,21.78,33.44c11.49,7.87,25.37,10.8,39.05,8.25c13.69-2.56,25.57-10.29,33.44-21.78
					c7.87-11.49,10.8-25.36,8.24-39.05c-2.55-13.69-10.29-25.57-21.78-33.44C563.79,680.3,553.62,677.17,543.2,677.17z"/><path fill="#727ef4" d="M700.12,926.84l-232.3,43.37c-15.57,2.91-29.66-9.35-29.3-25.18c1.55-67.3,49.94-126.64,118.74-139.49
					c69.11-12.9,135.9,25.35,161.39,88.01C724.5,907.91,715.35,923.99,700.12,926.84z"/><path d="M463.25,973.04c-6.36,0-12.53-2.24-17.48-6.44c-6.33-5.38-9.85-13.26-9.66-21.62c1.6-69.4,52.36-129.04,120.71-141.8
					c68.75-12.83,137.75,24.79,164.06,89.47c3.01,7.4,2.52,15.7-1.35,22.77c-3.96,7.24-10.87,12.27-18.98,13.78l-232.3,43.37
					C466.59,972.89,464.91,973.04,463.25,973.04z M583.8,805.49c-8.64,0-17.37,0.79-26.09,2.42
					c-66.12,12.35-115.23,70.04-116.77,137.18c-0.16,6.9,2.74,13.4,7.96,17.84c5.13,4.36,11.87,6.15,18.49,4.91l232.3-43.37l0,0
					c6.68-1.25,12.38-5.39,15.64-11.36c3.17-5.8,3.58-12.6,1.12-18.65C694.31,840.11,641.02,805.49,583.8,805.49z"/></g><g><path fill="#fff" d="M2049.44,489.05c96.56-5.01,178.92,69.22,183.93,165.78c5.05,96.58-69.18,178.94-165.74,183.95
			c-28.82,1.49-56.34-4.04-80.93-15.18l-107.59,34.87l44.43-83.03c-23.19-27.96-37.87-63.39-39.88-102.45
			C1878.65,576.43,1952.88,494.07,2049.44,489.05z"/></g><g><path d="M1879.12,860.88c-0.7,0-1.38-0.31-1.85-0.86c-0.63-0.75-0.74-1.81-0.28-2.68l43.67-81.61
			c-23.84-29.28-37.45-64.72-39.4-102.61c-2.46-47.34,13.67-92.81,45.42-128.03c31.74-35.22,75.3-55.97,122.64-58.43l0.13,2.4
			l-0.13-2.4c47.34-2.45,92.81,13.67,128.03,45.41c35.22,31.74,55.97,75.3,58.43,122.64c2.47,47.35-13.64,92.83-45.38,128.05
			c-31.74,35.22-75.29,55.97-122.63,58.43c-28.29,1.47-55.61-3.58-81.2-15.01l-106.7,34.58
			C1879.62,860.84,1879.36,860.88,1879.12,860.88z M2049.57,491.46c-46.06,2.39-88.43,22.58-119.31,56.84
			c-30.89,34.26-46.58,78.5-44.18,124.56c1.92,37.39,15.52,72.33,39.33,101.04c0.62,0.75,0.73,1.81,0.27,2.67l-41.61,77.76
			l101.9-33.02c0.57-0.18,1.19-0.15,1.74,0.1c25.12,11.37,51.98,16.41,79.81,14.97c46.06-2.39,88.43-22.58,119.31-56.85
			c30.88-34.27,46.56-78.51,44.15-124.58c-2.39-46.06-22.58-88.43-56.84-119.31C2139.86,504.76,2095.63,489.06,2049.57,491.46
			L2049.57,491.46z"/></g><g><polygon fill="#63c634" points="2019.79 745.3 1962.45 687.96 1982.88 667.53 2019.79 704.45 2129.86 594.38 2150.28 614.81"/></g><g><path d="M820.47,1629.46c-5.72,0-11.47-0.34-17.24-1.06c-16.65-2.09-34.29-7.5-55.5-17.03c-55.68-25-105.24-63.43-143.31-111.14
			l3.76-3c37.6,47.11,86.54,85.06,141.52,109.75c20.77,9.32,37.97,14.61,54.13,16.64c41.42,5.19,82.69-10.35,118.54-27.13
			c-11.49-5.98-21.17-13.9-28.24-23.36c-16.87-22.57-17.4-54.2-1.24-73.59c18.15-21.77,49.1-22.8,65.9-21.47
			c20.69,1.63,35.42,8.12,43.78,19.28c13.08,17.48,7.35,42.36-5.08,57.9c-12.93,16.18-32.26,25.7-49.32,34.1
			c-4.68,2.31-9.49,4.67-14.42,7.05c8.7,3.44,18.25,5.83,28.35,7.02c51.99,6.1,109.02-18.8,152.61-66.6
			c39.47-43.29,63.92-97.55,87.57-150.02l4.39,1.98c-23.8,52.82-48.41,107.43-88.4,151.28c-44.63,48.94-103.24,74.42-156.72,68.14
			c-12.09-1.42-23.45-4.51-33.6-9.02C895.59,1614.54,858.56,1629.46,820.47,1629.46z M949.24,1482.5
			c-22.93,0-41.81,7.13-52.63,20.12c-14.77,17.72-14.18,46.8,1.4,67.63c7.31,9.77,17.61,17.81,29.92,23.62
			c6.23-2.98,12.29-5.96,18.14-8.84c16.6-8.18,35.42-17.44,47.68-32.79c11.27-14.1,16.6-36.49,4.98-52.01
			c-7.49-10-21.04-15.85-40.3-17.36C955.31,1482.62,952.24,1482.5,949.24,1482.5z"/></g><g><path d="M1211.17,1454.88l-22.55-26.56c-1.08-1.27-2.58-2.19-4.22-2.56l-40.24-9.26c-5.7-1.31-7.89-8.13-3.5-10.9l75.79-47.77
			c4.34-2.73,10.93,1.13,10.67,6.25l-4.58,88.71C1222.28,1458.08,1215.02,1459.41,1211.17,1454.88z"/></g></svg>