<svg xmlns="http://www.w3.org/2000/svg" viewBox="0 0 2028.01 3300.35"><path fill="#fff" d="m400.39,1164.3c-46.77,138.78-121.37,200.69-189.92,226.62-48.25,18.25-93.51,18.67-123.96,15.52-39.44-58.69-61.76-118.97-70.14-174.99-14.72-98.41,13.56-183.69,67.51-224.15,128-96,231.82,94.67,231.82,94.67l84.69,62.33Z"/><path fill="#f7a528" d="m765.88,1433.3s-9,373-401.24,195.6c-132.77-60.05-222.49-139.67-278.13-222.46,30.45,3.15,75.71,2.73,123.96-15.52,68.55-25.93,143.15-87.84,189.92-226.62l159.36,117.29,206.13,151.71Z"/><path fill="#3d066b" d="m765.88,1433.3s-9,373-401.24,195.6c-132.77-60.05-222.49-139.67-278.13-222.46-39.44-58.69-61.76-118.97-70.14-174.99,38.7,68.3,101.67,144.71,194.1,159.47,50.79,8.11,110.47-2.41,179.91-43.12,52.74-30.92,110.27-52.19,169.37-66.21l206.13,151.71Z" opacity=".25"/><path fill="#3d066b" d="m551.06,1689.28c-55.36,0-119.38-16.34-191.57-48.99-64.4-29.13-121.86-64.26-170.77-104.43-44.86-36.84-82.74-78.03-112.58-122.45-2.71-4.03-2.84-9.25-.34-13.41,2.5-4.16,7.18-6.5,12-6,80.12,8.28,225.72-11.07,300.75-233.7,1.27-3.78,4.28-6.73,8.08-7.93,3.81-1.2,7.96-.51,11.17,1.85l365.49,269c3.29,2.42,5.19,6.29,5.09,10.37-.04,1.6-1.11,39.73-15.17,86.37-18.86,62.55-52.39,110.42-96.97,138.43-32.77,20.59-71.25,30.88-115.17,30.88Zm-439.27-268.86c60.02,79.83,148.67,147.64,258,197.09,121.28,54.85,216.51,61.51,283.03,19.79,49.63-31.13,74.29-84.54,86.24-123.87,9.99-32.86,13.05-61.73,13.96-74.08l-346.45-254.98c-35.81,97.38-89.39,165.81-159.44,203.53-49.02,26.4-97.46,33.02-135.34,32.51Z"/><path fill="#3d066b" d="m115.72,1420.44c-11.09,0-21.33-.62-30.5-1.57-3.69-.38-7.02-2.38-9.09-5.46C24.51,1336.6-2.46,1250.02.18,1169.6c2.46-75.03,30.24-137.83,76.2-172.31,34.26-25.7,70.18-34.69,106.74-26.73,78.19,17.02,132.66,106.37,142.15,122.92l82.52,60.73c4.38,3.22,6.17,8.91,4.44,14.06-35.71,105.96-91.26,179.85-165.1,219.61-47.34,25.49-94.15,32.54-131.41,32.54Zm-22.1-25.9c80.09,6.61,217.93-16.29,291.95-225.63l-77.28-56.88c-1.48-1.09-2.69-2.48-3.57-4.09-.53-.96-53.77-97.07-126.98-112.96-29.13-6.32-58.19,1.19-86.36,22.31-79.84,59.88-97.37,224.96,2.24,377.25Z"/><path fill="#fff" d="m1203.88,2922.8s-250-6.73-226,196.02c24,202.75,505,136.45,547,45.16s-34.5-253.53-34.5-253.53l-286.5,12.35Z"/><path fill="#3d066b" d="m1203.88,2922.8s-250-6.73-226,196.02c24,202.75,505,136.45,547,45.16s-34.5-253.53-34.5-253.53l-286.5,12.35Z" opacity=".25"/><path fill="#3d066b" d="m1231.57,3264.35c-30.79,0-60.57-2.15-88.1-6.5-48.99-7.74-88.9-22.09-118.61-42.64-34.81-24.08-54.79-56.02-59.39-94.93-6.7-56.61,6.29-103.26,38.61-138.67,28.17-30.86,71.82-52.97,126.23-63.94,38.36-7.73,69.13-7.47,73.44-7.39l286.1-12.33c5.01-.21,9.7,2.6,11.84,7.16,3.22,6.84,78.48,168.61,34.55,264.08-20.63,44.84-112.95,69.71-151.68,78.33-50.11,11.14-102.89,16.83-152.99,16.83Zm-29.99-329.08c-15.89,0-123.54,2.33-179.1,63.26-27.16,29.79-37.99,69.77-32.19,118.81,9.07,76.65,90.43,105.29,157.08,115.82,68.31,10.79,154.94,7.04,231.76-10.04,70.9-15.76,123.66-41.03,134.4-64.37,34.14-74.2-17.14-203.09-31.11-235.45l-278,11.98c-.29.01-.58.01-.87,0-.09,0-.77-.02-1.97-.02Z"/><path fill="#f7a528" d="m1044.88,2673.63s12,364.67,243,379.67,199.98-222.42,199.98-222.42l-442.98-157.25Z"/><path fill="#3d066b" d="m1044.88,2673.63s12,364.67,243,379.67,199.98-222.42,199.98-222.42l-442.98-157.25Z" opacity=".25"/><path fill="#3d066b" d="m1308.38,3066.48c-6.94,0-14.03-.24-21.31-.71-55.99-3.64-104.37-27.06-143.78-69.63-30.93-33.4-56.28-78.57-75.36-134.25-32.11-93.73-35.42-184.05-35.54-187.85-.14-4.13,1.78-8.06,5.12-10.5,3.34-2.44,7.66-3.07,11.56-1.69l442.98,157.25c4.43,1.57,7.6,5.5,8.21,10.16.15,1.16,3.68,28.94-.63,65.25-5.78,48.71-23.11,89.7-50.13,118.53-33.26,35.5-80.68,53.43-141.11,53.43Zm-249.78-374.71c2.63,31.07,10.53,96.71,33.14,162.51,40.53,117.93,106.79,180.69,196.94,186.54,62.81,4.08,110.75-10.99,142.48-44.78,47.83-50.95,46.62-131.33,44.96-156.07l-417.51-148.21Z"/><path fill="#fff" d="m689.88,2958.8s-250-6.73-226,196.02c24,202.75,505,136.45,547,45.16,42-91.28-34.5-253.53-34.5-253.53l-286.5,12.35Z"/><path fill="#3d066b" d="m976.38,2946.45l-80.44,3.47c10.17,46.82,13.93,98.95-4.06,138.06-29.48,64.07-275.24,115.83-427.44,70.89,29.9,197.8,504.73,131.78,546.44,41.11,42-91.28-34.5-253.53-34.5-253.53Z" opacity=".25"/><path fill="#3d066b" d="m717.57,3300.35c-30.79,0-60.57-2.15-88.1-6.5-48.99-7.74-88.9-22.09-118.61-42.64-34.81-24.08-54.79-56.02-59.39-94.93-6.7-56.61,6.29-103.26,38.61-138.67,28.17-30.86,71.82-52.97,126.23-63.94,38.35-7.73,69.14-7.46,73.44-7.39l286.1-12.33c5.03-.23,9.7,2.6,11.84,7.16,3.23,6.84,78.48,168.61,34.55,264.08-20.63,44.84-112.95,69.71-151.68,78.33-50.11,11.14-102.89,16.83-152.99,16.83Zm-29.99-329.08c-15.89,0-123.54,2.33-179.1,63.26-27.16,29.79-37.99,69.77-32.19,118.81,9.07,76.65,90.43,105.29,157.08,115.82,68.3,10.79,154.94,7.04,231.76-10.04,70.9-15.76,123.66-41.03,134.4-64.37,34.14-74.2-17.14-203.09-31.11-235.45l-278,11.98c-.29.01-.58.01-.87,0-.09,0-.77-.02-1.97-.02Z"/><path fill="#f7a528" d="m455.88,291.17l-122.3,396.34-7.82,25.33c-119.53-24.6-187.84-111.17-226.47-193.43-22.51-47.92-34.94-94.37-41.55-126.26-5.61-27.09,4.33-55.16,26.06-72.27,154.31-121.56,372.08-29.71,372.08-29.71Z"/><path fill="#fff" d="m58.4,396.27c3.83-15.32,12.55-29.27,25.4-39.39,134.74-106.15,317.87-49.57,362.14-33.51l9.93-32.19s-217.77-91.85-372.08,29.7c-21.73,17.12-31.67,45.19-26.06,72.27.21,1.02.43,2.07.66,3.12Z" opacity=".5"/><path fill="#fff" d="m377.6,417.15s-220.07-72.7-225.71-4.73c-5.64,67.97,144.33,213.47,167.49,231.39,0,0-11-106,58.22-226.65Z"/><path fill="#3d066b" d="m167.24,462.6s25.81-60.77,188.98,9.72l21.39-55.17s-128.05-59.6-216.64-14.47l6.28,59.92Z" opacity=".25"/><path fill="#3d066b" d="m325.77,725.35c-.84,0-1.68-.08-2.53-.26-85.46-17.59-154.84-67.21-206.22-147.47-41.33-64.56-61.7-134.57-71.52-181.93-6.65-32.11,5.06-64.54,30.56-84.63,36.75-28.95,79.99-48.59,128.5-58.36,38.51-7.76,80.38-9.33,124.45-4.69,74.71,7.87,129.43,30.68,131.72,31.65,5.92,2.5,8.98,9.07,7.09,15.2l-130.12,421.67c-1.64,5.32-6.56,8.82-11.94,8.82Zm-46.07-455.01c-74.08,0-137.22,20.22-188.16,60.35-18.01,14.19-26.27,37.15-21.56,59.92,16.38,79.01,72.98,264.54,247.24,307.49l123.25-399.41c-19.04-6.8-62.1-20.43-114.78-25.9-15.76-1.64-31.11-2.46-46-2.46Z"/><path fill="#3d066b" d="m402.23,421.83c-50.33-9.9-102.36-21-153.55-23.04-23.55-.91-47.52-.7-70.98,1.64-2.92.38-10.32,1.23-13.18,1.65-10.33,1.8-20.77,3.31-31.27,3.92-6.33.11-12.58.67-19.82-.33,3.13-4.24,6.72-7.8,10.67-11.1,7.11-5.63,15.1-9.99,23.56-13.21,8.4-2.9,17.16-5.14,25.81-7.12,22.06-4.6,45.04-6.36,67.52-4.96,55.17,3.71,115.9,20.46,161.23,52.56h0Z"/><path fill="#3d066b" d="m175.76,394.39c-2.9,12.42-2.49,26.58-.3,39.44,7.1,40.48,29.47,76.48,54.54,108.54,1.64,2.18,4.31,5.27,6.04,7.4,3.51,4.42,8.69,10.32,12.49,14.56,3.64,4.26,9.2,10.07,13.05,14.19,2.02,2.22,4.61,4.84,6.74,6.93,11.44,11.58,22.74,23.43,33.39,35.77,6.48,7.8,13.18,15.46,18.67,24.08-25.74-8.66-48.92-23.8-69.3-41.54-5.93-5.07-12.99-11.75-18.7-17.09-2.17-2.2-8.49-8.51-10.76-10.82-4-4.16-8.21-8.86-12.13-13.13-6.65-7.74-13.25-15.79-19.35-24.01-14.86-20.53-27.53-42.57-35.65-66.82-4.54-13.62-7.65-27.91-8.41-42.28-.81-13.93.5-28.54,5.34-41.8,0,0,.59-1.51.59-1.51l.35-.83.48-1.08c7.23-14.91,28.94-5.47,22.91,10.01h0Z"/><path fill="#fff" d="m1736.81,973.17c-.59,452.79-459,550.67-988.28,533.28-349.29-11.47-450.61-158.26-466.2-324.09-4.3-45.64-2.09-92.74,3.22-138.85,78.45,43.07,174.98,42.25,254.45-2.71,54.17-30.63,112.46-52.25,176.88-60.5,110.07-9.85,247.95,22.87,393.61,67.46,43.03,13.18,88.76,15.26,132.68,5.46,180.84-40.35,327.83-146.13,428.64-341.08,32.6,50.21,58.45,113.79,64.07,224.16.64,12.54.95,24.83.93,36.87Z"/><path fill="#3d066b" d="m1736.81,973.17c-.59,452.79-459,550.67-988.28,533.28-349.29-11.47-450.61-158.26-466.2-324.09,2.02-6.8,3.22-10.79,3.22-10.79,0,0,15.83,247.12,487.33,193.17,438.09-50.12,857.81-179.17,963.93-391.57Z" opacity=".25"/><path fill="#f7a528" d="m1671.81,712.14c-100.81,194.95-247.8,300.73-428.64,341.08-43.92,9.8-89.65,7.72-132.68-5.46-145.66-44.59-283.54-77.31-393.61-67.46-64.42,8.25-122.71,29.87-176.88,60.5-79.47,44.96-176,45.78-254.45,2.71,5.4-46.94,14.04-92.87,22.33-135.21,46-235-42-479,232.13-696.93,274.14-217.94,600.87-81.07,600.87-81.07C1254.95.82,1399.29,7.39,1459.49,17.21c17.94,2.93,33.39,14.23,41.74,30.38,81.86,158.28,50.29,299.35,29.84,359.11-7.97,23.3-8.6,48.51-1.59,72.11,34.61,116.5,95.45,161.08,142.33,233.33Z"/><path fill="#fff" d="m307.88,950.3c46-235-42-479,232.13-696.93,274.14-217.94,582.37-87.57,582.37-87.57,114.07-129.48,276.91-116.41,337.11-106.59,17.94,2.93,33.39,14.23,41.74,30.38,36.11,69.83,50.14,136.3,52.8,193.92,3.04-66.16-7.54-148.41-52.8-235.92-8.35-16.15-23.8-27.45-41.74-30.38-60.2-9.82-204.54-16.39-318.61,113.09,0,0-326.73-136.87-600.87,81.07-274.13,217.93-186.13,461.93-232.13,696.93-8.29,42.34-16.93,88.27-22.33,135.21,1.74.95,3.48,1.88,5.24,2.79,4.99-33.21,11.13-65.54,17.09-96Z" opacity=".5"/><path fill="#fff" d="m1260.38,278.8s122.09-197,170.05-148.5,38.22,238.9,31.95,267.5c0,0-37-85-202-119Z"/><path fill="#fff" d="m997.26,665c18.06,2.37,35.35-8.06,42.12-24.9,7.85-19.52-3.23-39.54-17.44-53.32-47-45.58-120.46-48.66-179.83-29.25-47.92,15.67-92.64,58.47-93.56,111.16-.03,1.7-.02,3.39.01,5.09.63,30.19,33.34,48.66,59.65,33.83,42.87-24.17,112.25-52.72,189.05-42.62Z"/><path fill="#fff" d="m360.89,772.05c-11.95,8.11-27.17,5.21-36.92-6.62-11.31-13.72-9.49-34.27-3.63-50.65,19.39-54.17,69.96-81.64,117.34-85.46,38.24-3.09,82.31,17.68,98.62,61.58.53,1.41,1.03,2.84,1.51,4.27,8.53,25.55-8.9,52.13-31.75,48.59-37.23-5.76-94.35-6.21-145.17,28.28Z"/><path fill="#3d066b" d="m344.85,939.42c10.65-31.38,37.36-55.83,68.19-67.32,23.19-8.64,48.46-10.04,72.65-5.74,15.3,2.85,30.18,7.75,44.08,14.67,6.83,3.22,13.34,7.15,19.67,11.19,4.11,2.86,8.15,5.77,12.03,8.9,5.5,4.42,6.37,12.46,1.95,17.96-3.25,4.05-8.4,5.53-13.13,4.4-8.94-1.83-17.64-4.06-26.41-6.07-12.59-2.59-25.09-5.12-37.87-6.25-27.11-2.96-55.06.27-79.68,12.59-14.14,6.84-27.46,16.76-39.25,27.36-.1.09-.11.04-.17.06l-6.66,2.79c-9.15,3.94-18.82-5.27-15.4-14.56h0Z"/><path fill="#3d066b" d="m1000.48,856.02c-.07-.01-.06.04-.18-.02l-.3-.15c-1.57-.78-3.08-1.67-4.65-2.47-34.13-18.51-70.91-23.61-108.27-12.85-16.31,4.44-31.82,11.17-47.13,18.32-8.33,4.06-16.53,8.37-25.08,12.25-12.21,5.26-23.29-9.11-15.23-19.56,12.43-15.93,27.84-29.52,45.03-40.18,51.05-31.92,117.75-32.4,161.8,11.8,4.89,4.94,9.19,10.43,12.82,16.37,5.45,8.35-1.93,19.42-11.66,17.68,0,0-7.14-1.21-7.14-1.21h0Z"/><path fill="#3d066b" d="m668.62,1057.66c27.41-11.97,69.59-22.36,119.57-7.6,17.13,5.06,29.41,20.09,30.97,37.88,3.36,38.28-1.04,102.7-68.43,104.2-60.17,1.34-90.49-44.08-104.73-78.17-9.09-21.76,1-46.88,22.61-56.31Z"/><path fill="#fff" d="m713.13,1110.99c-22.6,4.79-36.8-6.49-44.24-15.57-4.75-5.8-2.48-14,5.09-18.38,9.6-5.56,24.87-11.72,44.62-10.99,6.77.25,12.31,3.82,13.98,8.99,3.6,11.13,5.86,30.59-19.45,35.95Z" opacity=".5"/><path fill="#3d066b" d="m674.64,1310.14c-38.39,0-71.6-15.86-97.37-46.84-4.41-5.31-3.69-13.19,1.62-17.6,5.31-4.41,13.19-3.69,17.6,1.62,27.28,32.81,63.49,44.36,107.64,34.34,24.25-5.5,44.63-16.27,54.74-22.27l-16.23-77.52c-1.41-6.76,2.92-13.38,9.67-14.8,6.75-1.42,13.38,2.92,14.8,9.67l18,86c1.02,4.88-.96,9.9-5.03,12.78-1.23.86-30.45,21.27-69.64,30.34-12.36,2.86-24.32,4.28-35.81,4.28Z"/><path fill="#3d066b" d="m843.95,1289.73c-39.1,0-73.12-11.89-75.27-12.66-6.5-2.32-9.89-9.47-7.57-15.97,2.32-6.5,9.46-9.89,15.96-7.58.92.32,71.72,24.89,118.51.23,18.79-9.9,30.96-26.15,37.22-49.66,1.77-6.67,8.62-10.64,15.29-8.87,6.67,1.77,10.64,8.62,8.87,15.29-8.05,30.25-24.81,52.25-49.81,65.4-19.77,10.4-42.22,13.82-63.2,13.82Z"/><path fill="#3d066b" d="m858.1,1520.81c-35.54,0-72.2-.62-109.98-1.86-103.14-3.39-190.61-18.91-259.98-46.14-63.35-24.87-113.63-60.28-149.43-105.26-46.53-58.45-69.79-132.76-71.09-227.17-1.09-78.79,13.24-159.03,28-234.47,12.24-62.53,14.91-127.22,17.5-189.78,3.55-85.98,7.23-174.88,35.46-261.3,15.3-46.82,36.33-88.99,64.29-128.92,31.28-44.66,70.33-85.32,119.37-124.31,63.91-50.81,135.98-86.78,214.2-106.93,62.47-16.09,128.94-22.15,197.57-18.02,96.84,5.83,169.47,30,193.37,38.89,50.12-54.49,110.71-90.19,180.22-106.18,58.73-13.51,110.68-9.88,143.92-4.46,21.68,3.54,40.69,17.36,50.83,36.97,36.55,70.67,54.95,145.46,54.69,222.29-.22,63.57-13.24,114.82-24.12,146.62-7.21,21.08-7.71,43.38-1.44,64.5,23.5,79.09,59.88,124.61,95.07,168.64,25.54,31.95,51.95,64.99,72.43,109.72,23.13,50.52,35.65,108.37,39.4,182.05,4.05,79.49-5.06,151.87-27.07,215.13-21,60.36-54.3,114.03-98.97,159.51-138.8,141.33-389.39,210.5-764.22,210.5Zm45.49-1420.39c-100.63,0-233.68,23.65-355.8,120.74-195.63,155.52-202.47,320.91-209.7,496-2.62,63.5-5.34,129.15-17.94,193.55-24.61,125.74-61.81,315.75,38.12,441.27,70.05,88,201.49,135.77,390.68,141.98,200.61,6.59,364.67-3.98,501.57-32.31,156.7-32.43,275.79-89.24,353.98-168.86,86.45-88.02,126.45-207.75,118.91-355.85-7.85-154.16-55.72-214.04-106.39-277.44-36.69-45.9-74.62-93.36-99.51-177.13-7.76-26.13-7.16-53.69,1.75-79.72,18.14-53.02,51.63-193.2-29.12-349.32-6.53-12.62-18.73-21.51-32.65-23.78-55.52-9.06-196.59-16.56-307.22,109.01-3.54,4.02-9.26,5.34-14.21,3.27-1.14-.48-81.97-33.68-194.43-40.3-12.04-.71-24.76-1.12-38.03-1.12Z"/><path fill="#3d066b" d="m1150.37,138.43c-20.83,19.98-38.19,43.51-54.51,67.29,0,0-6.98,10.57-6.98,10.57l4.19-11.99c8.8-24.17,18.8-47.89,31.29-70.46,2.44-4.32,4.76-8.47,7.66-12.6,4.02-5.74,11.93-7.14,17.68-3.12,6.9,4.67,7.21,15.2.67,20.3h0Z"/><path fill="#3d066b" d="m1251.88,294.3c13.32-53.91,48.34-106.3,87.66-145.17,16.1-15.74,34.65-29.44,54.34-40.38,7.84-4.16,15.94-8.19,24.19-11.48,6.96-2.45,14.13-4.37,21.51-5.01,6.81-.75,13.52-.46,20.29,1.04-4.82,5.49-9.92,9.15-14.78,13.21-6.02,4.6-12.28,8.84-18.67,12.84-3.6,2.29-7.77,4.63-11.26,7.08-9.62,6.3-19.68,13.69-28.59,20.9-17.3,13.83-34.01,29.11-49.59,44.85-30.2,31.15-58.3,67.8-85.12,102.13h0Z"/><path fill="#3d066b" d="m1416.13,102.95c2.85,1.3,5.86,3.05,8.47,4.78,17.76,11.85,30.92,29.27,40.76,47.93,13.7,26.68,20.53,56.29,23.16,85.9,1.06,11.05,1.24,22.33,1.31,33.4-.17,8.88-.59,19.12-1.31,28.02-.31,5.89-1.38,14.3-2.03,20.2-.29,3.12-.86,6.95-1.32,10.03-3.29,23.38-9.67,46.52-20.3,67.67-1.54,3.06-3.15,6.1-5,9.07-.52-3.49-.81-6.91-1.03-10.31-.45-6.61-.44-13.5-.58-20.12,0-9.75.3-19.78.75-29.51.44-6.47.64-12.94,1.15-19.39.25-2.96.48-6.76.57-9.65.68-14.09.9-29.16.44-43.23-1.37-38.59-6.97-78.13-24.41-112.81-3.94-7.91-8.75-15.46-14.16-22.44-4.96-6.14-10.53-12.13-16.97-16.71-6.06-2.99-9.38-10.28-6.18-16.93,2.98-6.23,10.44-8.86,16.67-5.88h0Z"/><path fill="#3d066b" d="m346.38,604.8l-12.8,82.71-7.82,25.33c-119.53-24.6-187.84-111.17-226.47-193.43,63.67,60.35,209.85,183.92,247.09,85.39Z" opacity=".25"/><path fill="#3d066b" d="m1266.7,268.23s98.68-102.43,139.68-83.43,68.48,120.17,68.48,120.17c0,0-16.01-195.64-74.25-184.4s-133.91,147.67-133.91,147.67Z" opacity=".25"/><g><path fill="#ea1b1b" d="m1053.3,1479.37l-44.42,100.93c-184-153-329,48.6-329,48.6l-22-60.6c33.51-46.25,66.9-79.49,99.26-102.8,106.67-76.81,202.18-45.58,254.37-15.86,26.46,15.06,41.79,29.73,41.79,29.73Z"/><path fill="#3d066b" d="m1053.3,1479.37l-44.42,100.93c-184-153-329,48.6-329,48.6l-22-60.6c33.51-46.25,66.9-79.49,99.26-102.8,71.24,11.54,162.68,14.38,254.37-15.86,26.46,15.06,41.79,29.73,41.79,29.73Z" opacity=".25"/><path fill="#3d066b" d="m679.88,1641.39c-.57,0-1.15-.04-1.73-.12-4.59-.64-8.45-3.76-10.03-8.11l-22-60.6c-1.42-3.9-.81-8.24,1.63-11.6,69.24-95.55,145.89-147.75,227.82-155.15,44.54-4.02,90.83,5.81,133.88,28.45,32.45,17.06,51.68,35.31,52.48,36.08,3.8,3.63,4.91,9.25,2.8,14.06l-44.42,100.93c-1.58,3.59-4.76,6.23-8.58,7.13-3.82.9-7.84-.05-10.86-2.56-50.27-41.8-101.99-59.67-153.73-53.13-48.17,6.09-88.13,32.56-113.18,53.69-27.63,23.31-43.79,45.51-43.95,45.73-2.37,3.28-6.16,5.19-10.14,5.19Zm-7.98-71.09l12.26,33.76c7.99-8.92,19.14-20.37,33.09-32.19,39.72-33.67,83.49-54.37,126.58-59.87,54.43-6.94,108.23,9.36,160.13,48.45l34.18-77.66c-7.71-6.27-21.95-16.84-41.11-26.83-26.94-14.04-69.54-29.81-119.49-25.23-72.82,6.69-141.97,53.64-205.62,139.56Z"/></g><g><path fill="#ea1b1b" d="m1064.37,2181.68s-269.8,143.48-466.82-170.38l37.06-55.12s142.59,229.03,392.71,116.73l37.05,108.77Z"/><path fill="#3d066b" d="m1064.37,2181.68s-269.8,143.48-466.82-170.38l37.06-55.12s142.59,229.03,392.71,116.73l37.05,108.77Z" opacity=".25"/><path fill="#3d066b" d="m917.17,2226.91c-4.21,0-8.47-.08-12.79-.23-55.53-2.03-108.36-17.35-157.04-45.53-60.39-34.96-114.35-89.88-160.38-163.21-2.63-4.18-2.54-9.52.21-13.62l37.06-55.12c2.37-3.52,6.37-5.55,10.59-5.52,4.24.07,8.15,2.29,10.39,5.89.34.54,35.44,55.96,99.49,97.07,84.82,54.45,178.18,59.45,277.48,14.86,3.21-1.44,6.88-1.46,10.11-.06,3.23,1.4,5.71,4.1,6.85,7.43l37.05,108.77c1.98,5.8-.55,12.19-5.96,15.07-2.74,1.46-65.36,34.2-153.06,34.2Zm-304.69-215.42c78.4,121.59,176.51,185.56,291.7,190.17,68.38,2.74,123.37-17.35,144.73-26.57l-29.08-85.36c-54.83,22.5-108.87,30.82-160.85,24.74-44.86-5.25-88.13-21.17-128.6-47.3-47.79-30.87-79.95-68.3-95.54-88.93l-22.36,33.26Z"/></g><g><path fill="#ea1b1b" d="m2015.49,2042.74c0,1.14-.03,2.28-.06,3.42-.02,1.1-.05,2.21-.08,3.32-.01.09-.01.19-.01.28-.04,1.2-.09,2.4-.14,3.6-.02.49-.04.99-.07,1.48-.05,1.31-.12,2.62-.2,3.92-.03.59-.06,1.18-.1,1.77-.07,1.08-.14,2.16-.22,3.24-.15,2.2-.33,4.39-.53,6.57-.07.81-.14,1.61-.22,2.42-.06.66-.13,1.32-.2,1.98-.11,1.12-.23,2.23-.35,3.34-.02.18-.04.37-.06.55-.12,1.05-.24,2.1-.37,3.15-.08.73-.17,1.46-.27,2.18-.18,1.45-.37,2.9-.57,4.35-.12.85-.24,1.69-.36,2.54-.49,3.39-1.02,6.75-1.59,10.1-.14.83-.28,1.67-.43,2.5-.15.87-.31,1.73-.47,2.6-.21,1.14-.42,2.27-.64,3.41-.57,2.99-1.18,5.97-1.81,8.93-.15.71-.31,1.42-.46,2.13-.02.09-.04.18-.06.27-.15.7-.31,1.4-.47,2.09-.33,1.47-.66,2.93-1.01,4.38-.18.79-.37,1.57-.56,2.35-1.86,7.72-3.91,15.31-6.12,22.74-.31,1.07-.63,2.12-.95,3.18-1.64,5.43-3.37,10.78-5.16,16.03-.29.87-.59,1.73-.89,2.59-.7,2.03-1.41,4.04-2.13,6.04-.34.94-.68,1.89-1.02,2.82-1.28,3.48-2.58,6.92-3.91,10.31-.38.99-.77,1.98-1.16,2.96-.46,1.17-.92,2.33-1.4,3.48-.5,1.25-1,2.49-1.51,3.72-.49,1.19-.99,2.37-1.48,3.54-.99,2.35-1.98,4.67-2.98,6.96-2.64,6.05-5.32,11.89-8,17.52-.36.77-.73,1.53-1.1,2.29-.5,1.05-1.01,2.1-1.52,3.14-.51,1.04-1.01,2.07-1.52,3.09-24.62,49.65-66.27,88.78-117.12,110.84-134.53,58.35-255.95,81.09-358.35,85.33-40.11,1.67-77.29.49-111.21-2.5-22.87-2.02-44.26-4.86-64.04-8.21-103.89-17.58-163.73-49.18-163.73-49.18-.6-.17-1.2-.35-1.81-.54-.86-.27-1.71-.56-2.57-.87-.64-.22-1.28-.46-1.92-.72-.03,0-.06-.02-.09-.03-.63-.25-1.25-.5-1.87-.77-.07-.03-.15-.06-.24-.1-.58-.25-1.15-.5-1.73-.77-.23-.1-.46-.21-.69-.33-.52-.24-1.05-.49-1.57-.75-.1-.05-.2-.1-.3-.15-.56-.28-1.13-.58-1.69-.88-1.58-.83-3.16-1.73-4.74-2.7-.63-.38-1.25-.77-1.87-1.17-.66-.42-1.32-.85-1.99-1.3-.74-.5-1.49-1.02-2.24-1.55-.71-.5-1.41-1.01-2.12-1.54-.69-.51-1.38-1.03-2.07-1.57-.01-.01-.03-.02-.05-.04-.7-.55-1.41-1.11-2.11-1.68-.56-.45-1.13-.92-1.69-1.39-.21-.17-.41-.34-.62-.52-.64-.54-1.28-1.09-1.92-1.66-.01,0-.02-.01-.03-.02-.69-.61-1.39-1.23-2.08-1.87-.7-.64-1.41-1.29-2.11-1.96-.66-.62-1.32-1.25-1.98-1.89-.08-.08-.16-.16-.24-.24-.66-.65-1.33-1.32-1.99-1.99-.7-.71-1.4-1.43-2.1-2.16-.7-.73-1.4-1.47-2.1-2.23-2.1-2.26-4.19-4.62-6.27-7.07-.7-.82-1.39-1.65-2.08-2.49-1.36-1.65-2.72-3.34-4.07-5.07-.15-.18-.29-.36-.42-.54-.57-.73-1.14-1.47-1.71-2.22-.71-.93-1.42-1.87-2.12-2.82-.67-.9-1.34-1.81-2.01-2.74-.56-.76-1.11-1.53-1.66-2.31-.13-.18-.26-.36-.39-.55-1.11-1.57-2.22-3.17-3.33-4.8-.41-.61-.83-1.21-1.24-1.83-.51-.76-1.02-1.53-1.53-2.31-.68-1.02-1.35-2.06-2.02-3.1-2.52-3.9-5.02-7.95-7.49-12.12-.38-.63-.76-1.27-1.13-1.91-.81-1.37-1.6-2.74-2.4-4.14-.8-1.39-1.59-2.79-2.38-4.22-.33-.59-.66-1.18-.99-1.77-1.65-2.98-3.28-6.02-4.9-9.12-.36-.68-.72-1.36-1.08-2.05-.84-1.63-1.69-3.28-2.52-4.94-.74-1.45-1.47-2.91-2.19-4.38-.38-.77-.77-1.55-1.15-2.33-.38-.78-.76-1.56-1.14-2.35-1.13-2.36-2.27-4.74-3.39-7.15-1.5-3.22-2.99-6.48-4.46-9.8-.73-1.65-1.47-3.32-2.2-5-.36-.84-.72-1.68-1.09-2.52-.53-1.23-1.05-2.47-1.58-3.71-.22-.53-.45-1.06-.67-1.6-.69-1.64-1.38-3.3-2.06-4.97-.36-.86-.71-1.73-1.07-2.61-.7-1.73-1.4-3.48-2.1-5.23-1.4-3.54-2.79-7.13-4.16-10.76-.35-.91-.69-1.82-1.03-2.73-.68-1.83-1.37-3.67-2.05-5.53-.33-.91-.65-1.81-.98-2.72-1.34-3.7-2.66-7.44-3.96-11.22-.33-.95-.65-1.89-.97-2.84-.65-1.9-1.29-3.81-1.93-5.73-.63-1.9-1.26-3.8-1.88-5.72-.64-1.95-1.27-3.92-1.89-5.9-.3-.95-.6-1.9-.91-2.86-.31-1-.62-2.01-.94-3.03-.43-1.41-.87-2.83-1.3-4.26-1.38-4.53-2.73-9.11-4.05-13.73-1.54-5.38-3.04-10.82-4.51-16.31-.91-3.39-1.8-6.81-2.67-10.25-1.38-5.38-2.72-10.8-4.01-16.27-.32-1.34-.64-2.68-.95-4.03-2.95-12.65-5.69-25.55-8.21-38.66-.33-1.71-.66-3.43-.98-5.15-2.56-13.66-4.87-27.54-6.93-41.6-.32-2.17-.63-4.36-.93-6.54-.1-.75-.21-1.5-.31-2.25-.26-1.85-.51-3.71-.75-5.57-1.51-11.46-2.85-23.03-4-34.69-.18-1.73-.34-3.47-.5-5.21-.03-.28-.05-.56-.08-.84-.05-.51-.1-1.02-.14-1.53-.14-1.53-.28-3.05-.41-4.58-.16-1.86-.32-3.72-.47-5.57-.15-1.87-.3-3.74-.44-5.61-.15-1.95-.3-3.91-.43-5.87-.14-1.95-.27-3.91-.4-5.88-.1-1.56-.2-3.12-.29-4.69-.11-1.75-.21-3.5-.3-5.25-.07-1.1-.12-2.19-.18-3.29-.01-.24-.03-.48-.04-.73-.14-2.69-.26-5.39-.38-8.09-.35-8.15-.6-16.32-.76-24.51-.03-1.23-.05-2.47-.06-3.71-.02-1.25-.04-2.49-.06-3.73-.02-1.77-.03-3.54-.04-5.31,0-1.99-.02-3.98-.02-5.97s.01-4.08.02-6.12c.02-2.06.04-4.13.06-6.19.02-1.6.04-3.2.07-4.81.03-1.43.05-2.87.09-4.3.2-9.22.54-18.46,1.01-27.68.1-1.91.2-3.81.31-5.72.03-.39.05-.79.07-1.18.1-1.7.21-3.4.32-5.1.01-.12.02-.24.02-.35.13-1.99.27-3.97.41-5.96.14-1.95.28-3.91.44-5.86.17-2.14.34-4.27.52-6.4.15-1.81.32-3.63.48-5.44.45-4.86.93-9.72,1.46-14.57.11-1.06.23-2.13.35-3.19.16-1.44.33-2.87.5-4.3.18-1.59.37-3.17.57-4.75.07-.55.13-1.09.2-1.62.17-1.39.35-2.77.53-4.16.7-5.38,1.45-10.75,2.26-16.11.16-1.1.33-2.19.5-3.28.18-1.19.37-2.38.56-3.57.27-1.75.56-3.5.85-5.25.22-1.34.45-2.68.68-4.01.28-1.66.57-3.32.86-4.98.02-.1.04-.2.05-.29.31-1.7.61-3.4.93-5.1.65-3.52,1.32-7.03,2.02-10.53.28-1.42.57-2.85.86-4.27.43-2.08.87-4.15,1.31-6.22.27-1.27.54-2.53.82-3.79.19-.9.39-1.8.6-2.7.31-1.39.62-2.79.94-4.18.38-1.67.77-3.33,1.16-4.99.41-1.74.83-3.47,1.25-5.2,1.27-5.19,2.6-10.36,3.98-15.52.46-1.72.93-3.43,1.4-5.15.44-1.58.88-3.17,1.33-4.75.08-.26.15-.52.23-.78.36-1.28.73-2.56,1.11-3.84.14-.5.29-1.01.44-1.51.43-1.49.88-2.98,1.33-4.47.48-1.61.97-3.22,1.47-4.83,1.34-4.32,2.73-8.63,4.16-12.91.34-1.08.71-2.17,1.08-3.25.52-1.55,1.05-3.1,1.59-4.64.34-.99.68-1.97,1.03-2.95.3-.87.61-1.73.91-2.59.41-1.13.82-2.26,1.22-3.39.19-.5.37-1,.55-1.49.48-1.32.97-2.64,1.47-3.96.08-.22.16-.44.24-.66.55-1.45,1.09-2.89,1.65-4.34,2.6-6.77,5.31-13.48,8.14-20.13.57-1.36,1.15-2.71,1.74-4.06.12-.27.23-.53.34-.78.49-1.14.99-2.27,1.5-3.4.33-.77.68-1.54,1.03-2.31.46-1.03.92-2.06,1.39-3.09.64-1.39,1.27-2.78,1.91-4.15.75-1.63,1.52-3.25,2.29-4.86.94-1.97,1.88-3.93,2.84-5.88,0-.01.01-.03.02-.04.88-1.81,1.78-3.6,2.68-5.4,1.89-3.74,3.82-7.46,5.78-11.15.8-1.5,1.6-2.99,2.41-4.48.07-.13.14-.25.21-.38.82-1.51,1.66-3.02,2.5-4.52,1.12-2.01,2.25-4.01,3.39-5.99.74-1.29,1.49-2.58,2.24-3.86.38-.65.76-1.3,1.15-1.95.76-1.3,1.54-2.59,2.31-3.88.16-.25.3-.5.45-.74.98-1.61,1.96-3.22,2.96-4.83.79-1.27,1.58-2.53,2.38-3.79.45-.72.91-1.44,1.37-2.15.17-.27.34-.54.52-.81.76-1.19,1.53-2.38,2.3-3.56,2.23-3.4,4.49-6.78,6.8-10.13,1.14-1.66,2.29-3.31,3.45-4.95.77-1.09,1.54-2.17,2.32-3.25.6-.85,1.21-1.69,1.83-2.54,3.33-4.58,6.74-9.1,10.25-13.58.58-.76,1.17-1.51,1.77-2.25.19-.25.38-.49.58-.73.62-.79,1.25-1.58,1.89-2.37,1.22-1.52,2.45-3.03,3.69-4.53,1.17-1.43,2.35-2.85,3.55-4.26.03-.03.06-.07.09-.11,1.2-1.42,2.4-2.83,3.61-4.23.1-.11.19-.22.28-.32,1.33-1.54,2.67-3.06,4.02-4.58.08-.09.15-.17.22-.25,1.08-1.21,2.15-2.41,3.24-3.6.45-.5.91-1,1.37-1.5,2.34-2.56,4.72-5.1,7.13-7.62.77-.8,1.54-1.61,2.32-2.4,1.2-1.24,2.41-2.48,3.63-3.7,1.05-1.06,2.1-2.11,3.16-3.16.99-.98,1.99-1.96,2.99-2.93.2-.2.4-.39.6-.58.54-.53,1.08-1.05,1.63-1.57,1.38-1.33,2.76-2.64,4.16-3.94,1.08-1.02,2.17-2.03,3.26-3.03.56-.51,1.12-1.03,1.68-1.53.85-.78,1.71-1.55,2.57-2.32.47-.42.94-.84,1.41-1.26.33-.3.65-.58.98-.86.93-.84,1.87-1.66,2.81-2.47,1.46-1.28,2.93-2.54,4.41-3.79.6-.51,1.2-1.02,1.81-1.53,1.43-1.2,2.86-2.39,4.3-3.57,1.32-1.09,2.65-2.16,3.99-3.23,1.84-1.48,3.69-2.94,5.55-4.39,1.44-1.12,2.88-2.22,4.33-3.32.63-.48,1.26-.96,1.89-1.43,1.18-.89,2.37-1.78,3.57-2.66,6.54-4.82,13.25-9.5,20.13-14.04.96-.64,1.92-1.26,2.88-1.89.55-.35,1.09-.7,1.62-1.04.71-.47,1.43-.93,2.14-1.38,2.75-1.75,5.51-3.47,8.3-5.17.66-.4,1.31-.8,1.97-1.2.51-.3,1.02-.61,1.52-.91,1.06-.63,2.12-1.26,3.18-1.88,3.19-1.88,6.42-3.73,9.67-5.54.87-.49,1.74-.97,2.61-1.44,1.32-.73,2.65-1.46,3.97-2.17,1.96-1.05,3.93-2.1,5.92-3.14,8.05-4.2,16.31-8.23,24.77-12.08,1.17-.54,2.35-1.07,3.53-1.59,1.18-.53,2.36-1.05,3.55-1.57,1.11-.49,2.23-.98,3.35-1.46,8.45-3.63,17.09-7.09,25.94-10.37,1.25-.47,2.5-.93,3.77-1.38,1.03-.38,2.06-.75,3.1-1.12,4.03-1.44,8.1-2.84,12.22-4.2,1.15-.38,2.3-.76,3.46-1.14.33-.1.65-.21.97-.31,1.12-.36,2.25-.72,3.38-1.08,1.31-.41,2.62-.82,3.94-1.23,1.42-.44,2.86-.88,4.3-1.31,1.22-.36,2.43-.73,3.66-1.08,1.33-.4,2.67-.78,4.01-1.17,4.28-1.22,8.6-2.41,12.96-3.55,1.12-.29,2.24-.59,3.36-.87,1.38-.36,2.76-.71,4.14-1.05,1.3-.33,2.59-.65,3.9-.96,2.87-.7,5.77-1.39,8.68-2.05.97-.22,1.95-.45,2.93-.66,1.85-.42,3.71-.83,5.58-1.23,7.36-1.58,14.61-3.06,21.77-4.44,1.01-.2,2.02-.39,3.02-.58,3.3-.63,6.58-1.23,9.84-1.81,1.88-.34,3.75-.67,5.62-.99,1.87-.33,3.73-.64,5.58-.95,1.86-.31,3.7-.62,5.54-.91,2.09-.34,4.17-.67,6.24-.98,1.58-.24,3.15-.48,4.72-.71,1.77-.27,3.53-.52,5.28-.77,1.84-.26,3.68-.52,5.51-.76,1.21-.17,2.41-.33,3.6-.48,1.09-.15,2.18-.29,3.26-.42,1.39-.18,2.77-.35,4.15-.52,1.42-.17,2.84-.34,4.25-.51.72-.08,1.44-.16,2.16-.24,1.22-.14,2.44-.28,3.66-.41h.06c3.45-.38,6.87-.73,10.27-1.05.94-.09,1.88-.18,2.82-.26,1.31-.12,2.62-.24,3.93-.35,2.01-.17,4.02-.34,6.01-.49,1.99-.15,3.98-.3,5.96-.44,1.97-.13,3.94-.26,5.9-.38.15-.01.3-.02.44-.03,1.81-.11,3.61-.21,5.4-.3,3.81-.2,7.58-.36,11.32-.49.19-.01.39-.02.58-.02,1.62-.05,3.24-.1,4.84-.15.2-.01.4-.01.6-.01,3.61-.09,7.18-.15,10.72-.18h.32c5.06-.04,10.05-.01,14.97.08,1.01.02,2.02.04,3.02.06,9.61.23,18.97.7,28.07,1.4,2.11.16,4.2.34,6.28.53,2.65.23,5.28.49,7.89.78.96.09,1.91.2,2.86.31.73.08,1.45.16,2.17.25.81.09,1.62.19,2.43.29,12.34,1.52,24.18,3.48,35.55,5.87.98.21,1.96.41,2.93.63,3.15.68,6.25,1.4,9.32,2.15,1.02.25,2.04.5,3.06.76,1.02.25,2.03.51,3.03.78,1.01.26,2.02.53,3.02.8,2.36.64,4.7,1.3,7.01,1.98.51.14,1.02.29,1.52.45h.02s.03.01.04.01c.1.03.2.06.29.09,2.19.65,4.36,1.32,6.51,2.01.71.22,1.42.45,2.13.69,4.22,1.37,8.36,2.82,12.43,4.33.64.23,1.27.47,1.9.71,3.69,1.39,7.32,2.83,10.88,4.33.75.31,1.49.63,2.23.95.86.36,1.71.73,2.55,1.1,2.12.93,4.21,1.87,6.28,2.84.79.37,1.57.74,2.35,1.11,3.22,1.53,6.39,3.11,9.51,4.74,1.4.72,2.78,1.45,4.15,2.19,1.53.82,3.04,1.66,4.55,2.51,1.41.79,2.8,1.6,4.19,2.41,1.38.8,2.74,1.62,4.1,2.44.14.09.29.18.43.27,1.3.79,2.58,1.59,3.86,2.39,1.53.97,3.05,1.95,4.56,2.95,2.56,1.68,5.08,3.4,7.56,5.16.03.02.07.04.11.07,1.28.91,2.56,1.83,3.82,2.75.04.03.07.05.1.08,1.28.93,2.54,1.88,3.79,2.83,1.27.96,2.53,1.93,3.77,2.91,1.24.98,2.48,1.97,3.7,2.96,1.22,1,2.43,2,3.63,3.01,1.19,1,2.36,2.01,3.52,3.02.12.1.23.2.35.3,1.08.95,2.14,1.89,3.2,2.85,1.16,1.04,2.3,2.09,3.43,3.15,1.14,1.06,2.26,2.12,3.37,3.2.98.94,1.95,1.89,2.91,2.84.14.13.27.27.4.4,1.05,1.04,2.08,2.09,3.12,3.15.03.04.08.09.12.13,1.01,1.05,2.02,2.1,3.02,3.16.09.1.19.21.3.32,1,1.06,1.99,2.14,2.97,3.22.98,1.07,1.95,2.15,2.91,3.24,1.06,1.21,2.12,2.42,3.16,3.65.98,1.15,1.95,2.29,2.9,3.45.97,1.17,1.92,2.34,2.87,3.53.95,1.18,1.88,2.36,2.81,3.56,1.01,1.3,2.01,2.61,3,3.93.77,1.03,1.53,2.06,2.29,3.1.93,1.28,1.86,2.57,2.79,3.88.69.98,1.38,1.97,2.06,2.96.2.29.41.59.61.9.6.87,1.2,1.74,1.77,2.62.35.5.68,1.01,1.02,1.53.56.84,1.11,1.68,1.66,2.53.31.48.62.97.94,1.47.64.99,1.26,1.98,1.88,2.98,2.19,3.51,4.31,7.07,6.36,10.66.41.71.81,1.41,1.2,2.12.8,1.41,1.58,2.83,2.35,4.25.65,1.2,1.3,2.41,1.93,3.61.6,1.14,1.2,2.28,1.78,3.42.15.29.31.59.46.89.5.99,1.01,1.99,1.5,2.99,2.44,4.89,4.76,9.83,6.96,14.82.42.93.82,1.86,1.22,2.79.69,1.57,1.35,3.14,2.01,4.72.39.94.78,1.87,1.16,2.81.29.7.58,1.41.86,2.12.68,1.69,1.34,3.38,1.99,5.07.34.88.68,1.76,1.01,2.64.32.86.64,1.72.96,2.58.38,1.04.76,2.07,1.13,3.11.49,1.34.96,2.68,1.43,4.02.28.79.55,1.57.81,2.36.24.68.47,1.37.7,2.06,1.34,3.96,2.61,7.95,3.83,11.94.37,1.2.73,2.41,1.08,3.62.27.89.53,1.79.78,2.69.26.87.51,1.75.75,2.62.06.17.1.35.15.52.33,1.15.65,2.3.96,3.46.07.27.15.54.22.82.36,1.32.72,2.65,1.06,3.98.31,1.16.61,2.32.9,3.49.1.39.2.78.3,1.18.23.94.47,1.87.7,2.81.79,3.25,1.55,6.5,2.27,9.75.25,1.12.5,2.24.74,3.36.63,2.89,1.22,5.77,1.8,8.66.24,1.19.47,2.37.69,3.56.28,1.45.55,2.91.82,4.36.24,1.32.48,2.64.71,3.96s.46,2.64.68,3.96c.14.8.27,1.6.4,2.4.24,1.44.47,2.88.69,4.32.17,1.08.34,2.17.5,3.25.09.64.19,1.27.28,1.89.2,1.32.38,2.64.57,3.95.55,3.95,1.06,7.89,1.53,11.82.16,1.31.31,2.61.46,3.92.12,1.03.23,2.06.35,3.08.23,2.2.46,4.39.67,6.57.14,1.35.27,2.71.39,4.06.09,1.01.18,2.03.27,3.03.08.84.15,1.67.22,2.5.2,2.43.39,4.84.56,7.25.06.78.12,1.55.17,2.33.05.76.1,1.52.15,2.28.11,1.65.21,3.29.31,4.92.06,1.02.12,2.03.17,3.04.03.55.06,1.1.09,1.64.1,1.9.19,3.79.27,5.67.05,1.07.09,2.14.14,3.2.02.67.05,1.34.07,2,.05,1.3.1,2.6.14,3.9.02.73.04,1.46.06,2.19.04,1.25.07,2.49.1,3.74.03,1.24.06,2.47.08,3.71.03,1.23.05,2.47.06,3.69,1.38,97.95-16.28,175.47-16.28,175.47,4.05,3.43,7.98,6.89,11.78,10.37,1.27,1.16,2.52,2.33,3.76,3.49,1.24,1.17,2.46,2.34,3.67,3.51,1.22,1.17,2.41,2.34,3.6,3.52.59.59,1.18,1.18,1.77,1.77,2,2.01,3.96,4.03,5.87,6.05.33.34.65.69.99,1.04,31.36,33.35,52.28,68.5,65.29,104.02,13.2,36.01,18.28,72.4,17.88,107.67Z"/><path fill="#fff" d="m1392.61,1972.51l52.03,47.97-9.37,19.78-2.39,5.04c-104.6-75.6-141.5-50.5-105.63,104.92,1.48,6.42,1.38,13.05,2.19,19.39,4.5,35.01,11.1,65.32,13.68,76.53.39,1.7.69,2.95.87,3.73-.24-.96-.48-1.92-.71-2.87-21.79-87.94-31.84-152.87-35.76-200.01-1.01-12.14-1.62-23.1-1.91-32.96-.92-30.61,1.16-50.71,3.37-62.97,1.93-10.69,3.95-15.42,4.19-15.94h0s0-.04.02-.05h.01c88.86-87.09,269.31-118.27,406.94-129.04,102.17-7.99,180.74-4.73,180.74-4.73,4.05,3.43,7.98,6.89,11.78,10.37,1.27,1.16,2.52,2.33,3.76,3.49,1.24,1.17,2.46,2.34,3.67,3.51,1.22,1.17,2.41,2.34,3.6,3.52.59.59,1.19,1.18,1.77,1.77,2,2.01,3.96,4.03,5.87,6.05-320.26,8.83-468.31,57.13-530.71,87.59-21.25,10.37-25.39,38.88-8.01,54.91Z" opacity=".5"/><path fill="#fff" d="m1864.11,1390.73c-54.53-60-118.98-105.21-192.3-113.51-252.57-28.58-405.64,231.1-405.64,231.1,19.75-70.5,68.29-141.92,129.27-208.99,19.27-21.21,39.8-41.99,61.05-62.17,34.35-4.87,66.22-7.28,95.76-7.49,168.83-1.22,262,69.23,311.86,161.06Z" opacity=".5"/><path fill="#fff" d="m1552.25,1229.67l-57.16,47.55c-35.22,5.97-68.4,13.42-99.65,22.11-177.33,49.3-292.42,138.49-365.79,223.24,63.73-129.95,176.54-234,359.23-273.27,23.54-5.06,46.06-9.09,67.61-12.14,34.35-4.87,66.22-7.28,95.76-7.49Z" opacity=".5"/><path fill="#3d066b" d="m1451.47,2449.45c-25.53,0-50.95-1.1-75.92-3.31-21.9-1.93-43.78-4.74-65.03-8.34-98.01-16.58-157.12-45.19-166.3-49.84-.28-.09-.57-.17-.86-.26-1.04-.33-2.03-.66-3.02-1.02-.71-.24-1.42-.51-2.14-.8-.11-.04-.22-.08-.33-.13-.71-.28-1.41-.56-2.11-.87-.12-.05-.24-.1-.36-.15-.64-.28-1.27-.55-1.91-.85-.33-.15-.66-.3-1-.47-.56-.26-1.14-.53-1.7-.81l-.3-.15c-.66-.33-1.33-.68-2-1.04-1.73-.91-3.57-1.96-5.38-3.07-.66-.4-1.38-.85-2.11-1.32-.68-.43-1.42-.92-2.18-1.43-.83-.56-1.65-1.13-2.48-1.71-.79-.56-1.58-1.13-2.38-1.73-.75-.55-1.52-1.14-2.3-1.75-.03-.02-.06-.05-.09-.07l-.04-.03c-.74-.58-1.48-1.17-2.22-1.77-.54-.44-1.16-.94-1.76-1.45-.26-.21-.52-.43-.78-.66-.58-.49-1.22-1.04-1.86-1.61-.08-.07-.16-.13-.24-.2h0c-.76-.67-1.53-1.36-2.3-2.07-.75-.69-1.49-1.36-2.21-2.06-.7-.65-1.39-1.32-2.09-1.99-.04-.04-.09-.09-.13-.13l-.24-.24c-.64-.63-1.35-1.34-2.05-2.05-.74-.75-1.48-1.51-2.22-2.28-.77-.8-1.52-1.6-2.28-2.42-2.14-2.31-4.38-4.83-6.6-7.44-.73-.86-1.47-1.75-2.21-2.65-1.47-1.78-2.83-3.48-4.16-5.18-.22-.27-.44-.55-.64-.82-.57-.72-1.13-1.46-1.7-2.21-.73-.96-1.48-1.96-2.23-2.96-.66-.88-1.35-1.83-2.05-2.79-.58-.79-1.16-1.6-1.74-2.42-.15-.21-.3-.42-.45-.64-1.14-1.61-2.28-3.26-3.42-4.93l-.53-.77c-.27-.4-.54-.79-.81-1.2-.48-.72-1.01-1.52-1.54-2.33-.7-1.06-1.4-2.13-2.09-3.21-2.56-3.96-5.16-8.17-7.74-12.52-.36-.6-.77-1.28-1.17-1.97-.83-1.4-1.64-2.81-2.46-4.24-.82-1.42-1.64-2.88-2.47-4.38l-.96-1.71c-1.68-3.03-3.38-6.19-5.07-9.44-.34-.64-.71-1.35-1.09-2.06-.88-1.7-1.74-3.38-2.59-5.07-.76-1.5-1.52-3.01-2.26-4.53l-.27-.54c-.3-.6-.6-1.2-.89-1.81-.39-.79-.78-1.59-1.17-2.4-1.16-2.39-2.31-4.83-3.46-7.3-1.66-3.56-3.15-6.84-4.55-10.01l-.19-.42c-.68-1.54-1.37-3.1-2.05-4.66-.37-.87-.71-1.67-1.07-2.46-.01-.03-.03-.07-.04-.1-.54-1.26-1.09-2.54-1.62-3.81l-.28-.66c-.14-.33-.28-.67-.42-1-.69-1.64-1.38-3.3-2.06-4.97-.25-.61-.5-1.22-.76-1.84l-.33-.8c-.66-1.63-1.3-3.22-1.94-4.82l-.2-.5c-1.47-3.72-2.9-7.41-4.25-10.99-.34-.88-.69-1.83-1.05-2.77l-.57-1.54c-.5-1.35-1.01-2.7-1.51-4.07l-.99-2.75c-1.36-3.75-2.71-7.58-4.03-11.42-.33-.95-.66-1.92-.99-2.91-.64-1.88-1.29-3.83-1.95-5.78-.64-1.91-1.28-3.86-1.92-5.83-.64-1.95-1.29-3.97-1.92-6.01-.3-.94-.58-1.84-.88-2.75-.02-.05-.03-.09-.04-.14l-1.39-4.5c-.29-.96-.59-1.92-.88-2.89-1.36-4.46-2.74-9.15-4.1-13.89-1.51-5.26-3-10.66-4.57-16.51-.91-3.38-1.82-6.89-2.71-10.42-1.43-5.57-2.8-11.12-4.06-16.47l-.03-.11c-.32-1.33-.63-2.65-.94-3.99-2.97-12.73-5.76-25.9-8.3-39.1-.33-1.73-.67-3.48-.99-5.22-2.57-13.69-4.92-27.85-7.01-42.08-.32-2.2-.64-4.43-.95-6.65l-.32-2.3c-.25-1.81-.51-3.72-.76-5.62-1.54-11.7-2.9-23.51-4.04-35.06-.18-1.69-.34-3.46-.5-5.23-.02-.17-.03-.34-.05-.51l-.02-.2s0-.09-.01-.13c-.05-.56-.11-1.12-.15-1.69l-.02-.23c-.13-1.45-.27-2.9-.39-4.35-.16-1.87-.32-3.75-.47-5.62-.15-1.91-.3-3.8-.45-5.69-.15-1.97-.3-3.97-.44-5.98-.14-1.9-.27-3.89-.4-5.88v-.21c-.11-1.52-.21-3.05-.3-4.58-.11-1.71-.21-3.48-.3-5.25-.05-.76-.09-1.52-.13-2.29l-.06-1.04c0-.06,0-.12,0-.17v-.09c-.02-.19-.03-.37-.04-.56-.14-2.7-.26-5.41-.38-8.12-.35-8.09-.61-16.44-.77-24.82-.03-1.22-.05-2.51-.06-3.81l-.06-3.67c-.02-1.77-.03-3.48-.04-5.2v-.53c-.01-1.92-.02-3.84-.02-5.76s0-3.93.02-5.9l.06-6.53c.02-1.66.04-3.29.07-4.92l.03-1.47c.02-.98.04-1.97.06-2.95.2-9.12.54-18.55,1.02-27.97.1-1.95.2-3.87.31-5.8,0-.08,0-.16.02-.23.02-.27.03-.55.05-.82,0-.03,0-.12,0-.15.1-1.73.21-3.45.33-5.18,0-.03,0-.05,0-.08,0-.09,0-.18.01-.28.12-1.83.25-3.65.38-5.47l.05-.76c.14-1.93.28-3.87.44-5.8.17-2.13.34-4.28.52-6.43.1-1.24.22-2.5.33-3.76l.15-1.73c.5-5.44.99-10.28,1.49-14.83.11-1.03.23-2.14.35-3.23.16-1.44.33-2.88.5-4.33.18-1.62.38-3.26.59-4.89l.08-.64c.04-.33.08-.66.12-.99.16-1.31.33-2.6.5-3.91l.04-.28c.73-5.6,1.5-11.1,2.3-16.37.15-1.06.33-2.18.5-3.29.18-1.21.38-2.44.57-3.66.27-1.73.56-3.53.86-5.32.22-1.36.46-2.73.69-4.1.28-1.63.57-3.32.86-5,0-.04.01-.07.02-.11.01-.09.03-.18.05-.27l.3-1.67c.21-1.17.42-2.33.64-3.5.7-3.79,1.37-7.29,2.05-10.67.28-1.41.57-2.87.87-4.32.43-2.1.87-4.15,1.31-6.21l.02-.11c.27-1.29.55-2.57.83-3.85.2-.94.41-1.88.63-2.83l.14-.62c.27-1.19.53-2.39.81-3.58.38-1.67.78-3.36,1.17-5.05.41-1.74.83-3.47,1.25-5.19l.02-.1c1.24-5.09,2.61-10.39,4.05-15.8.38-1.41.76-2.81,1.14-4.21l.52-1.88c.37-1.33.74-2.67,1.12-4,.02-.08.05-.17.07-.25l.05-.18c.04-.15.08-.29.13-.44.36-1.26.72-2.53,1.1-3.79.15-.52.3-1.06.46-1.58.43-1.49.88-2.99,1.33-4.48.5-1.69,1.01-3.34,1.52-5,1.33-4.3,2.75-8.7,4.21-13.06.36-1.14.75-2.29,1.14-3.44.51-1.53,1.06-3.14,1.62-4.73.32-.94.67-1.95,1.03-2.95.18-.52.36-1.03.54-1.54l.36-1.03s.03-.1.05-.14c.4-1.1.8-2.2,1.19-3.3.03-.09.07-.19.1-.28.12-.31.23-.61.34-.91l.16-.44c.47-1.31.98-2.66,1.49-4.01l.21-.58c.02-.05.04-.1.06-.15l.44-1.15c.41-1.09.82-2.17,1.24-3.26,2.66-6.93,5.46-13.84,8.3-20.52.57-1.36,1.17-2.76,1.79-4.17l.34-.79c.47-1.1.99-2.26,1.51-3.42.34-.78.69-1.56,1.04-2.34l.05-.1c.44-.99.91-2.05,1.4-3.11l.71-1.55c.41-.91.83-1.81,1.25-2.7.75-1.62,1.54-3.3,2.34-4.96.96-2.01,1.92-4.02,2.9-6.01h0s.02-.04.03-.06c.75-1.54,1.51-3.06,2.27-4.58l.43-.86c1.92-3.8,3.9-7.62,5.92-11.43.83-1.55,1.64-3.07,2.47-4.59.03-.06.11-.2.19-.35.86-1.58,1.73-3.14,2.59-4.69,1.14-2.04,2.29-4.09,3.46-6.12.75-1.31,1.52-2.63,2.29-3.94.39-.66.78-1.33,1.18-2,.58-.99,1.17-1.97,1.75-2.95l.58-.98c.07-.11.13-.22.21-.33l.04-.06c.1-.16.19-.32.29-.48.99-1.63,1.98-3.25,2.99-4.88.81-1.31,1.62-2.6,2.44-3.89.43-.68.9-1.43,1.38-2.17.19-.3.38-.6.58-.91.76-1.2,1.54-2.39,2.31-3.58,2.51-3.82,4.79-7.22,6.98-10.4,1.16-1.68,2.34-3.38,3.53-5.07.78-1.11,1.57-2.21,2.36-3.3.62-.88,1.26-1.76,1.9-2.64,3.39-4.66,6.91-9.33,10.45-13.85.6-.79,1.21-1.57,1.84-2.34.22-.29.44-.56.67-.84.63-.8,1.27-1.6,1.92-2.4,1.22-1.52,2.48-3.07,3.76-4.62,1.16-1.42,2.37-2.87,3.59-4.31.05-.06.09-.11.14-.17,1.23-1.46,2.46-2.9,3.7-4.33.05-.06.11-.12.16-.18l.12-.14c1.37-1.58,2.75-3.15,4.14-4.71l.17-.19s.04-.05.07-.08l.16-.18c1.05-1.17,2.09-2.34,3.15-3.49.47-.52.95-1.04,1.43-1.56,2.3-2.52,4.77-5.15,7.3-7.8l.57-.59c.61-.63,1.22-1.27,1.83-1.89,1.24-1.28,2.48-2.55,3.74-3.81,1.04-1.05,2.12-2.12,3.2-3.2,1.01-1,2.02-1.99,3.03-2.97.22-.22.45-.44.67-.65.56-.55,1.12-1.09,1.69-1.63,1.42-1.37,2.84-2.72,4.28-4.06,1.05-.99,2.19-2.05,3.32-3.09l.55-.5c.39-.36.79-.72,1.18-1.07.87-.8,1.75-1.59,2.63-2.37l1.37-1.23c.38-.34.74-.66,1.11-.98.94-.85,1.89-1.68,2.84-2.5,1.51-1.32,3.02-2.62,4.55-3.91l.19-.16c.55-.47,1.11-.94,1.67-1.41,1.44-1.21,2.91-2.43,4.39-3.65,1.34-1.1,2.72-2.22,4.11-3.33,1.85-1.49,3.75-2.99,5.66-4.48,1.49-1.16,2.97-2.29,4.46-3.42.64-.49,1.3-.99,1.97-1.49,1.18-.89,2.41-1.81,3.66-2.72,6.65-4.9,13.6-9.75,20.64-14.39.63-.42,1.31-.86,1.99-1.31l.92-.6s.1-.06.14-.09l1.51-.97c.75-.5,1.52-.99,2.27-1.46,2.81-1.79,5.67-3.57,8.49-5.29l2-1.22s.09-.06.14-.08c.32-.19.64-.38.96-.57l.47-.28c1.15-.68,2.22-1.32,3.3-1.95,3.21-1.89,6.55-3.8,9.9-5.67.87-.49,1.78-.99,2.69-1.49,1.35-.74,2.7-1.49,4.05-2.21,2.02-1.08,4.02-2.15,6.05-3.21,8.25-4.3,16.79-8.47,25.38-12.38,1.17-.54,2.42-1.1,3.67-1.65,1.14-.51,2.36-1.05,3.59-1.59,1.11-.49,2.27-1,3.43-1.49,8.7-3.74,17.62-7.31,26.52-10.6,1.24-.47,2.54-.95,3.86-1.41,1.05-.39,2.1-.76,3.16-1.14,4.13-1.48,8.34-2.92,12.49-4.29l3.49-1.15c.09-.03.17-.06.26-.08l8.21-2.6c1.47-.45,2.95-.91,4.43-1.35l1.25-.37c.82-.25,1.64-.49,2.47-.73.93-.28,1.87-.55,2.81-.82l1.22-.35c4.76-1.36,9.08-2.54,13.29-3.64l1.11-.29c.77-.2,1.55-.41,2.32-.6,1.41-.37,2.82-.73,4.23-1.07,1.29-.33,2.64-.66,4.01-.99,3.18-.78,6.09-1.46,8.79-2.08l.78-.18c.74-.17,1.49-.34,2.23-.5,1.87-.42,3.75-.84,5.65-1.24,7.46-1.6,14.87-3.11,22.02-4.49.84-.17,1.74-.34,2.63-.51l.42-.08c3.34-.64,6.67-1.25,9.98-1.84,1.89-.34,3.79-.68,5.7-1,1.7-.3,3.46-.59,5.21-.89l1.11-.19c1.66-.28,3.31-.55,4.97-.81,2.08-.34,4.21-.68,6.33-.99l.41-.06c1.46-.22,2.9-.44,4.35-.65,1.61-.25,3.29-.49,4.96-.72l.37-.05c1.88-.27,3.74-.53,5.59-.77,1.22-.17,2.44-.33,3.65-.49,1.12-.15,2.24-.3,3.35-.43,1.4-.18,2.79-.35,4.17-.52l4.28-.51h.13s2.15-.25,2.15-.25c1.21-.14,2.46-.28,3.72-.42.12-.01.24-.02.36-.03,3.41-.37,6.81-.72,10.12-1.03h.13c.93-.1,1.87-.19,2.8-.27h.07c1.29-.12,2.58-.24,3.87-.35,2.04-.17,4.09-.35,6.12-.5,2.01-.15,4.02-.3,6.02-.44l.33-.02c1.9-.13,3.8-.25,5.69-.37l.29-.02c.05,0,.1,0,.15-.01,1.85-.11,3.7-.21,5.53-.31,3.66-.19,7.41-.35,11.42-.5.28-.01.57-.02.85-.03l4.62-.14c.3-.01.59-.02.89-.02,3.21-.09,6.65-.15,10.8-.18.04,0,.07,0,.11,0h.32c4.91-.04,10.06-.01,15.2.08l3.04.06c9.78.23,19.45.72,28.78,1.43,2.16.16,4.31.35,6.46.54,2.64.23,5.36.5,8.03.79,1.01.1,2.02.21,3.02.33.69.08,1.43.16,2.18.25.84.09,1.67.2,2.51.3,12.56,1.55,24.87,3.58,36.59,6.04l.91.19c.72.15,1.43.3,2.14.46,3.1.67,6.24,1.39,9.6,2.21,1.04.26,2.08.51,3.11.77,1.08.26,2.14.54,3.2.82,1.04.27,2.07.54,3.09.82,2.44.66,4.84,1.34,7.16,2.02.52.14,1.03.29,1.54.45.2.05.39.11.58.18h.01c2.21.66,4.42,1.34,6.59,2.04.77.24,1.54.49,2.31.75,4.15,1.35,8.45,2.85,12.8,4.46.67.24,1.32.49,1.98.74,3.95,1.49,7.76,3.01,11.35,4.52.71.3,1.5.63,2.28.97.91.38,1.8.77,2.68,1.16,2.4,1.05,4.54,2.02,6.55,2.96.8.38,1.61.76,2.41,1.14,3.34,1.59,6.68,3.25,9.94,4.95,1.41.72,2.86,1.49,4.3,2.27,1.57.84,3.16,1.72,4.74,2.62,1.45.81,2.9,1.66,4.35,2.5,1.42.82,2.84,1.68,4.26,2.54.09.06.18.11.27.17l.25.16c1.33.81,2.63,1.62,3.94,2.44,1.66,1.05,3.25,2.08,4.83,3.12,2.56,1.68,5.14,3.44,7.64,5.21.13.08.25.17.38.26h0c1.32.94,2.64,1.89,3.95,2.84.03.02.06.04.09.06.08.06.15.11.22.17,1.27.93,2.53,1.87,3.77,2.82,1.32,1,2.65,2.02,3.96,3.06,1.28,1.01,2.56,2.04,3.83,3.06,1.31,1.07,2.56,2.11,3.8,3.15,1.21,1.02,2.41,2.05,3.6,3.09.09.07.17.15.25.22l-.05-.04c.09.08.19.16.28.24,1.12.99,2.23,1.97,3.33,2.97,1.19,1.06,2.39,2.18,3.59,3.3,1.17,1.09,2.36,2.21,3.54,3.36.94.9,1.93,1.87,2.91,2.84.17.16.33.32.49.49,1.06,1.05,2.11,2.12,3.17,3.2.09.09.18.19.27.29,1.04,1.08,2.08,2.16,3.11,3.25.06.06.12.13.17.19.04.04.08.09.12.13,1.06,1.12,2.1,2.26,3.14,3.4.99,1.08,2.02,2.22,3.03,3.37,1.13,1.29,2.24,2.55,3.33,3.84,1.02,1.2,2.03,2.39,3.03,3.6.97,1.17,1.97,2.4,2.97,3.66.96,1.2,1.94,2.44,2.92,3.7,1.04,1.34,2.09,2.71,3.12,4.08.81,1.09,1.6,2.15,2.38,3.23.97,1.34,1.93,2.67,2.89,4.01.75,1.07,1.47,2.09,2.17,3.12l.07.1c.21.3.41.6.62.91.62.9,1.2,1.75,1.76,2.61.34.5.67,1,1.01,1.51l.08.12c.58.87,1.14,1.73,1.71,2.61l.98,1.54c.65,1,1.31,2.05,1.97,3.12,2.2,3.53,4.43,7.26,6.59,11.05.41.71.84,1.46,1.25,2.22.83,1.46,1.63,2.93,2.43,4.4.68,1.25,1.35,2.51,2.01,3.76.62,1.18,1.25,2.37,1.85,3.56l.07.14c.15.28.29.56.44.85l.26.52c.43.84.86,1.69,1.27,2.54,2.46,4.94,4.88,10.08,7.15,15.23.44.98.87,1.96,1.29,2.94.68,1.55,1.37,3.19,2.06,4.84l.32.77c.29.7.58,1.41.87,2.11.3.74.61,1.48.9,2.23.7,1.74,1.38,3.48,2.05,5.22.36.94.71,1.84,1.05,2.74l1.26,3.4c.3.81.59,1.62.88,2.43.48,1.31.94,2.63,1.4,3.94l.06.18c.29.81.57,1.64.85,2.47.23.66.46,1.33.68,2l.04.13c1.28,3.78,2.57,7.8,3.93,12.25.37,1.21.75,2.47,1.11,3.72.28.92.55,1.85.81,2.78.25.84.49,1.69.73,2.53.07.22.13.44.19.66l-.03-.11c.37,1.29.71,2.52,1.04,3.75l.07.24c.06.21.11.41.17.62.36,1.33.72,2.66,1.06,4,.32,1.21.64,2.42.94,3.64l1.01,4.02c.87,3.59,1.63,6.86,2.33,10.02.25,1.13.51,2.29.76,3.44.7,3.22,1.35,6.41,1.83,8.82.25,1.24.49,2.49.72,3.74.25,1.29.5,2.67.76,4.04l.06.32c.25,1.4.5,2.75.74,4.1.23,1.34.47,2.69.69,4.04.13.75.27,1.6.41,2.44.24,1.46.48,2.95.71,4.45.17,1.07.34,2.19.51,3.31l.29,1.93c.12.82.25,1.73.38,2.63l.19,1.32c.57,4.11,1.1,8.16,1.57,12.13.16,1.31.31,2.64.47,3.98l.34,3.04c0,.05.01.11.02.16.24,2.26.47,4.47.68,6.67.14,1.31.27,2.74.4,4.15l.27,3.02c.08.82.15,1.7.23,2.58.21,2.49.4,4.95.57,7.41l.02.23c.06.73.11,1.45.16,2.19l.15,2.24c.11,1.68.21,3.34.31,4.99l.02.42c.05.93.11,1.85.15,2.77l.09,1.58c.1,1.96.2,3.89.28,5.81l.14,3.15c0,.07,0,.14,0,.2l.07,1.99c.05,1.24.1,2.57.14,3.9l.06,2.22c.04,1.15.07,2.34.09,3.54v.25c.04,1.26.07,2.51.09,3.77.03,1.28.05,2.57.06,3.83,1.15,81.97-10.66,149.07-15.03,170.92,2.2,1.93,4.36,3.87,6.47,5.8,1.26,1.15,2.53,2.33,3.78,3.51l.08.07c1.32,1.25,2.58,2.45,3.82,3.66,1.23,1.18,2.47,2.4,3.71,3.63l.62.62c.42.42.85.84,1.26,1.26,1.93,1.94,3.88,3.94,5.74,5.91.11.11.21.21.32.32l.99,1.05c30.72,32.67,53.57,69.1,67.93,108.29,12.82,34.96,19.09,72.68,18.64,112.11-.01,1.2-.03,2.41-.06,3.61-.02,1.04-.05,2.18-.08,3.33,0,.08,0,.16,0,.24,0,.04,0,.08,0,.12-.04,1.24-.09,2.47-.15,3.71-.02.5-.04,1.03-.07,1.56-.05,1.34-.12,2.67-.21,4.01-.03.64-.07,1.28-.11,1.92-.07,1.08-.14,2.2-.23,3.32-.14,2.08-.32,4.32-.55,6.79-.07.78-.14,1.62-.22,2.47-.06.7-.14,1.39-.21,2.09-.1,1.07-.23,2.23-.35,3.38l-.06.55c-.13,1.13-.25,2.19-.38,3.25-.09.79-.18,1.58-.29,2.36-.18,1.49-.38,2.95-.58,4.43l-.37,2.58c-.5,3.46-1.05,6.96-1.64,10.45l-.07.42c-.12.71-.24,1.43-.37,2.14-.14.8-.28,1.59-.43,2.38l-.06.32c-.22,1.18-.43,2.34-.66,3.51-.54,2.8-1.14,5.81-1.86,9.17l-.49,2.26c-.05.23-.1.46-.16.68-.13.58-.26,1.17-.39,1.76-.32,1.44-.66,2.94-1.02,4.43-.17.75-.35,1.5-.54,2.25l-.05.19c-1.87,7.76-3.99,15.62-6.29,23.35-.25.87-.54,1.82-.83,2.77l-.14.47c-1.61,5.34-3.39,10.87-5.29,16.45-.27.82-.58,1.71-.89,2.61-.73,2.11-1.46,4.17-2.19,6.22l-.3.83c-.25.69-.5,1.38-.74,2.05-1.38,3.77-2.7,7.22-4.01,10.57-.37.96-.78,1.99-1.18,3.02-.46,1.17-.94,2.38-1.44,3.58-.51,1.27-1.02,2.53-1.54,3.78-.35.86-.72,1.73-1.09,2.6l-.41.99c-1.02,2.42-2.03,4.79-3.05,7.13-2.54,5.82-5.29,11.84-8.17,17.89-.35.74-.73,1.54-1.12,2.34-.51,1.08-1.04,2.15-1.56,3.22l-.35.71c-.41.83-.81,1.65-1.22,2.47-25.74,51.92-69.55,93.38-123.32,116.71-120.64,52.33-242.71,81.38-362.81,86.35-12.31.51-24.62.77-36.91.77Zm-304.6-87.02c.14.05.27.1.41.16.43.17.85.33,1.28.48.06.02.12.04.18.06.7.25,1.39.49,2.09.71.46.14.96.29,1.46.43.84.24,1.66.57,2.43.97.57.3,59.61,30.92,159.98,47.91,20.6,3.49,41.81,6.21,63.05,8.08,35.92,3.17,72.79,3.99,109.59,2.46,117.02-4.85,236.09-33.21,353.9-84.31,48.36-20.98,87.75-58.25,110.89-104.92.4-.79.77-1.55,1.14-2.31l.36-.73c.49-1,.98-2,1.46-3.01.02-.03.03-.07.05-.1.34-.7.68-1.4,1.01-2.11,2.8-5.89,5.44-11.66,7.87-17.22.98-2.24,1.95-4.51,2.92-6.81l.42-.99c.34-.81.69-1.63,1.03-2.46.5-1.21.98-2.4,1.46-3.6.02-.06.05-.12.07-.17.45-1.07.87-2.15,1.3-3.24.39-.98.76-1.93,1.13-2.87,1.28-3.26,2.53-6.55,3.84-10.14.23-.62.46-1.27.7-1.92l.3-.84c.7-1.93,1.39-3.89,2.07-5.87,0-.01.03-.09.04-.1.27-.79.55-1.57.81-2.37,1.83-5.38,3.52-10.63,5.05-15.69l.14-.48c.26-.85.51-1.7.76-2.56,2.2-7.4,4.2-14.84,5.98-22.2l.05-.22c.16-.66.32-1.31.47-1.98.01-.05.03-.11.04-.17.33-1.38.65-2.78.96-4.18.14-.59.25-1.11.36-1.63l.08-.37c.03-.14.06-.28.1-.42l.41-1.9c.68-3.21,1.26-6.05,1.76-8.7.22-1.13.42-2.23.62-3.33l.06-.33c.13-.71.26-1.41.38-2.12,0-.04.01-.08.02-.11.12-.64.22-1.28.33-1.92l.08-.44c.56-3.29,1.08-6.58,1.54-9.8l.35-2.49c.19-1.36.37-2.74.54-4.14,0-.07.02-.14.03-.2.08-.6.16-1.2.22-1.81l.02-.17c.12-1.01.24-2.02.36-3.04l.06-.54c.11-1,.22-2.07.33-3.14,0-.04,0-.07.01-.11.06-.61.13-1.19.18-1.78,0-.04,0-.07,0-.11.08-.76.14-1.5.21-2.26.21-2.34.38-4.4.51-6.35.08-1.12.15-2.16.22-3.19.04-.57.07-1.09.09-1.61,0-.04,0-.08,0-.12.07-1.22.14-2.42.19-3.64,0-.09,0-.17.01-.26.02-.41.04-.82.06-1.23.05-1.14.09-2.25.13-3.35,0-.18,0-.39.02-.61.03-.99.05-1.99.07-2.97.03-1.16.05-2.23.06-3.29v-.03c.41-36.38-5.35-71.12-17.12-103.23-13.19-36-34.27-69.57-62.66-99.76l-.67-.72c-.1-.1-.2-.2-.29-.3-1.81-1.91-3.71-3.87-5.65-5.82-.4-.4-.75-.76-1.11-1.11l-.64-.64c-1.1-1.09-2.24-2.22-3.41-3.34-1.21-1.17-2.4-2.31-3.6-3.44l-.04-.03c-1.18-1.1-2.36-2.21-3.57-3.31-3.69-3.38-7.53-6.76-11.43-10.07-3.56-3.02-5.15-7.76-4.11-12.32.17-.76,17.31-77.35,15.97-172.52,0-1.23-.03-2.4-.06-3.56,0-.03,0-.07,0-.1-.02-1.21-.05-2.4-.08-3.61v-.25c-.03-1.13-.06-2.26-.1-3.4l-.06-2.24c-.04-1.24-.09-2.5-.14-3.77l-.21-5.1c-.08-1.89-.17-3.73-.27-5.59l-.08-1.52s0-.14,0-.17c-.04-.84-.09-1.69-.14-2.54l-.02-.39c-.1-1.58-.2-3.19-.3-4.82l-.15-2.22c-.05-.72-.09-1.33-.14-1.96l-.02-.31c-.17-2.43-.36-4.8-.55-7.18-.06-.77-.13-1.55-.21-2.34l-.28-3.11c-.11-1.29-.24-2.58-.37-3.87-.21-2.22-.44-4.35-.66-6.49-.06-.53-.12-1.07-.18-1.6l-.16-1.4c-.15-1.3-.29-2.57-.45-3.85-.46-3.83-.96-7.73-1.5-11.61l-.19-1.32c-.12-.83-.23-1.65-.36-2.48l-.12-.81c-.06-.4-.12-.81-.18-1.22-.14-.95-.3-2-.47-3.04-.22-1.43-.44-2.82-.67-4.21-.13-.82-.25-1.56-.38-2.31-.23-1.38-.46-2.67-.68-3.96-.23-1.3-.46-2.58-.69-3.87l-.05-.27c-.25-1.32-.49-2.64-.75-3.96-.22-1.21-.44-2.32-.67-3.45-.47-2.33-1.09-5.39-1.76-8.47-.24-1.13-.48-2.21-.73-3.3-.67-3.02-1.39-6.13-2.22-9.52l-.31-1.25c-.13-.51-.26-1.03-.38-1.54l-.27-1.05c-.29-1.18-.58-2.27-.87-3.36-.01-.04-.02-.09-.03-.13-.32-1.26-.67-2.53-1.01-3.78-.03-.1-.05-.19-.08-.29l-.18-.67c-.27-1.01-.57-2.09-.88-3.16-.02-.07-.05-.17-.08-.29-.04-.12-.07-.23-.1-.35-.22-.79-.44-1.58-.68-2.37-.02-.08-.04-.15-.07-.23-.22-.81-.46-1.61-.7-2.41-.01-.05-.03-.1-.04-.14-.33-1.14-.67-2.28-1.02-3.41-1.29-4.24-2.51-8.03-3.73-11.62l-.06-.18c-.19-.58-.38-1.15-.58-1.72-.03-.09-.06-.17-.09-.26-.23-.7-.47-1.4-.72-2.1l-.07-.21c-.43-1.23-.86-2.46-1.31-3.68l-.04-.11c-.27-.76-.54-1.51-.82-2.26l-1.2-3.25c-.3-.8-.62-1.62-.94-2.45-.65-1.69-1.29-3.32-1.94-4.95-.01-.03-.03-.06-.04-.09-.25-.64-.51-1.28-.78-1.91-.01-.03-.03-.07-.04-.1-.26-.65-.53-1.3-.8-1.94l-.32-.76c-.62-1.48-1.25-2.98-1.91-4.48-.41-.95-.78-1.81-1.17-2.67-.02-.03-.03-.07-.04-.1-2.12-4.8-4.37-9.6-6.71-14.28-.41-.83-.79-1.59-1.17-2.34l-.7-1.37c-.6-1.17-1.17-2.26-1.74-3.35-.61-1.17-1.24-2.33-1.86-3.48-.73-1.35-1.47-2.7-2.23-4.04-.03-.05-.05-.09-.08-.14-.35-.63-.71-1.26-1.07-1.89-2.04-3.57-4.09-7.01-6.14-10.3-.6-.96-1.17-1.88-1.77-2.81l-.95-1.48c-.51-.78-1.03-1.58-1.56-2.38-.02-.03-.04-.06-.06-.09l-.11-.16c-.23-.35-.45-.69-.68-1.03-.09-.13-.18-.26-.26-.39-.49-.76-1.01-1.5-1.52-2.25-.07-.1-.19-.27-.25-.38-.1-.15-.2-.29-.3-.44l-.1-.14c-.67-.98-1.33-1.93-2-2.87-.87-1.23-1.78-2.48-2.68-3.73-.71-.98-1.45-1.97-2.19-2.96-.93-1.25-1.89-2.5-2.86-3.75-.89-1.15-1.77-2.27-2.67-3.39-.94-1.17-1.84-2.28-2.76-3.39-.94-1.14-1.85-2.21-2.77-3.29-1.05-1.24-2.06-2.39-3.07-3.55-.89-1.01-1.8-2.02-2.72-3.03-.94-1.03-1.84-2.02-2.76-2.99-.17-.17-.33-.35-.48-.51-.92-.98-1.85-1.94-2.78-2.91-.09-.09-.19-.19-.3-.31-.97-.99-1.88-1.91-2.8-2.82l-.28-.28s-.08-.08-.12-.12c-.91-.9-1.84-1.81-2.77-2.7-1.11-1.08-2.16-2.07-3.23-3.07-1.1-1.03-2.17-2.02-3.26-3-1.03-.93-2.02-1.81-3.02-2.69-.08-.06-.15-.13-.23-.2-.07-.06-.1-.08-.17-.14-1.1-.96-2.22-1.92-3.35-2.88-1.17-.98-2.34-1.95-3.51-2.91-1.13-.92-2.33-1.87-3.53-2.82-1.17-.93-2.36-1.84-3.56-2.75-1.2-.92-2.39-1.81-3.6-2.69-.11-.08-.21-.16-.31-.24-1.08-.79-2.17-1.57-3.27-2.35-.11-.07-.22-.15-.33-.23-2.33-1.65-4.75-3.3-7.18-4.9-1.48-.98-2.93-1.92-4.39-2.84-1.17-.73-2.41-1.5-3.66-2.27-.08-.05-.16-.1-.24-.15l-.24-.15c-1.27-.77-2.54-1.53-3.83-2.28-1.35-.79-2.68-1.56-4.03-2.32-1.46-.82-2.89-1.62-4.34-2.4-1.33-.72-2.64-1.41-3.97-2.09-3.04-1.59-6.1-3.11-9.15-4.56-.76-.36-1.52-.72-2.28-1.08-1.83-.85-3.79-1.74-6.01-2.72-.78-.34-1.56-.68-2.35-1.01-.05-.02-.09-.04-.14-.06-.68-.29-1.36-.59-2.04-.87-3.37-1.42-6.88-2.82-10.51-4.18-.01,0-.09-.03-.1-.04-.54-.2-1.07-.41-1.62-.61-.04-.01-.08-.03-.12-.04-4.07-1.51-8.08-2.91-11.94-4.16-.05-.02-.09-.03-.14-.05-.61-.21-1.22-.4-1.83-.59-.04-.01-.08-.02-.12-.04-2.05-.66-4.15-1.31-6.25-1.93-.08-.02-.16-.05-.24-.07-.1-.03-.19-.06-.29-.09-.34-.11-.69-.21-1.04-.31-.09-.03-.19-.05-.28-.08-2.18-.64-4.45-1.28-6.75-1.91-.94-.25-1.9-.51-2.86-.76-.05-.01-.1-.03-.15-.04-.91-.25-1.82-.48-2.75-.71-.04,0-.07-.02-.11-.03-.98-.25-1.97-.49-2.95-.73-3.15-.77-6.09-1.45-8.98-2.07-.04,0-.09-.02-.13-.03-.61-.14-1.23-.27-1.85-.4l-.93-.2c-10.98-2.31-22.59-4.22-34.46-5.69-.76-.09-1.52-.19-2.28-.27-.06,0-.12-.01-.18-.02-.66-.08-1.31-.15-1.98-.23-.94-.11-1.79-.21-2.66-.29-.07,0-.14-.01-.22-.02-2.5-.28-5.06-.53-7.59-.75-2.07-.19-4.1-.36-6.15-.52-8.91-.69-18.13-1.15-27.42-1.37l-2.97-.06c-4.91-.09-9.83-.11-14.62-.08h-.35c-4.04.03-7.36.09-10.44.18-.12,0-.23,0-.35,0h-.12s-.06,0-.09,0l-4.85.15c-.08,0-.15,0-.23,0h-.09c-.07,0-.14.01-.21.01-3.9.14-7.53.29-11.1.48-1.76.09-3.5.19-5.25.29l-.4.03c-1.94.12-3.8.24-5.66.36l-.27.02c-1.9.13-3.87.28-5.84.43-1.95.15-3.92.31-5.89.48-1.24.1-2.47.22-3.7.33h-.15c-.92.09-1.77.17-2.62.25h-.15c-3.3.33-6.69.67-10.09,1.05-.15.02-.29.03-.44.04-1.07.12-2.15.24-3.22.36l-6.35.74c-1.31.16-2.67.33-4.03.51-.04,0-.08,0-.11.01-1.01.12-2.03.25-3.05.39-.05,0-.09.01-.14.02-1.13.14-2.27.29-3.42.46-.04,0-.07.01-.11.02-1.79.23-3.59.49-5.39.74l-.35.05c-1.59.23-3.19.46-4.79.7-1.48.22-2.88.43-4.29.64l-.44.07c-2.05.31-4.07.63-6.11.96-1.64.26-3.21.52-4.8.79l-1.1.18c-1.68.28-3.36.56-5.06.86-1.9.32-3.73.65-5.57.98-3.24.58-6.47,1.17-9.72,1.79l-.44.08c-.83.16-1.67.32-2.5.48-7.04,1.36-14.28,2.83-21.57,4.4-1.83.39-3.64.79-5.44,1.2-.05.01-.1.02-.15.03-.65.14-1.3.29-1.95.44l-.83.19c-2.58.58-5.35,1.24-8.48,2-1.33.31-2.55.62-3.79.93-1.4.35-2.73.68-4.06,1.03-.04.01-.08.02-.12.03-.7.17-1.4.36-2.1.54l-1.16.3c-4,1.05-8.15,2.18-12.67,3.47l-1.2.35c-.88.25-1.76.51-2.63.77-.06.02-.12.03-.17.05-.76.22-1.51.44-2.26.66l-1.29.38c-1.35.4-2.75.83-4.13,1.26l-7.55,2.39c-.21.07-.42.14-.64.2l-3.34,1.1c-3.96,1.31-7.98,2.69-11.93,4.1-1.01.36-2,.71-2.98,1.08-.05.02-.1.04-.15.05-1.19.42-2.37.85-3.54,1.3-8.56,3.17-17.09,6.58-25.41,10.16-1.08.47-2.16.94-3.23,1.41-1.2.52-2.34,1.03-3.48,1.54-1.19.53-2.31,1.03-3.41,1.54-8.25,3.75-16.38,7.72-24.23,11.81-1.95,1.02-3.88,2.05-5.8,3.08-1.26.68-2.55,1.38-3.83,2.09-.04.02-.07.04-.11.06-.81.44-1.61.88-2.42,1.34-3.22,1.79-6.38,3.61-9.45,5.42-1.06.62-2.09,1.23-3.11,1.84l-.42.25c-.36.22-.73.44-1.1.66l-1.91,1.16c-2.66,1.62-5.38,3.31-8.07,5.02-.66.42-1.31.83-1.95,1.26-.05.03-.1.06-.15.09l-2.48,1.6c-.61.4-1.22.8-1.83,1.21-6.72,4.44-13.32,9.04-19.65,13.7-1.18.87-2.33,1.72-3.46,2.58-.65.48-1.24.94-1.84,1.39-1.43,1.09-2.83,2.16-4.23,3.24-1.8,1.4-3.6,2.82-5.39,4.26-1.32,1.06-2.6,2.08-3.87,3.13-1.44,1.18-2.83,2.34-4.22,3.5-.54.45-1.04.87-1.54,1.3l-.22.19c-1.44,1.22-2.86,2.43-4.26,3.66-.03.02-.05.05-.08.07-.87.75-1.74,1.5-2.59,2.28-.09.09-.19.17-.29.25-.22.19-.44.38-.66.58-.03.02-.05.05-.08.07l-1.41,1.26c-.82.73-1.64,1.46-2.45,2.21-.04.04-.09.08-.13.12-.33.3-.67.6-1,.91l-.58.53c-1.02.93-2.06,1.9-3.1,2.88-1.42,1.32-2.74,2.57-4.06,3.85-.03.03-.06.06-.09.09-.49.47-.98.93-1.46,1.4-.04.04-.08.08-.13.12-.16.16-.28.26-.39.37-.04.05-.09.09-.14.13-.97.94-1.94,1.89-2.9,2.84-1.03,1.02-2.05,2.04-3.08,3.08-1.21,1.21-2.37,2.4-3.53,3.59-.03.03-.06.06-.08.09-.55.56-1.1,1.13-1.64,1.7l-.57.59c-2.38,2.48-4.71,4.98-6.91,7.39-.45.49-.88.96-1.29,1.42-.03.03-.06.06-.08.09-1,1.09-1.98,2.19-2.97,3.3l-.33.37c-1.35,1.52-2.65,2.99-3.94,4.49-.03.04-.07.08-.1.12-.08.1-.16.19-.24.27-1.11,1.29-2.22,2.59-3.32,3.89-.1.13-.22.27-.35.42-1.12,1.31-2.21,2.63-3.3,3.97-1.24,1.5-2.43,2.96-3.61,4.44-.64.79-1.23,1.53-1.81,2.26-.07.09-.14.18-.22.27-.08.1-.16.19-.23.29-.08.11-.17.22-.26.33-.52.64-1.03,1.29-1.54,1.95-.03.04-.06.08-.1.13-3.38,4.31-6.74,8.76-9.98,13.22-.6.82-1.17,1.61-1.73,2.4-.02.04-.05.07-.07.1-.76,1.05-1.5,2.09-2.25,3.15-1.13,1.59-2.24,3.2-3.35,4.81-2.1,3.04-4.27,6.28-6.66,9.91-.73,1.12-1.48,2.27-2.22,3.43-.04.07-.08.13-.13.2-.12.18-.23.36-.35.54-.03.05-.06.09-.09.14-.42.65-.85,1.32-1.26,1.98-.82,1.3-1.59,2.53-2.36,3.76-.98,1.57-1.94,3.15-2.9,4.72-.03.05-.06.09-.08.14l-.05.09c-.11.19-.22.37-.34.56l-.52.88c-.55.92-1.11,1.85-1.65,2.78-.02.04-.04.08-.07.12-.37.61-.72,1.22-1.08,1.83-.74,1.26-1.47,2.52-2.19,3.77-1.12,1.94-2.22,3.89-3.31,5.85-.83,1.47-1.64,2.94-2.43,4.4l-.18.33c-.83,1.52-1.61,2.98-2.4,4.45-1.93,3.64-3.84,7.31-5.66,10.91l-.41.82c-.73,1.47-1.46,2.93-2.18,4.4-.03.06-.06.11-.08.17-.92,1.88-1.83,3.77-2.74,5.67-.75,1.56-1.49,3.13-2.22,4.7-.42.9-.81,1.75-1.2,2.6l-.71,1.55c-.43.95-.88,1.95-1.33,2.95l-.08.18c-.3.65-.59,1.31-.88,1.96-.03.07-.06.14-.1.22-.48,1.06-.95,2.12-1.41,3.2l-.4.92c-.53,1.22-1.09,2.51-1.63,3.81-2.75,6.46-5.43,13.1-8,19.78-.41,1.06-.8,2.09-1.19,3.12l-.63,1.68s-.04.1-.05.15c-.48,1.27-.95,2.54-1.41,3.8l-.16.44c-.13.36-.26.72-.4,1.08-.39,1.1-.79,2.2-1.19,3.3l-.36,1.04c-.17.47-.33.94-.5,1.42-.02.04-.03.08-.04.13-.33.93-.66,1.86-.98,2.8-.55,1.57-1.06,3.06-1.56,4.56-.36,1.05-.7,2.04-1.01,3.03-.02.07-.04.14-.07.21-1.41,4.23-2.79,8.49-4.08,12.65-.49,1.57-.96,3.13-1.43,4.7,0,.01-.03.1-.03.11-.43,1.42-.85,2.83-1.26,4.25-.01.05-.03.09-.04.14-.13.42-.26.86-.37,1.28-.02.06-.03.12-.05.18-.36,1.22-.72,2.44-1.06,3.67-.03.1-.06.2-.09.29l-.05.18c-.04.15-.09.3-.13.45-.36,1.25-.7,2.5-1.05,3.75l-.49,1.77c-.37,1.36-.74,2.71-1.11,4.08-1.4,5.24-2.72,10.37-3.91,15.26l-.02.07c-.41,1.67-.81,3.34-1.21,5.02-.38,1.62-.76,3.26-1.14,4.9-.27,1.16-.52,2.3-.77,3.44l-.15.69s-.02.08-.03.12c-.19.82-.37,1.63-.54,2.45,0,.04-.02.08-.03.12-.27,1.22-.53,2.45-.8,3.68l-.02.1c-.43,2.01-.86,4.03-1.27,6.05-.28,1.36-.56,2.76-.84,4.16-.66,3.29-1.31,6.67-1.99,10.38-.22,1.15-.42,2.25-.61,3.36l-.28,1.52c-.03.17-.06.33-.09.5-.28,1.6-.56,3.2-.83,4.79-.23,1.35-.46,2.65-.67,3.96-.29,1.72-.57,3.42-.83,5.13-.2,1.22-.38,2.38-.56,3.54-.18,1.13-.34,2.17-.49,3.21-.78,5.16-1.53,10.5-2.23,15.92l-.04.28c-.16,1.27-.33,2.52-.48,3.79v.11s-.21,1.56-.21,1.56c-.19,1.52-.38,3.05-.55,4.58,0,.02-.01.09-.01.11-.16,1.39-.33,2.77-.48,4.16-.12,1.04-.23,2.08-.34,3.1-.49,4.48-.96,9.18-1.45,14.43l-.15,1.72c-.11,1.2-.22,2.41-.32,3.61-.18,2.13-.35,4.24-.52,6.35-.15,1.88-.29,3.73-.42,5.58l-.05.72c-.12,1.72-.24,3.44-.35,5.17,0,.2-.02.41-.04.62-.11,1.65-.21,3.29-.31,4.94-.02.4-.04.84-.08,1.27-.11,1.85-.2,3.7-.3,5.55-.47,9.15-.8,18.34-1,27.3-.03.98-.04,1.89-.06,2.8l-.03,1.5c-.03,1.55-.05,3.12-.07,4.7l-.06,6.38c0,1.93-.02,3.86-.02,5.78s0,3.76.02,5.64v.5c.01,1.67.02,3.33.04,5l.06,3.67s0,.07,0,.1c0,1.17.03,2.34.06,3.5.16,8.26.41,16.4.75,24.28.12,2.65.24,5.32.37,7.98,0,.05,0,.11,0,.16v.1c.02.17.03.35.03.52l.05,1.03c.04.69.07,1.38.11,2.07,0,.05,0,.1,0,.15.09,1.7.19,3.41.29,5.11.09,1.55.18,3.02.28,4.49v.19c.14,1.92.27,3.85.41,5.78.13,1.99.28,3.9.43,5.81.14,1.87.29,3.72.44,5.57.15,1.82.31,3.66.46,5.5.12,1.41.25,2.8.38,4.2l.03.31c0,.05,0,.11.01.16.03.42.07.83.11,1.24.02.19.04.39.06.58l.02.2c0,.05.01.12.02.18.16,1.69.31,3.38.49,5.06,1.12,11.35,2.45,22.89,3.96,34.35.24,1.85.48,3.66.74,5.47l.32,2.33c.29,2.09.59,4.24.91,6.37,2.04,13.91,4.34,27.74,6.85,41.12.32,1.71.64,3.4.97,5.09,2.48,12.89,5.21,25.73,8.11,38.19.3,1.31.6,2.56.9,3.82l.04.15c1.23,5.22,2.56,10.61,3.96,16.07.87,3.45,1.76,6.84,2.63,10.12,1.53,5.72,2.99,10.98,4.45,16.11,1.32,4.61,2.66,9.16,3.99,13.53.29.97.57,1.89.85,2.8l1.34,4.35c.3.94.6,1.87.89,2.79,0,.01.03.09.03.1.6,1.93,1.22,3.84,1.84,5.74.62,1.92,1.23,3.77,1.85,5.62.64,1.93,1.27,3.81,1.91,5.68.33.96.63,1.87.95,2.78,1.29,3.74,2.6,7.45,3.9,11.07l.98,2.71c.47,1.29.96,2.6,1.44,3.9l.57,1.54c.32.85.65,1.73.98,2.6,1.33,3.53,2.71,7.09,4.11,10.64l.18.46c.63,1.57,1.25,3.13,1.88,4.68l.33.81c.23.56.45,1.12.68,1.67.02.04.03.08.05.12.66,1.62,1.33,3.24,2,4.84.02.04.03.08.05.12l.65,1.54c.48,1.13.99,2.33,1.49,3.51.38.86.75,1.73,1.12,2.59.63,1.45,1.3,2.96,1.96,4.45l.18.41c1.34,3.02,2.76,6.15,4.36,9.58,1.1,2.36,2.2,4.69,3.31,6.99.38.79.75,1.55,1.12,2.31.27.55.54,1.1.81,1.65l.31.62c.71,1.46,1.41,2.85,2.12,4.24.02.03.03.06.05.1.81,1.61,1.63,3.22,2.45,4.8.32.62.67,1.27,1.02,1.92,1.64,3.14,3.24,6.12,4.79,8.92l.97,1.73c.78,1.42,1.54,2.75,2.3,4.08.79,1.38,1.54,2.69,2.32,4.01.02.04.04.07.07.11.33.57.67,1.14,1.01,1.71,2.46,4.15,4.89,8.09,7.29,11.79.64,1,1.28,1.98,1.92,2.95l.06.1c.48.74.96,1.46,1.44,2.18.25.37.45.67.65.96l.6.88c1.02,1.49,2.09,3.04,3.16,4.55l.08.11.24.33s.06.08.09.12c.5.71.99,1.4,1.5,2.09.03.04.06.08.09.12.63.88,1.26,1.73,1.89,2.58.7.94,1.36,1.83,2.03,2.7.55.73,1.09,1.42,1.62,2.11.08.1.15.2.23.3.07.08.14.17.2.25,1.22,1.56,2.48,3.14,3.86,4.81.66.8,1.3,1.57,1.95,2.33,2,2.35,3.98,4.59,5.92,6.67.68.74,1.33,1.42,1.97,2.1.65.68,1.31,1.36,1.97,2.03.62.63,1.25,1.25,1.86,1.86l.23.23c.59.57,1.18,1.14,1.77,1.69.03.03.06.05.08.08.61.58,1.23,1.15,1.84,1.71.02.02.11.1.12.11.54.5,1.09.99,1.63,1.47.1.08.2.17.3.26.55.49,1.11.97,1.67,1.44.18.16.3.26.42.35.06.05.12.1.18.15.49.41.98.82,1.47,1.21.71.58,1.36,1.09,2,1.59l.1.08c.58.45,1.16.89,1.74,1.32.65.48,1.26.93,1.88,1.36.69.49,1.37.96,2.04,1.41.56.38,1.13.75,1.71,1.12.58.37,1.09.7,1.61,1.01,1.42.87,2.77,1.64,4.1,2.34.54.29,1.01.54,1.47.76l.34.17c.36.18.77.37,1.17.56.17.08.33.16.49.24.08.04.16.07.25.11.46.22.92.42,1.38.62l.17.07s.09.04.13.06c.41.18.83.35,1.25.52Zm-49.22-42s0,0,0,.01c0,0,0,0,0-.01Zm930.13-269.63v.03s0-.02,0-.03Zm0-.02s0,.01,0,.02c0,0,0-.01,0-.02Zm-12.43-1.3h0,0Zm-1065.67-256.8c0,.1,0,.2,0,.29,0-.1,0-.2,0-.29Zm11.31-94.96c0,.06-.01.11-.02.17,0-.06.01-.11.02-.17Zm0-.02s0,.01,0,.02c0,0,0-.01,0-.02Zm923.66-221.97s0,.02,0,.02c0,0,0-.02,0-.02Zm-.02-.07s.02.05.02.07c0-.02-.02-.05-.02-.07Zm-796.04-66.87s0,.01-.01.02c0,0,0-.01.01-.02Zm0,0s0,0,0,0c0,0,0,0,0,0Zm.95-1.09h-.01s0,0,.01,0Zm713.49-78.58l.03.03-.03-.03Zm-.1-.1s.06.06.1.1c-.03-.03-.07-.06-.1-.1Zm24.44-10.71s.01.02.02.02c0,0-.01-.02-.02-.02Zm-3.08-3.23c.28.3.56.64.79.94-.29-.39-.57-.7-.79-.94Zm-.22-.23s.02.02.03.03c-.01-.01-.02-.02-.03-.03Zm-48.17-24.81h0,0Z"/><path fill="#3d066b" d="m1312.61,2437.98c-4.83,0-9.42-2.81-11.47-7.52-1.22-2.82-30.27-70.57-54.49-199.7-14.17-75.57-23.7-156.57-28.33-240.75-5.77-105.13-3.87-215.57,5.66-328.26,13.82-163.49,69.01-283.13,164.03-355.61,69.39-52.93,147.1-69.6,200.06-74.26,57.29-5.04,97.95,2.31,99.65,2.63,6.79,1.26,11.27,7.78,10.01,14.57-1.26,6.79-7.79,11.27-14.56,10.01-.57-.1-39.8-7.1-93.8-2.23-49.5,4.46-122.03,20.11-186.43,69.33-89.03,68.03-140.86,181.64-154.05,337.66-21.3,251.93.28,444.25,22.13,561.22,23.68,126.73,52.76,194.76,53.05,195.44,2.74,6.33-.17,13.69-6.5,16.44-1.62.7-3.31,1.04-4.97,1.04Z"/><path fill="#3d066b" d="m1096.87,1999.8c-6.53,0-12.03-5.08-12.46-11.69-9.83-150.97,1.43-283.18,33.47-392.96,26.74-91.6,68.14-168.52,123.06-228.63,64.46-70.56,136.25-104.99,185.11-121.45,53.21-17.92,90.99-19.06,92.57-19.1,6.88-.18,12.64,5.28,12.81,12.18.17,6.9-5.28,12.63-12.18,12.81-.82.03-36.74,1.31-86.36,18.19-45.89,15.61-113.32,48.18-173.92,114.69-116.97,128.38-167.31,331.14-149.62,602.65.45,6.89-4.77,12.84-11.66,13.29-.28.02-.55.03-.83.03Z"/><path fill="#3d066b" d="m1451.47,2449.45c-25.53,0-50.95-1.1-75.92-3.31-5.62-.5-10.21-4.7-11.21-10.25l-33.37-186.69-.14-.77-5.69-31.82c-.02-.1-.03-.19-.05-.29l-36.97-206.8c-2.09-11.64-2.42-23.5-.99-35.24,1.18-10.03,3.69-19.94,7.43-29.42,2.16-5.46,4.74-10.78,7.68-15.82.05-.09.1-.19.16-.28h0c6.84-11.74,15.61-22.1,26.08-30.81,30.03-24.99,73.29-46.12,128.57-62.81,69.03-20.84,157.28-34.83,262.29-41.6,55.61-3.58,116.71-5.18,181.63-4.75,2.93.02,5.76,1.07,8,2.96,4.15,3.51,8.24,7.11,12.14,10.69,1.26,1.15,2.53,2.33,3.78,3.51l.08.07c1.32,1.25,2.58,2.45,3.82,3.66,1.23,1.18,2.47,2.4,3.71,3.63l.62.62c.42.42.85.84,1.26,1.26,1.93,1.94,3.88,3.94,5.74,5.91.11.11.21.21.32.33l.99,1.05c30.72,32.67,53.57,69.1,67.93,108.29,12.81,34.96,19.09,72.67,18.64,112.09,0,1.21-.03,2.42-.06,3.63-.02,1.04-.05,2.18-.08,3.33,0,.08,0,.16,0,.24,0,.04,0,.08,0,.12-.04,1.24-.09,2.47-.14,3.71-.02.5-.04,1.03-.07,1.56-.05,1.34-.12,2.66-.2,4-.03.64-.07,1.28-.11,1.93-.07,1.08-.14,2.2-.23,3.32-.14,2.08-.32,4.32-.55,6.79-.07.77-.14,1.61-.22,2.45-.06.7-.14,1.41-.21,2.11-.1,1.07-.23,2.23-.35,3.38l-.06.55c-.13,1.13-.25,2.2-.38,3.26-.09.79-.18,1.58-.29,2.35-.18,1.49-.38,2.96-.58,4.43l-.37,2.58c-.5,3.46-1.05,6.96-1.64,10.45l-.07.42c-.12.72-.24,1.44-.37,2.16-.14.79-.28,1.57-.42,2.36l-.06.32c-.22,1.18-.43,2.34-.66,3.51-.54,2.8-1.14,5.81-1.86,9.17l-.49,2.25c-.05.23-.1.46-.16.69-.13.58-.26,1.17-.39,1.76-.32,1.44-.66,2.93-1.02,4.42-.17.76-.36,1.51-.54,2.26l-.05.19c-1.87,7.76-3.99,15.62-6.29,23.35-.25.87-.54,1.82-.83,2.77l-.14.47c-1.61,5.34-3.39,10.87-5.29,16.45-.27.82-.58,1.71-.89,2.61-.73,2.11-1.46,4.17-2.19,6.22l-.3.83c-.25.69-.5,1.38-.75,2.05-1.39,3.77-2.7,7.22-4.01,10.57-.37.96-.78,1.99-1.18,3.02-.46,1.18-.94,2.39-1.44,3.59-.51,1.27-1.02,2.53-1.53,3.78-.35.86-.72,1.73-1.09,2.6l-.41.99c-1.02,2.42-2.03,4.79-3.05,7.13-2.54,5.82-5.29,11.84-8.17,17.89-.34.74-.73,1.53-1.12,2.33-.51,1.08-1.04,2.16-1.56,3.23l-.35.71c-.41.83-.81,1.65-1.22,2.47-25.74,51.92-69.55,93.38-123.32,116.71-120.64,52.33-242.71,81.38-362.81,86.35-12.31.51-24.62.77-36.91.77Zm-64.21-27.43c32.9,2.51,66.52,3.08,100.08,1.68,117.02-4.85,236.09-33.21,353.9-84.31,48.36-20.98,87.75-58.25,110.89-104.92.4-.79.77-1.55,1.14-2.31l.36-.73c.49-1,.98-2,1.46-3.01.02-.03.03-.07.05-.1.34-.7.68-1.4,1.01-2.11,2.8-5.89,5.44-11.66,7.87-17.22.98-2.24,1.95-4.51,2.92-6.81l.42-.99c.34-.81.69-1.63,1.03-2.46.5-1.21.98-2.4,1.46-3.6.02-.06.05-.12.07-.17.45-1.07.87-2.15,1.3-3.24.39-.98.76-1.93,1.13-2.87,1.28-3.26,2.53-6.55,3.84-10.14.23-.62.46-1.27.7-1.92l.3-.84c.7-1.93,1.39-3.89,2.07-5.87,0-.01.03-.09.04-.1.27-.79.55-1.57.81-2.37,1.83-5.38,3.52-10.63,5.05-15.69l.14-.48c.26-.85.51-1.7.76-2.56,2.2-7.4,4.2-14.84,5.98-22.2l.05-.22c.16-.66.32-1.31.47-1.98.01-.05.03-.11.04-.17.33-1.38.65-2.78.96-4.18.14-.59.25-1.11.36-1.63l.08-.37c.03-.14.06-.28.1-.42l.41-1.9c.68-3.21,1.26-6.05,1.76-8.7.22-1.13.42-2.23.62-3.33l.06-.33c.13-.71.26-1.41.38-2.12,0-.04.01-.08.02-.11.12-.64.22-1.28.33-1.92l.08-.44c.56-3.29,1.08-6.58,1.54-9.8l.35-2.49c.19-1.36.37-2.74.54-4.14,0-.07.02-.14.03-.2.08-.6.16-1.2.22-1.81l.02-.17c.12-1.01.24-2.02.36-3.04l.06-.54c.11-1,.22-2.07.33-3.14,0-.04,0-.07.01-.11.06-.61.13-1.19.18-1.78,0-.04,0-.07,0-.11.07-.76.14-1.5.21-2.26.21-2.34.38-4.4.51-6.35.08-1.12.15-2.16.22-3.19.04-.57.06-1.09.09-1.61,0-.04,0-.08,0-.12.07-1.22.14-2.42.19-3.64,0-.09,0-.17.01-.26.02-.41.04-.82.06-1.23.05-1.14.09-2.25.13-3.36,0-.18,0-.38.02-.6.03-1,.05-1.99.07-2.97.03-1.16.05-2.23.06-3.29,0-.01,0-.02,0-.03.41-36.38-5.35-71.12-17.12-103.23-13.19-36-34.27-69.57-62.66-99.76l-.67-.72c-.1-.1-.2-.2-.3-.3-1.81-1.91-3.71-3.87-5.65-5.82-.4-.4-.75-.76-1.11-1.11l-.64-.64c-1.1-1.09-2.24-2.22-3.41-3.34-1.21-1.17-2.4-2.31-3.6-3.44l-.04-.03c-1.18-1.1-2.36-2.21-3.57-3.31-2.6-2.38-5.28-4.77-8.01-7.13-62.63-.32-121.57,1.27-175.29,4.73-231.03,14.88-332.25,61.87-376.48,98.67-8.15,6.78-14.99,14.84-20.33,23.95-.06.11-.12.21-.18.32-2.35,4-4.41,8.24-6.13,12.6-2.96,7.47-4.93,15.28-5.86,23.21-1.13,9.3-.87,18.66.78,27.86l37.02,207.07c.02.1.03.2.05.29l37.46,209.54Zm640.52-371.25s0,.04,0,.06c0-.02,0-.04,0-.06Zm-12.43-1.29h0,0Z"/><path fill="#3d066b" d="m1432.88,2034.8c-2.18,0-4.33-.57-6.23-1.66l-126.69-72.84c-5.99-3.44-8.05-11.08-4.61-17.07,3.44-5.98,11.08-8.05,17.07-4.61l122.89,70.66,560.4-86.56c6.81-1.05,13.21,3.62,14.26,10.45,1.05,6.82-3.62,13.21-10.45,14.26l-564.74,87.23c-.63.1-1.27.15-1.91.15Z"/><path fill="#3d066b" d="m1487.85,2448.69c-6.17,0-11.54-4.57-12.38-10.85l-54.98-413.89c-.91-6.84,3.9-13.13,10.75-14.04,6.85-.91,13.13,3.9,14.04,10.75l54.98,413.89c.91,6.84-3.9,13.13-10.75,14.04-.56.07-1.11.11-1.66.11Z"/><path fill="#ea1b1b" d="m1402.68,1545.11l7.31,96.19c1.58,20.83,20.01,36.27,40.8,34.17l271.25-27.34c19.78-1.99,34.49-19.2,33.39-39.05l-5.08-91.57c-1.16-20.9-19.34-36.72-40.2-34.99l-273.48,22.71c-20.36,1.69-35.54,19.5-33.99,39.87Z"/><path fill="#3d066b" d="m1753.16,1568.1c-4.8,12.9-16.59,22.57-31.12,24.04l-271.25,27.34c-20.79,2.1-39.22-13.34-40.8-34.17l-4.39-57.71c-2.31,5.35-3.4,11.31-2.93,17.52l7.31,96.19c1.58,20.83,20.01,36.27,40.8,34.17l271.25-27.34c19.78-1.99,34.49-19.2,33.39-39.05l-2.28-40.99Z" opacity=".25"/><path fill="#3d066b" d="m1446.95,1688.17c-11.62,0-22.75-4.03-31.79-11.6-10.35-8.67-16.61-20.86-17.64-34.32l-7.31-96.19c-2.06-27.12,18.31-51.02,45.42-53.27l273.48-22.71c13.48-1.12,26.52,3.15,36.73,12.04s16.24,21.21,16.99,34.72l5.08,91.57c1.48,26.59-18.12,49.51-44.62,52.18l-271.25,27.34c-1.7.17-3.4.26-5.09.26Zm266.33-193.27c-.69,0-1.39.03-2.09.09l-273.48,22.71c-13.47,1.12-23.59,12.99-22.56,26.46l7.31,96.19c.51,6.69,3.62,12.74,8.76,17.05,5.14,4.31,11.65,6.31,18.32,5.63l271.25-27.34c13.16-1.33,22.9-12.71,22.17-25.92l-5.08-91.57c-.37-6.71-3.37-12.83-8.44-17.25-4.54-3.95-10.21-6.07-16.15-6.07Z"/><path fill="#3d066b" d="m1179.04,2015.23c-63.7,0-114.28-11.57-148.07-22.63-46.84-15.33-72.4-32.84-73.46-33.58-5.67-3.93-7.09-11.72-3.15-17.39,3.93-5.67,11.71-7.08,17.38-3.16.56.38,24.64,16.65,68.08,30.73,40.31,13.07,106.06,26.88,190.36,18.47,6.87-.69,12.99,4.33,13.68,11.2.68,6.87-4.33,12.99-11.2,13.68-18.76,1.87-36.66,2.69-53.63,2.69Z"/><path fill="#3d066b" d="m1444.64,1948.74c103.5-61.42,260.04-84.25,379.07-74.3,13.45,1.11,26.84,2.68,40.17,4.86-13.38,1.98-26.66,3.33-40.02,4.93-127.68,13.75-254.88,31.66-379.22,64.51h0Z"/><path fill="#3d066b" d="m2006.22,2120.79c-10,45.44-26.67,86.52-42.89,119.23-24.62,49.65-66.27,88.78-117.12,110.84-187.22,81.2-349.05,93.45-469.56,82.83-142.97-12.61-227.77-57.39-227.77-57.39-54.35-15.31-112.3-110.6-149.42-240.19,51.75,61.96,136.31,124.32,263.88,114.86,0,0-47.86-240.17-31.91-284.67,0,0,35.25,20.4,68.1,9.45l37.92,238.66s45.14,86.3,128.04,53.35c0,0,433.55,38,540.73-146.97Z" opacity=".25"/></g><path fill="#3d066b" d="m1040.26,2674.38c-5.09,0-9.86-3.13-11.72-8.17-5.01-13.54-7.25-22.58-7.82-25.03-1.51-6.52,2.38-13.09,8.84-14.88,6.45-1.79,13.17,1.82,15.23,8.19.16.51,1.43,4.55,4.53,14.47l2.87,9.18c2.02,6.47-1.48,13.38-7.89,15.56-1.34.46-2.7.67-4.04.67Z"/><path fill="#f7a528" d="m1787.39,2339.53h0c-160.15,680.04-730.51,314.5-753.78,299.25-.42-.27-.66-.43-.72-.47v.03s-.01-.04-.01-.04c0,0,53,431-222,431-101.5,0-173.57-99.44-222.91-234.32-52.49-143.51-79.24-327.13-88.31-473.79-5.5-88.97-4.5-164.34,1.22-208.89l157-53.83s124.33,154.06,362.17,100.44c0,0,29.37,92.31,87.36,150.84,1.9,1.91,3.82,3.78,5.78,5.62.38.36.75.71,1.13,1.06,0,0,166.52-61.19,373.54-6.16,207.02,55.03,279.02-82.97,279.02-82.97,0,0,1.26,3.37,3.32,9.61,3.89,11.77,10.65,33.77,17.19,62.62Z"/><path fill="#fff" d="m1770.2,2276.91c-11.98,32.82-43.37,80.62-125.61,109.93-134.79,48.04-244.21-26.04-386.14-30.41-139.78-4.31-202.23,59.07-204.09,60.99l53.05-67.67c1.9,1.91,3.82,3.78,5.78,5.62.38.36.75.71,1.13,1.06,0,0,166.52-61.19,373.54-6.16,207.02,55.03,279.02-82.97,279.02-82.97,0,0,1.26,3.37,3.32,9.61Z" opacity=".5"/><path fill="#3d066b" d="m1113.19,2355.37l-33.59,28.31c-328.94-162.74-498.83-95.59-579.94-22.49-5.5-88.97-4.5-164.34,1.22-208.89l157-53.83s124.33,154.06,362.17,100.44c0,0,31.32,98.44,93.14,156.46Z" opacity=".25"/><path fill="#3d066b" d="m810.88,3081.8c-51.81,0-99.19-23.99-140.82-71.31-91.43-103.92-137.77-298.5-160.54-443.44-26.91-171.27-30.95-339.09-21.03-416.34.61-4.72,3.84-8.69,8.34-10.23l157-53.83c4.97-1.71,10.48-.12,13.78,3.97.29.36,30.82,37.46,89,67.64,77.77,40.35,165.48,49.92,260.69,28.45,6.33-1.42,12.7,2.22,14.66,8.4.3.93,29.65,91.52,85.55,147.05,15.08-4.81,52.02-15.33,104.4-21.86,62.69-7.82,160.28-11.06,269.16,17.88,81.2,21.58,152.88,14.9,207.27-19.35,40.55-25.53,57.29-57.01,57.46-57.33,2.28-4.38,6.93-6.99,11.85-6.69,4.93.3,9.21,3.48,10.94,8.1.44,1.18,10.91,29.4,20.99,73.84.21.91.31,1.83.31,2.76h0c0,.97-.11,1.94-.33,2.88-49.26,209.17-142.2,342.04-276.24,394.92-52.54,20.73-111.4,28.95-174.98,24.43-50.52-3.59-104.12-15.19-159.31-34.49-63.47-22.19-114.29-49.37-141.47-65.27,1.76,25.47,3.38,67.86-.14,116.46-3.3,45.67-10.5,87.28-21.39,123.65-13.8,46.12-33.65,84.04-58.99,112.68-39.33,44.46-91.87,67.01-156.16,67.01Zm-298.51-920.23c-8.49,78.59-3.84,238.17,21.84,401.6,22.26,141.66,67.15,331.4,154.61,430.8,36.68,41.69,77.74,62.82,122.06,62.82,56.8,0,103.02-19.7,137.4-58.54,52.26-59.05,69.18-152.84,74.16-221.12,5.48-75.09-1.89-136.7-1.97-137.31h0c-.06-.51-.09-1.02-.09-1.52,0-6.61,5.14-12.07,11.74-12.48,2.93-.17,5.67.66,7.91,2.22,4.75,3.14,67.81,44.35,157.25,75.62,83.02,29.02,205.38,54.39,316.87,10.4,125.38-49.47,212.99-175.5,260.42-374.58-4.14-17.91-8.33-33.04-11.76-44.44-10.67,13.07-27.33,29.97-51.14,44.96-26.96,16.97-57.61,28.04-91.08,32.89-41.34,5.99-87.08,2.45-135.94-10.54-104.66-27.82-198.51-24.78-258.83-17.33-65.54,8.09-106.79,23-107.2,23.15-4.4,1.61-9.35.62-12.79-2.56-52.67-48.72-83.74-124.22-93.97-152.16-51.95,10.5-102.57,12.11-150.63,4.75-41.27-6.32-80.72-19.21-117.25-38.32-47.91-25.06-77.96-54.03-89.93-66.88l-141.68,48.58Z"/><path fill="#3d066b" d="m1119.84,2367.64c-10.55,3.91-20.3,10.16-29.39,16.82-1.74,1.21-5.89,4.67-7.61,6.03-.89.79-5.3,4.71-6.09,5.42-2.63,2.65-5.61,5.38-8.08,8.17-7.51,8.09-14.45,17.04-20.22,26.46,0,0-3.56,5.76-3.56,5.76,1.04-3.1,2.75-8.27,3.79-11.28,3.47-8.95,7.59-18.11,12.42-26.47,1.88-3.49,4.3-7.04,6.38-10.42.63-.89,4.33-6.17,5.05-7.19.8-1.02,4.71-6.07,5.43-6.98,2.64-3.09,5.44-6.42,8.27-9.33,7.88-8.21,16.48-16.18,26.56-21.75,6.33-3.71,14.48-1.59,18.2,4.74,5.17,8.57-1.19,19.9-11.13,20.02h0Z"/><g><path fill="#f7a528" d="m978.22,1789.04c-6.05,152.13,12.66,297.26,12.66,297.26-158,125-274-41-274-41-155,157-330,197-495,11-32.2-36.3-45.48-77.83-45.2-121.61.61-95.39,65.63-201.41,139.73-287.04,59.75-69.06,125.4-124.87,167.93-151.14,101.61-62.77,162.1,64.11,177.89,103.4.64,1.6,1.21,3.04,1.7,4.33,1.64,4.29,2.47,6.77,2.47,6.77,218.53-238.29,342.48-30.71,342.48-30.71-4.43,14.13-8.3,28.98-11.67,44.39-11.16,51.11-16.76,108.21-18.99,164.35Z"/><path fill="#fff" d="m1008.88,1580.3c-4.43,14.13-8.3,28.98-11.67,44.39-25.3-30.27-65.26-62.4-123.52-69-114.82-13.01-393.99,261.06-398.24,265.24l186.78-221.02c.64,1.6,1.21,3.04,1.7,4.33,1.64,4.29,2.47,6.77,2.47,6.77,218.53-238.29,342.48-30.71,342.48-30.71Z" opacity=".5"/><path fill="#3d066b" d="m990.88,2086.3c-158,125-274-41-274-41-155,157-330,197-495,11-32.2-36.3-45.48-77.83-45.2-121.61,39.38,74.56,129.46,193.03,291.15,150.6,226.43-59.41,343.34-358.54,510.39-296.25-6.05,152.13,12.66,297.26,12.66,297.26Z" opacity=".25"/><path fill="#fff" d="m663.93,1604.24l-143.04,161.14c-4.24.78-8.42,1.41-12.54,1.87-94.19,10.82-155.96-57.71-191.94-119.6,59.75-69.06,125.4-124.87,167.93-151.14,1.96-1.21,3.9-2.35,5.83-3.42,102.15-56.74,161.33,78.73,173.76,111.15Z"/><path fill="#3d066b" d="m663.93,1604.24l-143.04,161.14c-4.24.78-8.42,1.41-12.54,1.87,47.61-83.8,102.87-221.13-18.18-258.93v-15.23c102.15-56.74,161.33,78.73,173.76,111.15Z" opacity=".25"/><path fill="#3d066b" d="m454.72,2192.63c-2.28,0-4.53-.03-6.81-.09-82.84-2.21-162.03-45.26-235.38-127.95-39.72-44.78-55.09-99.97-45.68-164.04,13.9-94.56,78.87-188.33,130.94-250.34,68.45-81.52,139.73-139.48,179.98-164.34,31.78-19.63,62.98-24.11,92.74-13.31,53.3,19.35,86.55,83.16,100.38,115.5,73.49-75.38,144.76-110.09,212.04-103.21,87.94,8.99,134.74,85.77,136.69,89.04,1.83,3.06,2.26,6.75,1.19,10.15-23.7,75.51-34.27,185.87-30.56,319.15,2.81,101.24,12.93,180.72,13.03,181.51.56,4.35-1.2,8.68-4.64,11.4-49.26,38.98-99.87,54.98-150.41,47.55-66.47-9.76-113.59-57.22-132.49-79.59-87.46,85.35-175.2,128.56-261.02,128.57Zm83.6-700.8c-15.17,0-30.86,5.09-47.42,15.32-41.73,25.77-111.7,84.98-173.97,159.15-49.98,59.53-112.3,149.13-125.35,237.9-8.29,56.42,5.05,104.81,39.65,143.81,68.58,77.31,141.7,117.53,217.35,119.54,84.08,2.25,171.35-41.84,259.41-131.03,2.61-2.64,6.25-3.99,9.95-3.67,3.7.31,7.06,2.25,9.19,5.29.48.68,49.89,69.89,124.91,80.81,41.57,6.05,83.79-6.8,125.58-38.21-2.54-21.91-9.99-91.73-12.36-176.59-3.76-134.79,6.31-243.04,29.94-321.88-4.47-6.42-13.95-18.89-28.01-31.67-26.38-23.98-55.67-37.74-87.06-40.9-63.1-6.33-131.91,30.59-204.52,109.76-2.99,3.27-7.49,4.7-11.83,3.78-4.33-.93-7.85-4.08-9.25-8.28-.32-.96-33.11-97.35-92.61-118.9-7.76-2.81-15.62-4.22-23.61-4.22Z"/><path fill="#3d066b" d="m675.48,1620.37c-47.53,46.95-97.24,95.99-143,144.47-28.13,29.4-55.6,59.87-82.6,90.46,30.84-53.31,69.11-102.31,109.22-148.9,31.43-36.25,64.12-71.37,99.18-104.17,12.39-10.61,28.5,6.23,17.2,18.15h0Z"/><path fill="#3d066b" d="m707.29,2037.28l141.59-149.99-122.41,166.01c-4.1,5.57-11.94,6.75-17.51,2.65-6.03-4.38-6.82-13.29-1.67-18.68h0Z"/><path fill="#3d066b" d="m502.9,1790.8c-.56,0-1.12-.04-1.69-.12-82.36-11.15-130.64-48.97-156.64-78.74-28.48-32.61-37.17-62.72-37.52-63.99-1.87-6.65,2-13.55,8.65-15.42,6.63-1.86,13.52,1.99,15.41,8.62.13.43,8.01,26.92,33.13,55.29,33.69,38.05,80.9,61.43,140.33,69.47,6.84.93,11.64,7.22,10.71,14.06-.85,6.27-6.21,10.83-12.37,10.83Z"/></g><path fill="#fff" d="m1802.77,2542.11c-14.03,144.18-93.74,297.43-358.13,329.13-287.12,34.43-380.09-143.59-404.37-209.32-.01-.02-.01-.03-.01-.04-4.21-13.44-6.88-21.98-7.31-23.37-.03-.08-.05-.14-.06-.17v-.03s.03.03.06.04h.01c8.02,5.33,592.06,390.66,754.43-298.81,11.76,51.89,22.85,125.95,15.38,202.57Z"/><path fill="#3d066b" d="m1374.36,2888.09c-40.65,0-78.72-4.57-113.76-13.69-46.67-12.15-88.52-32.47-124.39-60.4-64.85-50.5-95.29-114.25-107.67-147.75h0c-.1-.27-.19-.54-.27-.81l-2.82-9.01c-2.68-8.56-4.28-13.69-4.46-14.25-.4-1.24-.6-2.54-.6-3.84,0-4.61,2.54-8.86,6.6-11.04,4.06-2.17,9-1.95,12.83.6,2.67,1.78,66.38,43.92,157.45,75.76,83.02,29.02,205.38,54.39,316.87,10.4,125.97-49.7,213.81-176.67,261.08-377.39,1.33-5.65,6.37-9.63,12.17-9.63h.05c5.82.02,10.85,4.06,12.14,9.74,9.93,43.82,21.02,111.04,17.41,182.42-4.13,81.75-26.28,151.64-65.83,207.71-61.43,87.1-164.08,139.84-305.04,156.74h0c-24.7,2.96-48.65,4.44-71.77,4.44Zm-318.89-221.53c30.47,75.14,124.8,223.8,387.68,192.27h0c133.65-16.03,230.41-65.26,287.59-146.33,69.18-98.09,68.09-225.43,54.62-316.03-51.94,178.13-139.94,292.68-262.04,340.85-52.54,20.73-111.4,28.95-174.98,24.43-50.52-3.59-104.12-15.19-159.31-34.49-57.75-20.19-105.02-44.51-133.55-60.71Z"/><path fill="#3d066b" d="m523.8,3256.47c-13.61-43.1-18.44-97.25,1.35-139.02,2.87-5.97,6.33-11.6,10.12-16.91-2.9,5.86-5.37,11.86-7.2,18.04-8.95,30.68-4.64,63.57,4.76,93.58,3.54,11.15,7.77,22.06,12.94,32.51.32.63.7,1.38.96,1.82,3.53,5.99,1.53,13.7-4.45,17.23-6.91,4.19-16.21.47-18.47-7.25h0Z"/><ellipse cx="174.57" cy="1212.12" fill="#3d066b" rx="61" ry="76.04" transform="rotate(-17.67 174.671 1212.42)"/><ellipse cx="73.38" cy="1171.57" fill="#3d066b" rx="33.35" ry="41.57" transform="rotate(-17.67 73.445 1171.845)"/><ellipse cx="120.38" cy="1088.57" fill="#3d066b" rx="33.35" ry="41.57" transform="rotate(-17.67 120.449 1088.815)"/><ellipse cx="214.38" cy="1095.57" fill="#3d066b" rx="33.35" ry="41.57" transform="rotate(-17.67 214.473 1095.82)"/><path fill="#3d066b" d="m810.88,3069.3c-101.5,0-173.57-99.44-222.91-234.32,3.07-3.8,4.81-5.93,4.81-5.93,0,0,125.6,200.75,273.6,129.75s166.51-327.87,166.51-327.87l.72,7.85c-.42-.27-.66-.43-.72-.47v.03s-.01-.04-.01-.04c0,0,53,431-222,431Z" opacity=".25"/><path fill="#3d066b" d="m1032.89,2630.93s.02,2.63.06,7.42c-.03-.01-.04-.03-.06-.04h-.01s.01-7.38.01-7.38Z" opacity=".25"/><path fill="#3d066b" d="m1802.77,2542.11c-14.03,144.18-93.74,297.43-358.13,329.13-287.12,34.43-380.09-143.59-404.37-209.32-.01-.02-.01-.03-.01-.04-4.21-13.44-6.88-21.98-7.31-23.37v-.16h.01c6.59,5.24,418.53,329.22,769.81-96.24Z" opacity=".25"/></svg>