<svg xmlns="http://www.w3.org/2000/svg" enable-background="new 0 0 4680 3120" viewBox="0 0 4680 3120"><path fill="none" d="m2620.491 389.965-.011.01"/><linearGradient id="a" x1="2340" x2="2340" y1="743.648" y2="1908.327" gradientUnits="userSpaceOnUse"><stop offset="0" stop-color="#e1f3ff"/><stop offset="1" stop-color="#bbddf9"/></linearGradient><path fill="url(#a)" d="M1734.067 546.93c-740.72 274.71-1165.039 982.01-605.542 1122.695s1138.51-335.413 1361.384-62.027 1312.42 542.481 1318.309-301.744S2504.513 261.196 1734.067 546.93z"/><path fill="#fff" d="M2195.405 1412.114c42.313 18.668 6.929 63.431-59.7 49.572-66.629-13.859-271.314 25.053-284.64 5.33s55.436-53.303 93.814-35.713c38.378 17.59-2.665-18.656 25.586-23.453 28.251-4.797 46.907 21.321 50.105 5.33 3.198-15.991-58.101-132.725 18.656-155.113 76.757-22.387 97.545 91.149 91.149 131.66-6.396 40.511 28.784 6.396 65.03 22.387z"/><linearGradient id="b" x1="1995.559" x2="2797.895" y1="2644.474" y2="2644.474" gradientUnits="userSpaceOnUse"><stop offset="0" stop-color="#e1f3ff"/><stop offset="1" stop-color="#bbddf9"/></linearGradient><path fill="url(#b)" d="M1356.37 2787.207c619.656 134.105 1885.972 102.343 1881.126-93.814-4.846-196.156-535.037 55.436-517.269-115.135 17.768-170.571-111.951-220.017-477.783-63.102-365.833 156.916-1457.487 148.387-886.074 272.051z"/><path fill="#001f44" d="m2343.22 1722.567-138.882-70.233-105.208-348.319-368.982-442.021 4.91-4.099 359.348 430.479-151.926-502.998 6.122-1.849 156.275 517.391 216.466 259.314-83.96-1247.694h164.225l28.866 1289.131 58.898 9.725 57.101-19.156 26.327-58.977 112.466-753.503 191.434 88.398-297.704 666.913-14.217 95.26-74.881-12.365-100.54 33.729-59.691-71.508 13.553 142.382zm-133.552-74.704 126.085 63.76-13.338-140.125-212.814-254.94 100.067 331.305zm118.927-78.943 62.875 75.32 84.95-28.5-52.219-8.623-.063-2.649-28.783-1285.533h-150.94l84.18 1249.985zm174.254 44.7 56.562 9.34 9.87-66.124-18.111 40.574-48.321 16.21zm187.484-824.477-107.819 722.352 285.769-640.179-177.95-82.173z"/><path fill="#001f44" d="M2460.365 1936.871c98.441-1.066 182.66-11.727 161.339-97.012-21.321-85.286-19.189-186.562-21.321-203.619-2.132-17.057-60.66-30.916-79.902-10.661-19.243 20.255-60.116 311.292-60.116 311.292z"/><linearGradient id="c" x1="2665.731" x2="2513.732" y1="602.829" y2="550.829" gradientUnits="userSpaceOnUse"><stop offset="0" stop-color="#ffa608"/><stop offset="1" stop-color="#ffbf0d"/></linearGradient><path fill="url(#c)" d="m2856.578 349.897-262.593 487.856c-3.559-7.097-28.788 17.419-73.204 24.516-44.416 7.097-120.823-29.844-133.615-37.308l57.036-118.72c16.448 8.122 26.124 20.105 26.124 20.105l3.203-29.316c3.182-29.316 37.05-32.789 37.05-32.789 43.155-5.048 70.615 42.141 64.759 21.065-5.867-21.065 7.453-46.908 7.453-46.908-8.252-.809-24.236-21.583-20.784-32.52 36.952-52.765 77.291-55.968 77.291-55.968-2.405-19.436-33.846-12.253-38.905-23.19-5.08-10.915 13.59-9.6 11.713-31.43-1.866-21.874-16.793 2.136-27.709 5.328-10.915 3.203 1.877-34.105 4.509-42.637 2.513-7.96-13.59-6.191-28.529 6.439l67.606-140.734.011-.011c16.675-2.028 48.428-26.922 155.058-1.898 28.548 6.699 52.871 16.633 73.526 28.12z"/><linearGradient id="d" x1="2844.956" x2="2720.957" y1="642.369" y2="604.369" gradientUnits="userSpaceOnUse"><stop offset="0" stop-color="#ffa608"/><stop offset="1" stop-color="#ffbf0d"/></linearGradient><path fill="url(#d)" d="M2964.447 456.634 2784.28 864.945c-1.596-6.407-36.079 30.373-100.385 21.485-64.327-8.877-86.341-41.58-89.911-48.677l262.593-487.856c71.382 39.681 99.188 98.054 107.87 106.737z"/><linearGradient id="e" x1="2993.896" x2="2909.896" y1="713.164" y2="675.164" gradientUnits="userSpaceOnUse"><stop offset="0" stop-color="#ffa608"/><stop offset="1" stop-color="#ffbf0d"/></linearGradient><path fill="url(#e)" d="M3076.923 627.741c-1.079 25.584-101.819 277.705-173.782 294.228-71.963 16.524-117.253-50.64-118.86-57.025l180.167-408.311c11.196 11.196 41.58-18.649 119.389 26.652 77.83 45.312-5.858 118.861-6.914 144.456z"/><linearGradient id="f" x1="2462.109" x2="2262.109" y1="783.368" y2="769.368" gradientUnits="userSpaceOnUse"><stop offset="0" stop-color="#ffa608"/><stop offset="1" stop-color="#ffbf0d"/></linearGradient><path fill="url(#f)" d="m2444.201 706.241-57.036 118.72c-12.792-7.464-31.98 22.391-75.684 26.652-43.705 4.271-105.54-10.656-112.173-21.324l34.191-104.677c39.153-14.831 68.803 8.338 73.182 26.329 4.8 19.717 14.388 2.664 18.649-14.388 4.271-17.063 45.84-35.194 83.159-38.387 13.87-1.187 25.983 2.265 35.712 7.075z"/><linearGradient id="g" x1="2491.23" x2="2291.23" y1="367.351" y2="353.351" gradientUnits="userSpaceOnUse"><stop offset="0" stop-color="#ffa608"/><stop offset="1" stop-color="#ffbf0d"/></linearGradient><path fill="url(#g)" d="m2627.982 323.687-67.606 140.734a59.19 59.19 0 0 0-3.171 2.869c-15.715 15.208-16.772 5.609-16.772 5.609s-6.957-25.584-28.529-45.581c-21.583-19.997-43.963-10.915-47.717-7.712-3.711 3.193-17.851-36.812-31.441-29.855-13.59 6.903-11.832 25.811-30.654 33.307-16.589 6.59-21.938 6.461-22.984 6.353-.076-.022-.13-.022-.173-.022-.021-.032-.033-.032-.033-.032s-24.656 19.943-32.778 21.669c-6.418 1.38-14.863-2.243-22.521-1.241l63.561-194.588c112.227 13.924 217.735 55.914 232.403 66.581 2.536 1.844 5.179 2.297 8.415 1.909z"/><linearGradient id="h" x1="2316.714" x2="2046.714" y1="578.972" y2="526.972" gradientUnits="userSpaceOnUse"><stop offset="0" stop-color="#ffa608"/><stop offset="1" stop-color="#ffbf0d"/></linearGradient><path fill="url(#h)" d="m2387.165 255.197-63.561 194.588c-2.017.248-3.99.841-5.856 1.92-8.931 5.199-24.797 13.18-31.193 11.207-6.396-2.017-13.094-16.395-32.109-11.973-19.016 4.454-14.928-12.253-27.547-15.456-12.598-3.193-26.124 3.732-27.525 14.928-1.435 11.196 20.255 12.08 15.618 21.507-4.617 9.405-1.219 23.632 3.376 28.604 4.627 4.983-13.126 3.732-13.493 12.08-.367 8.359 15.628 2.837 10.656 14.928-4.821 11.746-8.327 22.812-8.51 23.427l-.022.022s-16.114-2.125-23.847-5.587c-7.723-3.473-45.614-2.761-54.501-1.704-8.898 1.068 5.695 5.167 5.328 13.86-.366 8.726-12.619 3.915-28.615 10.139-15.985 6.223 2.135 23.632 15.111 23.977 12.975.367 14.572 19.016 21.669 26.479 7.119 7.464 25.045-1.435 27.191 4.627 2.125 6.04 29.5-.367 28.205 8.877-1.273 9.243 26.674 21.55 26.35 27.547-.345 5.986-39.984 24.516-49.4 26.641-9.427 2.136-2.135 3.042 11.185 6.04 13.331 3.02 5.879 4.099 7.464 15.122 1.607 10.991-6.558 17.754-5.856 29.316.701 11.53 34.277-3.204 34.644-5.328 3.937-2.168 7.799-3.948 11.574-5.372L2199.31 830.29c-6.644-10.656-14.69 8.532-63.734 28.788-49.033 20.256-136.453-3.193-147.109-10.656l148.532-544.407c11.368-11.39 108.021-61.825 228.143-51.168a649.491 649.491 0 0 1 22.023 2.35z"/><linearGradient id="i" x1="2007.727" x2="1771.727" y1="577.109" y2="571.109" gradientUnits="userSpaceOnUse"><stop offset="0" stop-color="#ffa608"/><stop offset="1" stop-color="#ffbf0d"/></linearGradient><path fill="url(#i)" d="m2136.997 304.014-148.532 544.407c-10.667-7.464-17.063 20.256-62.903 25.584-45.84 5.328-108.744 2.125-122.593-4.271l-12.792-497.855c11.714-2.135 20.246-59.689 155.63-89.544 135.405-29.845 179.811 33.047 191.19 21.679z"/><linearGradient id="j" x1="1763.298" x2="1401.299" y1="643.142" y2="655.142" gradientUnits="userSpaceOnUse"><stop offset="0" stop-color="#ffa608"/><stop offset="1" stop-color="#ffbf0d"/></linearGradient><path fill="url(#j)" d="M1802.969 869.734c-13.871-6.396-24.527 42.647-103.415 45.851-78.888 3.193-137.52 1.057-137.52-75.696 0-76.752 21.323-311.291 19.188-373.127 3.095-91.249 197.219-92.748 208.954-94.883l12.793 497.855z"/><path fill="#f9ae93" d="M1486.27 1840.782c29.352-19.83 29.236-18.048 29.236-18.048l22.516-3.953 34.922-6.137 32.232-5.666 7.978 65.44.942 7.752-6.077 1.258-2.112.448-43.624 9.058-66.968 13.908c0 .001-38.412-44.24-9.045-64.06z"/><path fill="#fff" d="M1486.27 1840.782c29.352-19.83 29.236-18.048 29.236-18.048l22.516-3.953c-1.063 15.774-.848 54.765 24.261 72.153l-29.545 6.141-37.423 7.766c0 .002-38.412-44.239-9.045-64.059z"/><path fill="#dbeafc" d="M1486.27 1840.782c29.352-19.83 29.236-18.048 29.236-18.048l22.516-3.953s-16.045 5.166-29.152 24.084c-12.947 18.722 4.051 49.294 23.868 54.211l-37.423 7.766c0 .001-38.412-44.24-9.045-64.06z"/><path fill="#037557" d="M1427.503 1802.474c7.211-7.961 3.864-26.423-4.436-48.903-1.965-5.306-2.924-11.306-3.235-17.38-.544-9.921.629-20.026 1.909-27.597 34.559 1.637 63.553 74.4 68.891 83.21 6.021 9.896 35.726 9.415 34.607 17.165-1.108 7.735-38.615 31.247-32.985 60.531 1.433 7.446 3.543 12.843 6.122 16.771 3.756 5.692 8.496 8.271 13.651 9.442.015.01.027.008.042.019 5.29 1.199 10.997.939 16.469 1.032 14.548.279 26.744 10.364 2 16.611 0 0-61.336 16.473-67.979 25.384-.44.595-.98 1.286-1.646 2.076-14.001-11.298-7.544-36.374-9.466-46.987-2.194-12.172-15.385-3.579-13.664-19.365 1.719-15.798 6.146-20.862-1.336-43.55-7.479-22.677-16.14-20.488-8.944-28.459z"/><path fill="#fff" d="M1412.602 1917.256c3.343-26.733 8.549-54.816 1.673-82.042-6.044-23.951-15.771-81.245-12.698-105.599.413-3.338 1.065-6.056 2.011-7.984 2.155-4.42 4.146-7.852 5.908-10.519 4.131-1.941 8.221-2.708 12.245-2.518-1.28 7.571-2.453 17.676-1.909 27.597.311 6.074 1.271 12.074 3.235 17.38 8.3 22.48 11.647 40.943 4.436 48.903-7.196 7.971 1.465 5.782 8.945 28.458 7.481 22.688 3.055 27.752 1.336 43.55-1.721 15.786 11.469 7.193 13.664 19.365 1.922 10.613-4.536 35.689 9.466 46.987-4.418 5.334-13.514 14.817-23.196 22.277-17.642-4.105-28.004-22.816-25.116-45.855z"/><path fill="#03513a" d="M1389.281 1871.359c15.103-27.508 12.343-50.168 6.338-70.044-4.618-15.285-18.022-48.418-5.741-71.986 3.684-7.085 9.686-13.292 18.934-17.903.215-.103.454-.222.684-.314-1.762 2.667-3.753 6.099-5.908 10.519-.945 1.928-1.597 4.646-2.011 7.984-3.073 24.354 6.654 81.648 12.698 105.599 6.876 27.226 1.67 55.309-1.673 82.042-2.888 23.039 7.474 41.75 25.115 45.855-10.736 8.254-22.161 14.049-28.635 8.898-13.175-10.497-34.916-73.14-19.801-100.65z"/><path fill="#fff" d="M1465.771 1739.756c1.115-.195 2.359-.246 3.73-.151 1.435.099 5.803.402 7.557 3.696 1.808 3.395-.34 7.12-2.417 10.722-.875 1.517-1.779 3.086-2.229 4.373-1.054 3.017-.832 7.686 1.178 9.826 1.336 1.424 3.576 1.707 6.657.846 2.625-.735 5.892-1.292 7.897.926 2.207 2.441.93 5.696-.421 9.142-1.07 2.728-2.535 6.464-1.29 7.827 2.068 2.265 7.231 4.13 10.315 5.245 3.187 1.151 5.703 2.06 5.133 5.012-.603 3.12-3.186 3.029-10.09 2.785a3.19 3.19 0 0 1-2.959-4.056c-2.675-1.209-5.333-2.734-7.111-4.682-3.924-4.298-1.62-10.172.061-14.46.199-.509.443-1.13.656-1.718-.146.037-.303.079-.471.126-6.917 1.936-10.903-.359-13.03-2.623-3.944-4.2-4.268-11.378-2.55-16.298.647-1.853 1.704-3.686 2.725-5.458.762-1.322 1.984-3.44 2.199-4.463-.328-.127-1.001-.314-2.252-.401-2.078-.144-3.107.228-3.357.59-.459.664-.11 2.673.51 4.025a3.199 3.199 0 0 1-1.554 4.231 3.186 3.186 0 0 1-4.228-1.529c-.295-.626-2.796-6.238.004-10.329 1.175-1.717 2.963-2.788 5.337-3.204z"/><path fill="#f9ae93" d="M1533.952 2272.714c10.267-33.902 11.301-32.446 11.301-32.446l14.977-17.27 23.227-26.791 21.436-24.729 47.47 45.744 5.621 5.422-3.922 4.809-1.356 1.679-28.135 34.547-43.19 53.035c0 .001-57.713-10.097-47.429-44z"/><path fill="#fff" d="M1533.952 2272.714c10.267-33.902 11.301-32.446 11.301-32.446l14.977-17.27c9.126 12.91 33.888 43.03 64.34 40.683l-19.051 23.402-24.139 29.633c.001-.001-57.712-10.099-47.428-44.002z"/><path fill="#dbeafc" d="M1533.952 2272.714c10.267-33.902 11.301-32.446 11.301-32.446l14.977-17.27s-9.191 14.13-7.428 37.077c1.763 22.694 34.239 35.694 52.717 27.008l-24.139 29.633c.001-.001-57.712-10.099-47.428-44.002z"/><path fill="#037557" d="M1464.188 2280.059c.573-10.726-13.67-22.94-34.291-35.147-4.871-2.877-9.401-6.928-13.474-11.445-6.68-7.355-12.144-15.936-15.927-22.618 27.848-20.53 96.246 17.64 105.945 21.109 10.914 3.881 33.66-15.231 37.681-8.512 4.019 6.701-10.252 48.604 12.589 67.776 5.809 4.874 10.851 7.73 15.33 9.151 6.505 2.048 11.81 1.058 16.548-1.284.018-.002.026-.011.044-.012 4.861-2.406 9.126-6.208 13.429-9.588 11.465-8.961 27.289-8.828 12.03 11.628 0 0-37.202 51.473-36.735 62.578.034.74.05 1.616.033 2.649-17.991.065-28.798-23.465-36.984-30.488-9.381-8.061-14.196 6.927-22.818-6.407-8.632-13.343-8.391-20.064-28.508-32.95-20.108-12.877-25.448-5.715-24.892-16.44z"/><path fill="#fff" d="M1525.03 2378.523c-14.27-22.852-27.945-47.927-50.455-64.715-19.798-14.772-63.487-53.093-76.465-73.928-1.785-2.851-2.994-5.371-3.476-7.463-1.116-4.789-1.736-8.708-2.051-11.889 1.981-4.112 4.671-7.287 7.913-9.678 3.783 6.682 9.247 15.263 15.927 22.618 4.073 4.517 8.603 8.568 13.474 11.445 20.621 12.208 34.864 24.422 34.291 35.147-.556 10.725 4.784 3.563 24.892 16.439 20.117 12.885 19.876 19.607 28.508 32.95 8.622 13.334 13.437-1.654 22.818 6.407 8.186 7.023 18.993 30.553 36.984 30.488-.063 6.926-1.139 20.021-3.946 31.918-16.278 7.942-36.122-.04-48.414-19.739z"/><path fill="#03513a" d="M1477.982 2357.621c-5.634-30.872-22.069-46.713-39.266-58.348-13.225-8.947-44.526-26.201-49.864-52.235-1.61-7.821-.869-16.424 3.398-25.836.103-.215.212-.458.332-.675.315 3.181.935 7.1 2.051 11.889.482 2.092 1.692 4.613 3.476 7.463 12.978 20.836 56.668 59.156 76.465 73.928 22.51 16.788 36.185 41.863 50.455 64.715 12.292 19.698 32.136 27.681 48.413 19.738-3.124 13.177-8.333 24.881-16.606 24.967-16.843.167-73.228-34.725-78.854-65.606z"/><path fill="#fff" d="M1454.319 2207.255c.742-.855 1.675-1.679 2.799-2.47 1.176-.828 4.757-3.348 8.195-1.899 3.545 1.494 4.228 5.739 4.889 9.844.278 1.729.566 3.517 1.029 4.799 1.086 3.006 4.203 6.488 7.112 6.882 1.935.261 3.851-.931 5.699-3.543 1.573-2.226 3.757-4.719 6.712-4.263 3.252.502 4.315 3.833 5.44 7.359.891 2.791 2.111 6.614 3.937 6.887 3.034.453 8.216-1.356 11.312-2.438 3.199-1.116 5.725-1.999 7.144.651 1.5 2.801-.561 4.36-6.073 8.526a3.19 3.19 0 0 1-4.855-1.281c-2.838.749-5.862 1.243-8.471.853-5.756-.86-7.674-6.87-9.074-11.259a74.077 74.077 0 0 0-.574-1.747c-.09.121-.185.252-.286.395-4.146 5.866-8.686 6.599-11.765 6.184-5.71-.771-10.489-6.137-12.26-11.037-.667-1.846-1.003-3.935-1.328-5.954-.243-1.507-.631-3.921-1.109-4.85-.335.108-.974.388-2 1.11-1.703 1.199-2.267 2.137-2.233 2.575.063.805 1.601 2.144 2.934 2.802a3.198 3.198 0 0 1 1.463 4.263 3.186 3.186 0 0 1-4.245 1.48c-.624-.3-6.104-3.076-6.512-8.017-.173-2.073.54-4.033 2.12-5.852z"/><path fill="#037557" d="M2852.545 1347.806a7802.654 7802.654 0 0 1-23.762 68.923c-36.505 104.356-84.565 235.374-97.276 249.356-21.325 23.458-158.845-8.52-175.905-10.652-6.608-.83-18.016 40.444-30.202 94.965a2300.093 2300.093 0 0 0-5.263 24.193c-15.379 72.032-31.052 158.267-39.194 202.682-1.24 6.755-2.301 12.543-3.162 17.165-.83 4.433-1.471 8.52-1.965 12.291-6.534 49.846 14.045 45.497 15.295 59.132 1.344 14.676-20.538 19.728-20.789 29.855-.252 10.126 17.417 66.801-19.896 51.873-12.26-4.906-18.741-12.774-23.09-21.766-8.887-18.384-8.971-41.515-31.641-53.922-33.752-18.468-55.435-9.77-82.621-10.83-27.187-1.072-36.778-51.17-35.707-94.881 1.061-43.711-38.385-39.446-49.573-27.722-8.215-3.109-58.229-52.252-105.911-97.738.273-.62.546-1.24.83-1.87a624.654 624.654 0 0 1 10.263-21.724c13.74-27.702 30.842-57.567 49.656-87.338 16.146-25.548 33.532-51.044 51.096-75.058a1307.193 1307.193 0 0 1 13.877-18.615c31.788-41.82 63.261-77.61 88.136-99.009h.021v-.021c8.015-6.912 15.369-12.301 21.808-15.925-1.323 1.019-.378 2.048 4.013 4.559 17.417 9.938 12.785 77.463 14.56 68.23.872-4.559 12.774-17.627 24.455-30.107 12.05-12.879 23.899-25.138 23.174-26.756 3.309 6.187 5.116 18.121 6.439 30.254 2.112 19.193 3.004 38.868 6.692 36.904 3.761-1.975 10.106-18.331 18.384-33.941 3.393-6.398 7.08-12.658 11.083-17.753v-.021c1.965-2.5 3.992-4.738 6.082-6.555 10.484-9.16 18.374-10.789 17.67-22.344 5.935.609 18.005 1.817 32.891 3.109 10.799.935 23.089 1.922 35.58 2.763 32.513 2.175 66.402 3.351 79.103.126 27.177-6.933 99.146-130.597 132.719-183.9 5.179-8.225 9.581-15.863 13.31-22.88 21.894 5.692 55.437 19.359 68.82 24.948z"/><path fill="#f9ae93" d="M2507.888 1384.09c-3.719 8.646-8.466 19.97-12.06 29.708-1.46 3.971-2.721 7.669-3.656 10.831-2.259 7.69-7.889 35.265-13.604 64.427 0 0-29.204 38.805-54.794 48.039-.536-1.187-4.065-7.595-8.393-16.262-7.291-14.581-16.829-35.549-18.09-48.722v-.063c1.114-8.614 2.111-16.377 2.92-22.376 4.265-31.725 24.015-57.157 22.323-75.562-1.68-18.373-19.781-12.102-24.582-15.306-4.79-3.194 6.019-2.133 17.995-19.193 10.967-15.6 3.646-22.953 4.78-42.492a310.404 310.404 0 0 0 1.807 4.549v.021c3.95 9.528 8.383 18.541 13.142 25.411 1.954 2.815 4.16 5.631 6.587 8.425 12.07 13.898 29.361 27.25 46.18 37.671a249.5 249.5 0 0 0 19.445 10.894z"/><path fill="#037557" d="M2539.083 1393.858c-.598.128-1.3.192-2.089.192-2.814 0-6.716-.853-11.365-2.409-5.138-1.706-11.194-4.286-17.739-7.548a250.398 250.398 0 0 1-19.445-10.895 262.72 262.72 0 0 1-13.924-9.253 246.691 246.691 0 0 1-14.156-10.896c-6.716-5.607-12.899-11.513-18.102-17.526a99.551 99.551 0 0 1-6.588-8.422c-4.754-6.865-9.189-15.884-13.134-25.415v-.021a227.304 227.304 0 0 1-1.812-4.542c-9.297-23.816-15.266-49.146-14.904-51.065 8.038-42.92 131.659-31.449 170.038 33.048 38.378 64.498-22.388 111.703-36.78 114.752z"/><path fill="#f6816b" d="M2409.213 1417.644c8.063 3.984 68.636-13.349 79.231-29.632 0 0-.435-13.131-5.688-11.38-5.251 1.75-73.543 41.012-73.543 41.012z"/><path fill="#ffa608" d="M2462.049 1292.432c5.074 12.516.661 30.724-19.787 43.091a99.551 99.551 0 0 1-6.588-8.422c-4.754-6.865-9.189-15.884-13.134-25.415v-.021c5.395-28.955 14.733-40.937 18.742-33.219 3.987 7.718 5.053 14.669 10.661 4.797 5.586-9.872 10.107-25.308 20.511-16.524 10.404 8.785-15.458 23.198-10.405 35.713z"/><path fill="#f6816b" d="M2495.829 1413.798c-1.46 3.971-2.721 7.669-3.656 10.831-2.259 7.69-7.889 35.265-13.604 64.427 0 0-29.204 38.805-54.794 48.039-.536-1.187-4.065-7.595-8.393-16.262 3.288 3.341 7.416 6.229 11.702 5.977 9.801-.578 30.811-19.739 39.562-28.5 8.761-8.751 17.512-63.03 12.963-81.203 0 0 7.742-4.979 16.22-3.309z"/><path fill="#ffa608" d="M2540.682 1355.608c2.665 10.106 10.917 23.453.533 27.974-5.351 2.324-11.194 5.522-15.586 8.059-9.979-3.326-23.411-9.914-37.184-18.443 21.065-6.674 6.929-22.046 9.851-37.675 2.942-15.65 15.735-7.633 18.933-14.584 3.198-6.908 5.864-25.841 15.991-24.242 10.128 1.599-3.198 33.837 0 36.246 3.198 2.409 13.859-18.656 15.458-11.194 1.599 7.463-10.661 23.71-7.996 33.859z"/><path fill="#ffa608" d="M2532.154 1416.267c-10.298 10.128-7.825-15.799-23.283-9.403-15.458 6.396-23.091-12.984-23.624-20.618-.533-7.633-12.622-8.699-13.497-19.189-.618-7.313-6.417-9.083-11.385-14.008 8.826 7.356 18.528 14.221 28.08 20.149a249.739 249.739 0 0 0 19.445 10.895c6.545 3.262 12.601 5.842 17.739 7.548 4.648 1.557 8.55 2.409 11.365 2.409-1.045 7.548 3.667 13.859-4.84 22.217z"/><path fill="#f9ae93" d="M2484.071 1404.275c17.555-17.029 32.712-15.784 36.131-3.466 3.419 12.318-25.637 29.071-39.891 20.728-14.254-8.342 3.76-17.262 3.76-17.262z"/><path fill="#f6816b" d="M2488.527 1411.322c5.656-2.676 6.958-8.761 10.347-9.561 3.389-.8 7.945 4.507 3.896 7.84s-23.681 6.186-14.243 1.721z"/><path fill="#002760" d="M2488.445 1373.198c-21.854 36.801-81.554 47.611-80.126 43.688 1.408-3.902 5.331-12.345 6.354-12.537.96-.192 41.513-15.202 59.849-40.404a262.495 262.495 0 0 0 13.923 9.253z"/><path fill="#03513a" d="M2423.777 1537.095c.725 1.62-11.129 13.88-23.177 26.759-11.684 12.473-23.581 25.543-24.455 30.105-1.77 9.232 2.857-58.292-14.563-68.228-4.392-2.516-5.33-3.539-4.008-4.563.661-.384 1.3-.725 1.941-1.066 7.014-3.22 27.035-9.957 37.781-48.058v.064c1.28 13.369 11.088 34.775 18.422 49.38 4.179 8.337 7.548 14.456 8.059 15.607z"/><path fill="#3a95aa" d="M2359.515 1520.102c-.64.341-1.28.682-1.941 1.066.426-.341 1.087-.682 1.941-1.066z"/><path fill="#03513a" d="M2472.454 1545.986c-2.09 1.813-4.115 4.051-6.077 6.546v.021c-4.008 5.096-7.697 11.365-11.086 17.761-8.273 15.607-14.627 31.961-18.379 33.943-3.688 1.961-4.584-17.718-6.695-36.907-1.322-12.132-3.135-24.072-6.439-30.255 7.825-2.814 16.013-8.422 23.582-14.818 17.143-14.541 31.215-33.219 31.215-33.219 7.675 17.42 11.129 27.739 11.556 34.583.702 11.557-7.187 13.177-17.677 22.345z"/><path fill="#f9ae93" d="M2896.256 1207.953c-2.994 5.274-9.097 19.55-15.327 34.74-5.988 14.633-12.112 30.128-15.673 39.246-11.829-4.885-35.308-12.07-48.806-15.432 3.414-24.823 2.332-91.256 6.671-100.081 5.064-10.221 4.759 24.088 11.713 27.197 6.944 3.099 38.165-74.385 46.348-79.691 8.194-5.315-.809 17.648-4.517 30.738-3.688 13.079-11.513 34.141-3.834 30.233 7.689-3.918 23.426-58.754 30.338-55.371 6.902 3.372-20.852 59.427-18.72 60.918 2.154 1.513 37.419-51.064 45.067-46.695 7.637 4.37-35.129 49.636-34.068 54.542 1.072 4.885 49.184-33.006 50.508-20.81 1.323 12.198-42.21 27.356-49.7 40.466z"/><path fill="#037557" d="M2852.55 1347.804c-13.389-5.586-46.929-19.253-68.825-24.946 20.382-38.443 20.895-58.506 24.156-58.143 1.706.192 4.734.831 8.571 1.791 13.497 3.368 36.972 10.554 48.805 15.437 4.242 1.769 6.993 3.22 7.228 4.094.277 1.044-7.653 25.585-19.935 61.767z"/><circle cx="2845.578" cy="1322.858" r="9.552" fill="#fff"/><path fill="#03513a" d="M2335.744 1537.115c-42.261 36.358-103.557 114.241-153.11 192.682-35.948 5.631-77.274 8.362-91.834-5.074-20.379-18.804-81.592-121.406-118.139-186.137 0 0 .011-.01.032-.021 11.219-10.179 45.686-40.948 58.88-53.985 18.636 21.766 41.284 48.186 63.607 70.667l.116.115.01.01c27.24 27.428 53.964 48.974 72.253 49.016 50.761.148 166.388-66.243 168.185-67.273z"/><path fill="#f9ae93" d="M1984.427 1444.619s-.021.021-.074.053c-10.799 8.225-30.38 26.409-36.746 37.324-9.634-9.024-25.643-23.888-38.722-35.517-8.204-7.29-15.263-13.32-18.846-15.82-12.385-8.614-58.229-3.582-62.284-15.159-4.045-11.576 55.697 1.922 54.563-2.941-1.145-4.885-59.227-27.355-54.216-34.582 5.032-7.227 59.479 25.054 60.76 22.764 1.282-2.258-47.881-40.906-43.091-46.926 4.78-6.03 42.566 36.694 51.201 36.935 8.614.21-7.511-15.442-16.461-25.653-8.982-10.211-26.998-27.082-17.312-25.8 9.675 1.261 71.192 57.777 76.129 52 4.927-5.799-10.105-36.652-1.145-29.592 7.25 5.692 31.831 58.932 46.244 82.914z"/><path fill="#03513a" d="M2031.57 1484.581c-13.197 13.049-47.717 43.858-58.911 54.007-13.176-23.325-23.155-41.747-26.843-49.53-.725-1.556.021-4.008 1.791-7.057 6.376-10.938 26.033-29.189 36.822-37.376 2.089-1.578 3.838-2.772 5.096-3.475 3.347-1.856 19.828 17.482 42.045 43.431z"/><circle cx="1976.377" cy="1508.119" r="9.246" fill="#fff" transform="rotate(-45.001 1976.37 1508.15)"/><path fill="#002760" d="M2427.337 2125.823c-24.855 35.507-72.568 69.669-138.655 79.733-35.895 5.473-77.221 3.834-123.255-8.562-178.038-47.976-91.687-133.266-130.061-142.857-18.447-4.601-34.205-7.248-45.434-14.097-12.176-7.375-19.088-19.634-18.531-44.531 1.072-47.976-77.821-53.313-77.821-68.23 0-10.127-30.916 2.322-57.808 11.041-12.722 4.139-24.54 7.417-31.746 7.08-22.386-1.072-36.242-25.054-90.08-9.066-53.838 15.999-69.291 11.734-90.08-2.658s-73.566 30.38-74.627 14.392c-1.061-15.999 33.049-33.048 38.91-78.892 5.862-45.844 7.459-58.103 12.259-61.296 7.144-4.78 374.785-58.271 412.204-49.047 38.227 9.454 67.084 41.662 109.273 81.896 47.682 45.486 97.696 94.629 105.911 97.738 0 0 .021-.021.063-.074 11.293-11.671 50.571-15.821 49.51 27.796-1.072 43.711 8.519 93.809 35.707 94.881 27.187 1.061 48.869-7.637 82.621 10.83 22.668 12.408 22.753 35.539 31.64 53.923z"/><path fill="#002760" d="M1989.932 2040.04c-8.677 14.98-15.579 31.21-26.462 44.972-5.389 6.807-11.744 13.016-19.781 18.163-35.717 22.922-67.704-18.121-71.969 7.994-4.254 26.126-34.645 74.627-93.809 97.36-59.164 22.743-91.151 60.425-94.881 66.286-3.729 5.862-30.916-6.933-44.772-46.905-13.856-39.982-44.246-36.252-45.308-42.65-.472-2.773 39.698-46.201 89.618-97.507 52.21-53.68 115.071-115.985 153.204-149.433 26.892-8.719 57.808-21.167 57.808-11.041 0 14.917 78.892 20.254 77.821 68.23-.557 24.897 6.355 37.156 18.531 44.531z"/><path fill="#fff" d="M3089.708 908.115c-42.313 18.668-6.93 63.431 59.7 49.572s271.314 25.053 284.64 5.33c13.326-19.722-55.436-53.303-93.814-35.713-38.378 17.59 2.665-18.656-25.586-23.453-28.251-4.797-46.907 21.321-50.105 5.33-3.198-15.991 58.101-132.726-18.656-155.113s-97.545 91.149-91.149 131.66c6.396 40.51-28.784 6.396-65.03 22.387zM1232.616 1065.985c28.118-6.756 33.315 11.224 36.513 38.66 3.198 27.436 15.724 47.958 25.852 31.967s21.854-84.841 54.636-71.471-6.929 60.277 3.998 75.735 69.472-5.508 72.493 14.036c3.021 19.545-34.292 11.549-20.255 20.611 14.037 9.062 45.841-8.528 40.511 10.128-5.33 18.656-260.121 12.793-288.371 0-28.251-12.793 26.119-14.036 40.866-15.636s-30.207-88.661 33.757-104.03z"/><path fill="#fe6006" d="M2224.87 662.923c-.275 18.379-2.582 65.926-2.945 68.056-.364 2.13-33.94 16.867-34.647 5.331-.697-11.555 7.461-18.32 5.861-29.315-1.591-11.025 5.871-12.095-7.461-15.119-13.323-3.004-20.617-3.908-11.192-6.038 9.425-2.131 49.059-20.656 49.402-26.645.324-5.999-27.627-18.3-26.351-27.548 1.296-9.239-26.075-2.838-28.206-8.875-2.14-6.057-20.068 2.837-27.186-4.624-7.098-7.462-8.698-26.115-21.667-26.479-12.979-.344-31.103-17.76-15.119-23.985 15.993-6.214 28.255-1.414 28.618-10.132.364-8.698-14.226-12.792-5.331-13.863 8.895-1.06 46.782-1.767 54.498 1.708 7.736 3.456 23.857 5.586 23.857 5.586.816 7.462 18.124 93.563 17.869 111.942zM2378.9 429.36c-1.944 10.839-51.072 50.198-92.306 76.843-40.577 26.233-78.394 44.199-79.573 44.759.177-.618 3.692-11.683 8.512-23.435 4.968-12.086-11.025-6.568-10.662-14.923.363-8.355 18.123-7.098 13.499-12.086-4.604-4.968-8.001-19.194-3.377-28.599 4.634-9.425-17.053-10.319-15.62-21.511 1.404-11.192 14.923-18.123 27.519-14.923 12.625 3.201 8.531 19.91 27.548 15.453 19.017-4.428 25.713 9.955 32.114 11.968 6.391 1.983 22.257-5.999 31.191-11.202 8.915-5.194 20.254 1.07 28.383-.678 8.119-1.726 32.772-21.666 32.772-21.666zM2540.43 472.902s-.285 2.386-39.448 11.447c-39.192 9.062-28-11.192-48.784-12.508-20.784-1.345-34.921-5.331-38.122-20.264-3.053-14.216-32.241-21.51-34.971-22.168 1.05.108 6.401.236 22.983-6.352 18.831-7.491 17.063-26.4 30.661-33.312 13.588-6.951 27.725 33.056 31.436 29.856 3.75-3.201 26.135-12.282 47.714 7.717 21.58 19.999 28.531 45.584 28.531 45.584z"/><path fill="#fe6006" d="M2639.294 549.912s-40.341 3.201-77.295 55.971c1.6-17.584-18.379-20.784-23.71-50.895-5.331-30.121 2.141-82.086 2.141-82.086s1.06 9.592 16.778-5.606c15.708-15.198 34.392-17.848 31.701-9.317-2.641 8.531-15.433 45.839-4.516 42.638 10.917-3.191 25.84-27.205 27.716-5.331 1.875 21.835-16.799 20.519-11.723 31.436 5.067 10.937 36.503 3.751 38.908 23.19z"/><path fill="#fe6006" d="M2575.332 685.307c5.861 21.069-21.599-26.115-64.758-21.069l.02-.02L2562 605.882c-3.446 10.937 12.537 31.711 20.793 32.516 0 0-13.322 25.841-7.461 46.909z"/><path fill="#fe6006" d="m2510.594 664.219-.02.02s-33.861 3.476-37.052 32.791l-3.201 29.316s-24.525-30.376-61.832-27.176c-37.317 3.191-78.885 21.314-83.156 38.378-4.261 17.053-13.853 34.107-18.654 14.393-4.801-19.724-39.978-45.672-84.756-20.961 21.324-33.41 71.963-63.265 108.211-67.526 36.247-4.261 156.709-44.239 174.833-37.847 17.801 6.292 6.059 37.483 5.627 38.612z"/><path fill="#002760" d="M2599.671 1720.459c9.595-3.554 23.809-5.33 23.809 0s18.834 104.475 14.925 110.871c-3.909 6.396-16.702 16.702-22.743 8.173-6.041-8.528-15.991-119.044-15.991-119.044z"/><path fill="#023c82" d="M2595.229 1751.908c22.565 15.103 40.866 7.995 41.754 1.599.888-6.396 6.575-49.217-17.678-44.597-24.254 4.62-34.204 9.062-34.737 15.458s10.661 27.54 10.661 27.54z"/><circle cx="2617.439" cy="1743.379" r="7.729" fill="#fff"/><path fill="#2f8bf7" d="M1636.301 1223.771a3.198 3.198 0 0 1-3.198-3.198V993.4a3.199 3.199 0 0 1 6.396 0v227.172a3.198 3.198 0 0 1-3.198 3.199zM1754.688 1711.608a3.198 3.198 0 0 1-3.198-3.198v-227.172a3.199 3.199 0 0 1 6.396 0v227.172a3.198 3.198 0 0 1-3.198 3.198zM2963.55 1430.091a3.198 3.198 0 0 1-3.198-3.198V1199.72a3.199 3.199 0 0 1 6.396 0v227.173a3.199 3.199 0 0 1-3.198 3.198zM1945.541 2502.251a3.198 3.198 0 0 1-3.198-3.198v-358.445a3.198 3.198 0 0 1 6.396 0v358.445a3.198 3.198 0 0 1-3.198 3.198zM2906.451 1615.657a3.198 3.198 0 0 1-3.198-3.198v-227.172a3.198 3.198 0 0 1 6.396 0v227.172a3.199 3.199 0 0 1-3.198 3.198zM2390.415 2465.437a3.198 3.198 0 0 1-3.198-3.198v-227.173a3.198 3.198 0 0 1 6.396 0v227.173a3.198 3.198 0 0 1-3.198 3.198zM1989.93 2465.437a3.198 3.198 0 0 1-3.198-3.198v-227.173a3.199 3.199 0 0 1 6.396 0v227.173a3.199 3.199 0 0 1-3.198 3.198zM1472.482 2671.191a3.198 3.198 0 0 1-3.198-3.198V2440.82a3.198 3.198 0 0 1 6.396 0v227.173a3.198 3.198 0 0 1-3.198 3.198zM2685.32 2254.194a3.198 3.198 0 0 1-3.198-3.198v-423.748a3.199 3.199 0 0 1 6.396 0v423.748a3.199 3.199 0 0 1-3.198 3.198zM2300.225 2715.724a3.198 3.198 0 0 1-3.198-3.198v-423.748a3.199 3.199 0 0 1 6.396 0v423.748a3.198 3.198 0 0 1-3.198 3.198zM1833.959 1589.688a3.198 3.198 0 0 1-3.198-3.198v-143.24a3.198 3.198 0 0 1 6.396 0v143.24a3.199 3.199 0 0 1-3.198 3.198zM2628.233 2033.883a3.198 3.198 0 0 1-3.198-3.198v-113.589a3.199 3.199 0 0 1 6.396 0v113.589a3.198 3.198 0 0 1-3.198 3.198zM1437.717 2475.662a3.198 3.198 0 0 1-3.198-3.198v-113.589a3.198 3.198 0 0 1 6.396 0v113.589a3.199 3.199 0 0 1-3.198 3.198zM1486.268 2099.114a3.198 3.198 0 0 1-3.198-3.198v-113.589a3.198 3.198 0 0 1 6.396 0v113.589a3.199 3.199 0 0 1-3.198 3.198zM2301.162 541.019a3.198 3.198 0 0 1-3.995-2.12l-66.592-217.193a3.198 3.198 0 1 1 6.115-1.875l66.591 217.193a3.196 3.196 0 0 1-2.119 3.995zM2359.829 540.04a3.198 3.198 0 0 1-3.236-3.16l-2.681-227.157a3.2 3.2 0 0 1 6.396-.076l2.681 227.157a3.198 3.198 0 0 1-3.16 3.236zM2440.515 577.424a3.2 3.2 0 0 1-2.06-4.027l69.845-216.169a3.198 3.198 0 0 1 6.087 1.966l-69.845 216.169a3.2 3.2 0 0 1-4.027 2.061zM2415.82 499.537a3.198 3.198 0 0 1-3.198-3.198v-143.24a3.199 3.199 0 0 1 6.396 0v143.24a3.198 3.198 0 0 1-3.198 3.198zM2242.236 613.17a3.199 3.199 0 0 1-3.946-2.21l-38.88-137.863a3.199 3.199 0 0 1 6.156-1.736l38.88 137.863a3.199 3.199 0 0 1-2.21 3.946zM2503.336 600.883a3.199 3.199 0 0 1-1.457-4.282l63.251-128.519a3.198 3.198 0 0 1 5.739 2.825l-63.251 128.519a3.199 3.199 0 0 1-4.282 1.457z"/><path fill="#03513a" d="M2480.943 1977.273c-1.24 6.755-2.301 12.543-3.162 17.165-.83 4.433-1.471 8.52-1.965 12.291-12.396-15.453-30.874-42.692-43.133-54.951-17.333-17.333-16.283-8.404-44.121-11.555s-16.808-39.394-61.979-55.151c-41.967-14.633-143.582-44.551-203.869-46.211a624.654 624.654 0 0 1 10.263-21.724c15.82 3.635 41.83 11.597 87.506 21.861 82.464 18.531 203.271 71.287 232.443 94.923 12.459 10.104 21.893 27.206 28.017 43.352zM2525.4 1750.397a2300.093 2300.093 0 0 0-5.263 24.193c-19.529.115-75.699-18.058-103.211-38.123 0 0-5.956-12.995 7.007-22.806 12.942-9.79 75.52 26.557 101.467 36.736zM2432.611 1642.839c-1.744 7.816.427 13.607-1.328 21.896-19.529.115-95.323-18.059-122.836-38.123 0 0-5.956-12.995 7.007-22.806 12.942-9.792 91.21 28.853 117.157 39.033z"/><path fill="#03513a" d="M2255.675 1664.735c7.732 2.084 13.613.17 21.816 2.286-.74 19.515-67.98 133.26-89.231 159.867 0 0-32.618 4.707-22.477-7.999 12.156-15.232 78.586-128.679 89.892-154.154z"/><path fill="#03513a" d="M2287.012 1671.831c-.851 7.816-12.102 2.784-12.953 11.072-8.961.105-27.05-10.19-40.329-28.164a1307.193 1307.193 0 0 1 13.877-18.615c11.924 7.459 30.297 28.375 39.405 35.707zM2558.596 1529.51c-6.996 5.389-15.684 10.631-18.541 11.787-37.387 15.19-74.407 80.31-107.066 188.343-25.191 83.325-38.574 162.764-38.7 163.551-.841 5.042-5.21 8.614-10.158 8.614a10.62 10.62 0 0 1-1.713-.136c-5.609-.946-9.402-6.251-8.467-11.871.136-.809 13.741-81.539 39.299-166.125 32.544-107.623 69.427-173.773 109.766-196.926 10.799.935 23.089 1.923 35.58 2.763z"/><path fill="#fff" d="M2479.867 1993.463c-4.321 0-8.346-2.738-9.782-7.064-14.229-42.869-69.66-83.746-156.081-115.101-72.075-26.149-149.992-39.332-183.673-36.966-5.668.396-10.607-3.882-11.005-9.562-.398-5.679 3.883-10.606 9.562-11.005 35.328-2.482 114.688 10.048 192.149 38.152 65.421 23.735 147.778 65.207 168.618 127.987 1.793 5.403-1.133 11.238-6.537 13.031-1.08.358-2.175.528-3.251.528z"/><path fill="#fff" d="M2376.906 1897.312c-.564 0-1.134-.046-1.708-.142-5.615-.937-9.409-6.249-8.471-11.864.134-.806 13.735-81.544 39.302-166.124 35.016-115.832 75.067-183.619 119.042-201.476 5.271-2.142 11.287.398 13.429 5.672 2.142 5.275-.398 11.288-5.673 13.43-37.384 15.181-74.406 80.308-107.063 188.34-25.189 83.327-38.571 162.758-38.703 163.551-.84 5.041-5.207 8.613-10.155 8.613zM2190.924 1838.996c-1.852 0-3.728-.499-5.419-1.547-4.84-2.998-6.333-9.352-3.336-14.192 1.341-2.164 134.164-217.251 143.351-287.479.739-5.645 5.909-9.621 11.559-8.885 5.645.739 9.622 5.913 8.884 11.559-9.758 74.601-140.697 286.67-146.265 295.661a10.303 10.303 0 0 1-8.774 4.883z"/><path fill="#fff" d="M2545.614 1765.756c-.741 0-1.493-.08-2.245-.248-4.059-.902-99.75-22.356-130.46-45.676-4.535-3.443-5.419-9.91-1.976-14.444 3.442-4.534 9.908-5.419 14.444-1.976 22.52 17.1 96.038 36.094 122.465 41.969 5.557 1.236 9.061 6.742 7.826 12.3-1.069 4.805-5.33 8.075-10.054 8.075zM2288.583 1664.734c-16.907 0-38.241-19.915-44.529-26.18-4.033-4.019-4.045-10.546-.026-14.579 4.016-4.031 10.541-4.045 14.574-.03 10.983 10.919 25.258 20.539 29.971 20.173a10.3 10.3 0 0 1 11.067 9.489c.436 5.677-3.812 10.632-9.489 11.068-.517.04-1.042.059-1.568.059zM2438.801 1653.073c-.325.011-.653.007-.984-.014-16.456-1.015-60.147-18.344-68.738-21.807-19.554-7.883-53.379-22.392-60.225-30.996-3.02-3.795-2.088-9.13 2.08-11.914 4.141-2.768 9.925-1.975 12.96 1.762 2.802 2.938 21.291 12.899 53.813 25.954 31.306 12.567 54.624 19.57 61.476 19.992 5.133.317 8.988 4.38 8.611 9.077-.352 4.395-4.284 7.786-8.993 7.946zm-114.872-62.926.02.025a.438.438 0 0 0-.02-.025z"/><path fill="#2f8bf7" d="m2560.375 464.422-116.174 241.819"/><path fill="none" d="m2323.604 449.785-90.105 275.827"/><path fill="#f6816b" d="M2880.93 1242.693c-5.988 14.633-12.112 30.128-15.673 39.246-11.829-4.885-35.308-12.07-48.806-15.432 0 0 31.179 3.068 40.371 0 6.091-2.037 17.269-15.189 24.108-23.814z"/><path fill="#03513a" d="M2828.783 1416.729c3.067-19.297 6.954-45.045 7.238-53.229.483-13.656-52.294-40.644-52.294-40.644 21.892 5.694 55.435 19.36 68.818 24.949a7790.8 7790.8 0 0 1-23.762 68.924z"/><path fill="#037557" d="M2095.18 1555.247c-2.657-2.542-45.318-43.228-59.058-47.125-13.971-3.96-62.011 29.456-63.429 30.443 11.219-10.179 45.686-40.948 58.88-53.985 18.636 21.767 41.284 48.186 63.607 70.667z"/><path fill="#f6816b" d="M1984.353 1444.672c-10.799 8.225-30.38 26.409-36.746 37.324-9.634-9.024-25.643-23.888-38.722-35.517 18.132 9.612 33.038 20.537 41.358 18.132 9.666-2.795 32.682-18.941 34.11-19.939z"/><path fill="#001f44" d="M2427.337 2125.823c-24.855 35.507-72.568 69.669-138.655 79.733 55.876-35.213 61.601-97.034 13.152-100.406-67.83-4.727-45.634-102.948-38.5-131.312 7.143-28.363-12.911-24.161-35.538-35.37 0 0 .021-.021.063-.074 11.293-11.671 50.571-15.821 49.51 27.796-1.072 43.711 8.519 93.809 35.707 94.881 27.187 1.061 48.869-7.637 82.621 10.83 22.668 12.407 22.753 35.538 31.64 53.922zM1989.932 2040.04c-8.677 14.98-15.579 31.21-26.462 44.972-14.108-26.441-25.191-67.799-40.276-84.565-21.094-23.437-125.051 26.178-240.626 87.307 52.21-53.68 115.071-115.985 153.204-149.433 26.892-8.719 57.808-21.167 57.808-11.041 0 14.917 78.892 20.254 77.821 68.23-.557 24.896 6.355 37.155 18.531 44.53z"/></svg>